<?xml version="1.0" encoding="utf-8"?>
<!-- Generator: Adobe Illustrator 27.6.1, SVG Export Plug-In . SVG Version: 6.00 Build 0)  -->
<svg version="1.1" id="Слой_1" xmlns="http://www.w3.org/2000/svg" xmlns:xlink="http://www.w3.org/1999/xlink" x="0px" y="0px"
	 viewBox="0 0 626.75 453.43" style="enable-background:new 0 0 626.75 453.43;" xml:space="preserve">
<style type="text/css">
	.st0{fill:#808080;}
</style>
<g>
	<polygon points="317.21,286.38 317.21,286.38 316.09,287.03 272.57,261.92 272.57,222.25 270.17,222.25 270.17,260.54 
		268.52,259.58 268.53,259.57 266.17,258.23 265.58,258.57 265.58,258.57 262.17,260.52 262.17,222.25 259.77,222.25 259.77,261.88 
		216.17,286.79 186.36,265.12 184.95,267.06 214.68,288.67 197.76,340.73 197.75,340.73 197.42,341.77 196.29,341.77 157.93,341.77 
		157.93,344.17 196.29,344.17 198.29,344.17 199.17,344.17 199.43,343.34 199.43,343.34 217.09,289.03 265.05,261.64 265.06,261.65 
		266.18,261 309.69,286.11 309.69,324.58 312.09,324.58 312.09,287.49 313.75,288.44 313.74,288.46 316.1,289.8 316.82,289.38 
		320.09,287.49 320.09,324.58 322.49,324.58 322.49,286.11 350.05,270.21 348.85,268.13 	"/>
	<polygon points="515.65,254.25 507.61,246.21 506.05,248.05 513.81,255.81 	"/>
	<polygon points="478.89,285.37 476.49,282.97 474.93,284.81 477.05,286.93 	"/>
	<polygon points="508.29,260.49 501.37,253.57 499.81,255.41 506.45,262.05 	"/>
	<polygon points="500.93,266.69 495.13,260.93 493.61,262.73 499.09,268.25 	"/>
	<polygon points="493.61,272.93 488.93,268.25 487.37,270.09 491.77,274.49 	"/>
	<polygon points="486.25,279.17 482.69,275.61 481.13,277.45 484.41,280.69 	"/>
	<rect x="497.59" y="350.48" transform="matrix(0.4986 -0.8668 0.8668 0.4986 -62.5314 613.2056)" width="2.4" height="20.36"/>
	<rect x="281.48" y="186.77" transform="matrix(0.8664 -0.4994 0.4994 0.8664 -55.0514 170.2247)" width="18.1" height="2.4"/>
	<polygon points="314.89,151.77 317.29,151.77 317.29,116.31 365.97,88.2 367.09,88.85 367.09,88.85 397.33,106.33 398.53,104.25 
		372.37,89.13 372.37,50.17 369.97,50.17 369.97,87.74 366.58,85.77 366.58,85.77 365.98,85.43 363.62,86.77 363.63,86.78 
		361.97,87.74 361.97,50.17 359.57,50.17 359.57,89.12 316.53,113.98 288.33,65.13 286.25,66.33 314.02,114.41 258.49,114.41 
		258.49,116.81 314.89,116.81 	"/>
	<rect x="130.83" y="282.59" transform="matrix(0.809 -0.5878 0.5878 0.809 -138.8027 140.4026)" width="31.64" height="2.4"/>
	<polygon points="132.91,322.95 135.19,322.2 124.3,288.67 154.04,267.06 152.63,265.12 122.68,286.88 85.54,274.79 84.8,277.08 
		121.94,289.17 	"/>
	<rect x="174.5" y="311.17" transform="matrix(0.3089 -0.9511 0.9511 0.3089 -160.7438 403.538)" width="45.59" height="2.4"/>
	<rect x="537.92" y="359.76" transform="matrix(0.8668 -0.4986 0.4986 0.8668 -107.0842 320.9628)" width="18.83" height="2.4"/>
	<rect x="496.82" y="395.65" transform="matrix(0.501 -0.8654 0.8654 0.501 -91.6748 634.7038)" width="15.54" height="2.4"/>
	<polygon points="508.69,408.17 510.77,409.38 518.53,395.93 516.45,394.73 	"/>
	<polygon points="547.01,403.02 539.49,389.98 537.41,391.17 544.93,404.21 	"/>
	<polygon points="528.37,396.37 535.89,409.41 537.97,408.22 530.45,395.18 	"/>
	<path d="M533.13,385.17c1.36-1.96,1.36-4.36,1.36-4.36c0-2.4-1.04-4.04-1.04-4.04c-1-1.6-3.28-2.68-3.28-2.68
		c-2.24-1.08-6.08-1.92-6.08-1.92c-2.8-0.64-4.32-1.16-4.32-1.16c-1.48-0.56-2.2-1.36-2.2-1.36c-0.72-0.84-0.72-2.2-0.72-2.2
		c0-1.32,0.8-2.36,0.8-2.36c0.8-1,2.24-1.52,2.24-1.52c1.4-0.56,3.28-0.56,3.28-0.56c2.8,0,4.48,1.36,4.48,1.36
		c1.64,1.32,2.28,4.48,2.28,4.48h0.08l3.64-0.84c-0.32-2.56-1.72-4.44-1.72-4.44c-1.36-1.84-3.64-2.84-3.64-2.84
		c-2.28-0.96-5.2-0.96-5.2-0.96c-2.8,0-5.08,1-5.08,1c-2.24,0.96-3.52,2.72-3.52,2.72c-1.28,1.72-1.28,3.88-1.28,3.88
		c0,1.96,0.64,3.4,0.64,3.4c0.68,1.44,2.36,2.56,2.36,2.56c1.64,1.16,4.64,1.96,4.64,1.96c0.68,0.2,2.32,0.56,2.32,0.56
		c2.72,0.64,4.2,1.16,4.2,1.16c1.72,0.6,2.6,1.6,2.6,1.6c0.88,1,0.88,2.8,0.88,2.8c0,1.36-0.92,2.44-0.92,2.44
		c-0.92,1.08-2.52,1.68-2.52,1.68c-1.56,0.6-3.44,0.6-3.44,0.6c-3.6,0-5.64-1.76-5.64-1.76c-2.04-1.76-2.44-5.28-2.44-5.28
		l-3.72,0.88c0.64,4.6,3.72,7,3.72,7c3.08,2.4,8.24,2.4,8.24,2.4c2.96,0,5.32-1.12,5.32-1.12
		C531.81,387.13,533.13,385.17,533.13,385.17z"/>
	<polygon points="484.41,331.21 480.81,331.21 480.81,353.57 480.73,353.57 466.37,331.21 462.45,331.21 462.45,359.85 
		466.05,359.85 466.05,337.49 466.13,337.49 480.53,359.85 484.41,359.85 	"/>
	<path d="M417.05,344.81v-0.8v-54.4h54.4h0.8v0.8v34.4h2.4v-34.4v-2v-1.2h-1.2h-2h-55.21l-30.75-23.24l-6,10.4l35.16,14.83v48.96
		l-28.97,28.97l1.7,1.7l27.28-27.27v2.47v2v1.2h1.2h2h2.46l-27.27,27.27l1.7,1.7l28.97-28.97h32.34v-2.4h-38.2H417.05z
		 M415.85,288.41L415.85,288.41L415.85,288.41L415.85,288.41z"/>
	<path d="M382.17,373.53c-3.12-1.84-7.04-1.84-7.04-1.84c-3.88,0-7.04,1.84-7.04,1.84c-3.12,1.84-4.92,5.2-4.92,5.2
		c-1.76,3.4-1.76,7.8-1.76,7.8c0,4.36,1.76,7.72,1.76,7.72c1.8,3.36,4.92,5.2,4.92,5.2c3.12,1.84,7.04,1.84,7.04,1.84
		c3.92,0,7.04-1.8,7.04-1.8c3.08-1.84,4.88-5.2,4.88-5.2c1.76-3.36,1.76-7.8,1.76-7.8c0-4.48-1.76-7.8-1.76-7.8
		C385.25,375.33,382.17,373.53,382.17,373.53z M383.65,392.73c-1.28,2.6-3.48,3.96-3.48,3.96c-2.2,1.36-5.08,1.36-5.08,1.36
		c-2.84,0-5.04-1.36-5.04-1.36c-2.2-1.36-3.48-3.96-3.48-3.96c-1.24-2.56-1.24-6.12-1.24-6.12c0-3.6,1.24-6.24,1.24-6.24
		c1.24-2.64,3.44-4.04,3.44-4.04c2.2-1.4,5.08-1.4,5.08-1.4c2.92,0,5.12,1.4,5.12,1.4c2.2,1.44,3.44,4.04,3.44,4.04
		c1.24,2.64,1.24,6.2,1.24,6.2C384.89,390.13,383.65,392.73,383.65,392.73z"/>
	<polygon points="376.93,273.45 376.93,244.81 373.33,244.81 373.33,267.17 373.25,267.17 358.89,244.81 354.97,244.81 
		354.97,273.45 358.57,273.45 358.57,251.09 358.65,251.09 373.05,273.45 	"/>
	<polygon points="376.81,240.81 376.81,212.17 372.97,212.17 372.97,223.93 358.93,223.93 358.93,212.17 355.13,212.17 
		355.13,240.81 358.93,240.81 358.93,227.33 372.97,227.33 372.97,240.81 	"/>
	<path d="M323.13,332.77c-3.12-1.8-7.04-1.8-7.04-1.8c-3.88,0-7.04,1.84-7.04,1.84c-3.12,1.84-4.92,5.2-4.92,5.2
		c-1.76,3.4-1.76,7.8-1.76,7.8c0,4.32,1.76,7.68,1.76,7.68c1.8,3.36,4.92,5.24,4.92,5.24c3.12,1.84,7.04,1.84,7.04,1.84
		c3.92,0,7.04-1.8,7.04-1.8c3.08-1.84,4.88-5.2,4.88-5.2c1.76-3.36,1.76-7.8,1.76-7.8c0-4.48-1.76-7.8-1.76-7.8
		C326.21,334.61,323.13,332.77,323.13,332.77z M324.61,352.01c-1.28,2.6-3.48,3.96-3.48,3.96c-2.2,1.36-5.08,1.36-5.08,1.36
		c-2.8,0-5.04-1.36-5.04-1.36c-2.2-1.36-3.48-3.96-3.48-3.96c-1.24-2.6-1.24-6.12-1.24-6.12c0-3.6,1.24-6.24,1.24-6.24
		c1.24-2.68,3.44-4.04,3.44-4.04c2.24-1.4,5.08-1.4,5.08-1.4c2.92,0,5.12,1.4,5.12,1.4c2.2,1.4,3.44,4.04,3.44,4.04
		c1.24,2.64,1.24,6.2,1.24,6.2C325.85,349.41,324.61,352.01,324.61,352.01z"/>
	<polygon points="258.81,193.49 258.89,193.49 273.29,215.85 277.17,215.85 277.17,187.21 273.57,187.21 273.57,209.57 
		273.49,209.57 259.13,187.21 255.21,187.21 255.21,215.85 258.81,215.85 	"/>
	<path d="M323.13,159.97c-3.12-1.8-7.04-1.8-7.04-1.8c-3.88,0-7.04,1.84-7.04,1.84c-3.12,1.84-4.92,5.2-4.92,5.2
		c-1.76,3.4-1.76,7.8-1.76,7.8c0,4.32,1.76,7.68,1.76,7.68c1.8,3.36,4.92,5.24,4.92,5.24c3.12,1.84,7.04,1.84,7.04,1.84
		c3.92,0,7.04-1.8,7.04-1.8c3.08-1.84,4.88-5.2,4.88-5.2c1.76-3.36,1.76-7.8,1.76-7.8c0-4.48-1.76-7.8-1.76-7.8
		C326.21,161.81,323.13,159.97,323.13,159.97z M324.61,179.21c-1.28,2.6-3.48,3.96-3.48,3.96c-2.2,1.36-5.08,1.36-5.08,1.36
		c-2.8,0-5.04-1.36-5.04-1.36c-2.2-1.36-3.48-3.96-3.48-3.96c-1.24-2.6-1.24-6.12-1.24-6.12c0-3.6,1.24-6.24,1.24-6.24
		c1.24-2.68,3.44-4.04,3.44-4.04c2.24-1.4,5.08-1.4,5.08-1.4c2.92,0,5.12,1.4,5.12,1.4c2.2,1.4,3.44,4.04,3.44,4.04
		c1.24,2.64,1.24,6.2,1.24,6.2C325.85,176.61,324.61,179.21,324.61,179.21z"/>
	<polygon points="162.09,245.81 162.17,245.81 176.57,268.17 180.45,268.17 180.45,239.53 176.85,239.53 176.85,261.89 
		176.77,261.89 162.41,239.53 158.49,239.53 158.49,268.17 162.09,268.17 	"/>
	<path d="M147.53,342.25c-2.24-1.08-6.12-1.92-6.12-1.92c-2.76-0.64-4.28-1.16-4.28-1.16c-1.48-0.56-2.2-1.36-2.2-1.36
		c-0.72-0.84-0.72-2.2-0.72-2.2c0-1.32,0.8-2.32,0.8-2.32c0.8-1.04,2.2-1.56,2.2-1.56c1.44-0.56,3.32-0.56,3.32-0.56
		c2.8,0,4.48,1.36,4.48,1.36c1.64,1.32,2.24,4.48,2.24,4.48h0.08l3.68-0.84c-0.36-2.56-1.72-4.44-1.72-4.44
		c-1.36-1.84-3.64-2.84-3.64-2.84c-2.28-0.96-5.2-0.96-5.2-0.96c-2.8,0-5.08,1-5.08,1c-2.24,0.96-3.52,2.72-3.52,2.72
		c-1.28,1.72-1.28,3.88-1.28,3.88c0,1.96,0.64,3.4,0.64,3.4c0.68,1.44,2.32,2.56,2.32,2.56c1.68,1.16,4.68,1.96,4.68,1.96
		c0.68,0.2,2.32,0.56,2.32,0.56c2.72,0.64,4.2,1.16,4.2,1.16c1.72,0.6,2.6,1.6,2.6,1.6c0.88,1,0.88,2.8,0.88,2.8
		c0,1.36-0.92,2.44-0.92,2.44c-0.92,1.08-2.52,1.68-2.52,1.68c-1.6,0.6-3.44,0.6-3.44,0.6c-3.6,0-5.64-1.76-5.64-1.76
		c-2.04-1.76-2.44-5.28-2.44-5.28l-3.72,0.88c0.64,4.6,3.72,7,3.72,7c3.08,2.4,8.2,2.4,8.2,2.4c3,0,5.36-1.12,5.36-1.12
		c2.36-1.12,3.68-3.08,3.68-3.08c1.36-1.96,1.36-4.36,1.36-4.36c0-2.4-1.04-4-1.04-4C149.77,343.33,147.53,342.25,147.53,342.25z"/>
	<polygon points="75.49,277.93 75.41,277.93 61.01,255.61 57.13,255.61 57.13,284.21 60.73,284.21 60.73,261.85 60.81,261.85 
		75.17,284.21 79.09,284.21 79.09,255.61 75.49,255.61 	"/>
	<polygon points="32.05,267.37 17.97,267.37 17.97,255.61 14.17,255.61 14.17,284.21 17.97,284.21 17.97,270.77 32.05,270.77 
		32.05,284.21 35.85,284.21 35.85,255.61 32.05,255.61 	"/>
	<path d="M44.37,286.77c0.68-0.64,1.76-1.56,1.76-1.56l1.84-1.52c2.52-2.12,3.8-3.96,3.8-3.96c1.28-1.8,1.28-3.68,1.28-3.68
		c0-1.56-0.76-2.8-0.76-2.8c-0.76-1.24-2.16-1.96-2.16-1.96c-1.4-0.76-3.32-0.76-3.32-0.76c-1.84,0-3.24,0.68-3.24,0.68
		c-1.4,0.68-2.24,1.96-2.24,1.96c-0.84,1.28-1.04,3.04-1.04,3.04l2.56,0.4c0.12-2,1.12-3,1.12-3c1.04-1.04,2.8-1.04,2.8-1.04
		c1.08,0,1.92,0.44,1.92,0.44c0.88,0.44,1.36,1.2,1.36,1.2c0.48,0.8,0.48,1.76,0.48,1.76c0,1.36-1.04,2.88-1.04,2.88
		c-1.04,1.48-3.36,3.36-3.36,3.36l-1.6,1.36c-2.36,1.96-3.52,3.64-3.52,3.64c-1.16,1.64-1.16,3.4-1.16,3.4h13.28v-2.4h-9.88
		C43.73,287.45,44.37,286.77,44.37,286.77z"/>
	<path d="M358.93,41.93c3.12,1.84,7.04,1.84,7.04,1.84c3.92,0,7.04-1.8,7.04-1.8c3.08-1.84,4.88-5.2,4.88-5.2
		c1.76-3.36,1.76-7.8,1.76-7.8c0-4.48-1.76-7.8-1.76-7.8c-1.8-3.36-4.88-5.2-4.88-5.2c-3.12-1.8-7.04-1.8-7.04-1.8
		c-3.88,0-7.04,1.84-7.04,1.84c-3.12,1.84-4.88,5.2-4.88,5.2c-1.8,3.4-1.8,7.8-1.8,7.8c0,4.32,1.8,7.68,1.8,7.68
		C355.81,40.05,358.93,41.93,358.93,41.93z M357.41,22.81c1.24-2.64,3.44-4,3.44-4c2.24-1.4,5.08-1.4,5.08-1.4
		c2.92,0,5.12,1.4,5.12,1.4c2.2,1.4,3.44,4.04,3.44,4.04c1.24,2.64,1.24,6.2,1.24,6.2c0,3.56-1.24,6.16-1.24,6.16
		c-1.24,2.6-3.48,3.96-3.48,3.96c-2.2,1.36-5.08,1.36-5.08,1.36c-2.8,0-5.04-1.36-5.04-1.36c-2.2-1.36-3.48-3.96-3.48-3.96
		c-1.24-2.6-1.24-6.12-1.24-6.12C356.17,25.49,357.41,22.81,357.41,22.81z"/>
	<path d="M408.81,128.33c3.12,1.84,7.04,1.84,7.04,1.84c3.92,0,7.04-1.8,7.04-1.8c3.08-1.84,4.88-5.2,4.88-5.2
		c1.76-3.36,1.76-7.8,1.76-7.8c0-4.48-1.76-7.8-1.76-7.8c-1.8-3.36-4.88-5.2-4.88-5.2c-3.12-1.8-7.04-1.8-7.04-1.8
		c-3.88,0-7.04,1.84-7.04,1.84c-3.12,1.84-4.88,5.2-4.88,5.2c-1.8,3.4-1.8,7.8-1.8,7.8c0,4.32,1.8,7.68,1.8,7.68
		C405.69,126.45,408.81,128.33,408.81,128.33z M407.29,109.25c1.24-2.68,3.44-4.04,3.44-4.04c2.24-1.4,5.08-1.4,5.08-1.4
		c2.92,0,5.12,1.4,5.12,1.4c2.24,1.4,3.44,4.04,3.44,4.04c1.24,2.64,1.24,6.2,1.24,6.2c0,3.56-1.24,6.16-1.24,6.16
		c-1.24,2.6-3.48,3.96-3.48,3.96c-2.2,1.36-5.08,1.36-5.08,1.36c-2.8,0-5.04-1.36-5.04-1.36c-2.2-1.36-3.44-3.96-3.44-3.96
		c-1.28-2.6-1.28-6.12-1.28-6.12C406.05,111.89,407.29,109.25,407.29,109.25z"/>
	<polygon points="437.33,116.21 451.41,116.21 451.41,129.69 455.21,129.69 455.21,101.05 451.41,101.05 451.41,112.81 
		437.33,112.81 437.33,101.05 433.53,101.05 433.53,129.69 437.33,129.69 	"/>
	<path d="M580.25,332.77c-3.12-1.8-7-1.8-7-1.8c-3.92,0-7.04,1.84-7.04,1.84c-3.16,1.84-4.92,5.2-4.92,5.2c-1.8,3.4-1.8,7.8-1.8,7.8
		c0,4.32,1.8,7.68,1.8,7.68c1.76,3.36,4.88,5.24,4.88,5.24c3.12,1.84,7.08,1.84,7.08,1.84c3.88,0,7-1.8,7-1.8
		c3.12-1.84,4.88-5.2,4.88-5.2c1.76-3.36,1.76-7.8,1.76-7.8c0-4.48-1.76-7.8-1.76-7.8C583.37,334.61,580.25,332.77,580.25,332.77z
		 M581.73,352.01c-1.24,2.6-3.48,3.96-3.48,3.96c-2.2,1.36-5.04,1.36-5.04,1.36c-2.84,0-5.08-1.36-5.08-1.36
		c-2.2-1.36-3.44-3.96-3.44-3.96c-1.28-2.6-1.28-6.12-1.28-6.12c0-3.6,1.24-6.24,1.24-6.24c1.24-2.68,3.44-4.04,3.44-4.04
		c2.24-1.4,5.12-1.4,5.12-1.4c2.88,0,5.08,1.4,5.08,1.4c2.24,1.4,3.44,4.04,3.44,4.04c1.24,2.64,1.24,6.2,1.24,6.2
		C582.97,349.41,581.73,352.01,581.73,352.01z"/>
	<polygon points="608.77,331.45 608.77,343.21 594.73,343.21 594.73,331.45 590.89,331.45 590.89,360.09 594.73,360.09 
		594.73,346.61 608.77,346.61 608.77,360.09 612.57,360.09 612.57,331.45 	"/>
	<path d="M501.57,411.45c-3.12-1.8-7-1.8-7-1.8c-3.92,0-7.08,1.84-7.08,1.84c-3.12,1.84-4.88,5.2-4.88,5.2c-1.8,3.4-1.8,7.8-1.8,7.8
		c0,4.36,1.8,7.72,1.8,7.72c1.76,3.32,4.88,5.2,4.88,5.2c3.12,1.84,7.08,1.84,7.08,1.84c3.88,0,7-1.8,7-1.8
		c3.08-1.84,4.88-5.2,4.88-5.2c1.76-3.36,1.76-7.8,1.76-7.8c0-4.48-1.76-7.8-1.76-7.8C504.65,413.29,501.57,411.45,501.57,411.45z
		 M503.05,430.69c-1.24,2.6-3.48,3.96-3.48,3.96c-2.2,1.36-5.04,1.36-5.04,1.36c-2.84,0-5.08-1.36-5.08-1.36
		c-2.2-1.36-3.44-3.96-3.44-3.96c-1.28-2.6-1.28-6.12-1.28-6.12c0-3.6,1.24-6.24,1.24-6.24c1.24-2.68,3.44-4.04,3.44-4.04
		c2.24-1.4,5.12-1.4,5.12-1.4c2.88,0,5.08,1.4,5.08,1.4c2.24,1.4,3.44,4.04,3.44,4.04c1.24,2.64,1.24,6.2,1.24,6.2
		C504.29,428.09,503.05,430.69,503.05,430.69z"/>
	<path d="M559.17,411.45c-3.12-1.8-7-1.8-7-1.8c-3.92,0-7.04,1.84-7.04,1.84c-3.16,1.84-4.92,5.2-4.92,5.2c-1.8,3.4-1.8,7.8-1.8,7.8
		c0,4.36,1.8,7.72,1.8,7.72c1.76,3.32,4.88,5.2,4.88,5.2c3.12,1.84,7.08,1.84,7.08,1.84c3.88,0,7-1.8,7-1.8
		c3.08-1.84,4.88-5.2,4.88-5.2c1.76-3.36,1.76-7.8,1.76-7.8c0-4.48-1.76-7.8-1.76-7.8C562.25,413.29,559.17,411.45,559.17,411.45z
		 M560.65,430.69c-1.24,2.6-3.48,3.96-3.48,3.96c-2.2,1.36-5.04,1.36-5.04,1.36c-2.84,0-5.08-1.36-5.08-1.36
		c-2.2-1.36-3.44-3.96-3.44-3.96c-1.28-2.6-1.28-6.12-1.28-6.12c0-3.6,1.24-6.24,1.24-6.24c1.24-2.68,3.44-4.04,3.44-4.04
		c2.24-1.4,5.12-1.4,5.12-1.4c2.88,0,5.08,1.4,5.08,1.4c2.24,1.4,3.44,4.04,3.44,4.04c1.24,2.64,1.24,6.2,1.24,6.2
		C561.89,428.09,560.65,430.69,560.65,430.69z"/>
</g>
<g>
	<path class="st0" d="M284.55,242.07c0,1.4,0.14,2.75,0.41,4.06s0.7,2.66,1.29,4.05s1.37,2.91,2.35,4.57h-1.81
		c-1.52-1.97-2.68-4.05-3.49-6.23c-0.8-2.18-1.21-4.33-1.21-6.43c0-2.14,0.4-4.3,1.2-6.45s1.96-4.23,3.49-6.22h1.81
		c-1.44,2.41-2.48,4.59-3.1,6.56C284.86,237.95,284.55,239.98,284.55,242.07z"/>
	<path class="st0" d="M292.03,248.9h11.51l-0.49,2.29h-14.74l0.51-2.4l14.33-14.63h-10.39l0.49-2.29h13.58l-0.49,2.29L292.03,248.9z
		"/>
	<path class="st0" d="M313.34,242.09c0,2.09-0.4,4.23-1.21,6.42c-0.8,2.19-1.96,4.26-3.47,6.22l-1.82,0.01
		c1.42-2.41,2.45-4.6,3.09-6.57c0.64-1.97,0.96-4.01,0.96-6.11c0-2.06-0.32-4.08-0.95-6.07c-0.63-1.99-1.67-4.18-3.1-6.57h1.81
		c1.53,1.99,2.69,4.06,3.49,6.22S313.34,239.95,313.34,242.09z"/>
</g>
</svg>
