<?xml version="1.0" encoding="utf-8"?>
<!-- Generator: Adobe Illustrator 27.6.1, SVG Export Plug-In . SVG Version: 6.00 Build 0)  -->
<svg version="1.1" id="Слой_1" xmlns="http://www.w3.org/2000/svg" xmlns:xlink="http://www.w3.org/1999/xlink" x="0px" y="0px"
	 viewBox="0 0 788.71 489.95" style="enable-background:new 0 0 788.71 489.95;" xml:space="preserve">
<style type="text/css">
	.st0{fill:#808080;}
</style>
<g>
	<rect x="520.4" y="350.21" transform="matrix(0.8662 -0.4997 0.4997 0.8662 -102.9206 318.4928)" width="45.63" height="2.4"/>
	<polygon points="656.45,353.94 623.25,373.43 574.57,345.32 574.57,290.41 574.57,288.41 574.57,287.71 573.88,287.32 
		540.77,268.21 539.57,270.29 571.03,288.44 571.02,288.46 572.17,289.11 572.17,290.41 572.17,345.32 523.45,373.43 490.69,354.49 
		489.49,356.57 522.25,375.51 522.25,425.72 488.33,445.3 489.53,447.37 522.25,428.49 522.25,430.41 522.25,432.41 522.25,433.11 
		522.95,433.51 526.26,435.41 493.53,454.33 494.73,456.41 528.66,436.8 554.85,451.89 556.05,449.81 525.8,432.38 525.81,432.37 
		524.65,431.71 524.65,430.41 524.65,375.51 573.37,347.4 620.91,374.85 620.9,374.86 622.56,375.8 622.65,375.85 622.65,375.85 
		623.26,376.2 623.86,375.85 623.86,375.85 623.93,375.81 625.58,374.85 625.57,374.85 657.66,356.01 	"/>
	<polygon points="479.17,254.13 467.97,254.13 468.29,256.53 478.89,256.53 	"/>
	<polygon points="475.17,285.33 475.49,282.93 471.69,282.93 471.97,285.33 	"/>
	<polygon points="476.73,273.33 470.45,273.33 470.77,275.73 476.41,275.73 	"/>
	<polygon points="477.97,263.73 469.21,263.73 469.53,266.13 477.65,266.13 	"/>
	<polygon points="316.21,287.03 315.1,286.37 315.09,286.38 272.73,261.92 272.73,222.25 270.33,222.25 270.33,260.54 
		266.93,258.57 266.93,258.57 266.33,258.22 265.73,258.57 265.73,258.57 262.33,260.55 262.33,222.25 259.93,222.25 259.93,261.94 
		216.13,287.38 186.32,265.72 184.91,267.67 214.64,289.27 197.38,342.37 196.25,342.37 157.89,342.37 157.89,344.77 196.25,344.77 
		198.25,344.77 199.11,344.77 200.03,342.08 200,342.07 217.05,289.62 265.22,261.65 265.22,261.65 265.42,261.53 266.34,261 
		267.45,261.65 267.45,261.64 309.81,286.1 309.81,324.57 312.21,324.57 312.21,287.49 315.56,289.42 316.2,289.8 316.81,289.45 
		316.81,289.45 316.9,289.4 318.57,288.46 318.56,288.44 320.21,287.49 320.21,324.57 322.61,324.57 322.61,286.1 350.17,270.17 
		348.97,268.09 	"/>
	<rect x="281.64" y="186.77" transform="matrix(0.8657 -0.5005 0.5005 0.8657 -55.0543 170.7334)" width="18.07" height="2.4"/>
	<polygon points="315.01,151.77 317.41,151.77 317.41,116.3 364.97,88.85 364.98,88.85 366.09,88.2 397.45,106.29 398.65,104.21 
		372.49,89.12 372.49,50.17 370.09,50.17 370.09,87.74 368.44,86.78 368.45,86.77 366.7,85.78 366.69,85.78 366.69,85.78 
		366.09,85.43 365.49,85.78 365.49,85.78 362.09,87.74 362.09,50.17 359.69,50.17 359.69,89.12 316.65,113.97 288.45,65.13 
		286.37,66.33 314.13,114.41 258.61,114.41 258.61,116.81 315.01,116.81 	"/>
	<polygon points="134.56,294.66 160.12,276.06 158.71,274.12 133.15,292.72 	"/>
	<polygon points="132.91,323.55 135.19,322.8 124.26,289.27 154.04,267.67 152.63,265.72 122.64,287.48 85.54,275.39 84.8,277.67 
		121.9,289.77 	"/>
	<rect x="174.5" y="311.77" transform="matrix(0.3088 -0.9511 0.9511 0.3088 -161.3103 403.9676)" width="45.59" height="2.4"/>
	<rect x="720.44" y="349.07" transform="matrix(0.8624 -0.5063 0.5063 0.8624 -75.0462 424.477)" width="45.59" height="2.4"/>
	<rect x="741.59" y="259.09" transform="matrix(0.4947 -0.8691 0.8691 0.4947 130.3721 788.0012)" width="2.4" height="45.61"/>
	<rect x="682.55" y="293.65" transform="matrix(1 -6.553445e-03 6.553445e-03 1 -2.0094 4.4876)" width="2.4" height="30.4"/>
	<path d="M527.57,270.33c-1.6,0.6-3.48,0.6-3.48,0.6c-3.6,0-5.64-1.76-5.64-1.76c-2.04-1.76-2.4-5.28-2.4-5.28l-3.76,0.88
		c0.68,4.6,3.76,7,3.76,7c3.08,2.4,8.2,2.4,8.2,2.4c2.96,0,5.36-1.12,5.36-1.12c2.36-1.12,3.68-3.08,3.68-3.08
		c1.32-1.96,1.32-4.36,1.32-4.36c0-2.4-1-4.04-1-4.04c-1.04-1.6-3.28-2.68-3.28-2.68c-2.28-1.12-6.12-1.96-6.12-1.96
		c-2.8-0.6-4.28-1.12-4.28-1.12c-1.48-0.56-2.2-1.4-2.2-1.4c-0.72-0.8-0.72-2.16-0.72-2.16c0-1.36,0.8-2.36,0.8-2.36
		c0.8-1,2.2-1.56,2.2-1.56c1.44-0.52,3.28-0.52,3.28-0.52c2.84,0,4.48,1.36,4.48,1.36c1.68,1.32,2.28,4.44,2.28,4.44h0.08l3.64-0.8
		c-0.32-2.6-1.68-4.44-1.68-4.44c-1.4-1.84-3.64-2.84-3.64-2.84c-2.28-0.96-5.24-0.96-5.24-0.96c-2.76,0-5.04,0.96-5.04,0.96
		c-2.24,1-3.52,2.76-3.52,2.76c-1.28,1.72-1.28,3.88-1.28,3.88c0,1.96,0.64,3.4,0.64,3.4c0.64,1.44,2.32,2.56,2.32,2.56
		c1.68,1.12,4.68,1.92,4.68,1.92c0.64,0.2,2.28,0.6,2.28,0.6c2.76,0.64,4.2,1.12,4.2,1.12c1.76,0.64,2.64,1.64,2.64,1.64
		c0.88,1,0.88,2.8,0.88,2.8c0,1.32-0.96,2.44-0.96,2.44C529.13,269.73,527.57,270.33,527.57,270.33z"/>
	<polygon points="480.89,353.53 466.53,331.21 462.61,331.21 462.61,359.85 466.21,359.85 466.21,337.49 466.29,337.49 
		480.69,359.85 484.57,359.85 484.57,331.21 480.97,331.21 480.97,353.53 	"/>
	<polygon points="417.17,344.81 417.17,344.01 417.17,289.61 472.37,289.61 472.37,324.81 474.77,324.81 474.77,289.1 
		508.09,269.85 506.89,267.78 473.25,287.21 416.36,287.21 385.61,263.97 379.61,274.33 414.77,289.2 414.77,338.16 385.84,367.13 
		387.54,368.82 414.77,341.55 414.77,344.01 414.77,346.01 414.77,347.21 415.97,347.21 417.97,347.21 420.44,347.21 393.2,374.44 
		394.9,376.14 423.83,347.21 456.21,347.21 456.21,344.81 417.97,344.81 	"/>
	<polygon points="680.97,352.85 680.89,352.85 666.49,330.53 662.61,330.53 662.61,359.13 666.17,359.13 666.17,336.77 
		666.25,336.77 680.65,359.13 684.53,359.13 684.53,330.53 680.97,330.53 	"/>
	<polygon points="644.69,335.93 647.01,335.93 647.01,330.45 652.49,330.45 652.49,328.17 647.01,328.17 647.01,322.69 
		644.69,322.69 644.69,328.17 639.21,328.17 639.21,330.45 644.69,330.45 	"/>
	<path d="M645.85,340.33c6.09,0,11.04-4.93,11.04-11c0-6.09-4.95-11.04-11.04-11.04s-11.04,4.95-11.04,11.04
		C634.81,335.4,639.77,340.33,645.85,340.33z M645.85,320.69c4.76,0,8.64,3.88,8.64,8.64c0,4.74-3.88,8.6-8.64,8.6
		s-8.64-3.86-8.64-8.6C637.21,324.57,641.09,320.69,645.85,320.69z"/>
	<path d="M480.61,447.97c-3.08-1.8-7-1.8-7-1.8c-3.92,0-7.04,1.84-7.04,1.84c-3.12,1.84-4.92,5.2-4.92,5.2
		c-1.76,3.4-1.76,7.8-1.76,7.8c0,4.32,1.76,7.68,1.76,7.68c1.8,3.36,4.92,5.24,4.92,5.24c3.12,1.84,7.04,1.84,7.04,1.84
		c3.92,0,7-1.84,7-1.84c3.12-1.8,4.88-5.16,4.88-5.16c1.8-3.36,1.8-7.8,1.8-7.8c0-4.48-1.8-7.84-1.8-7.84
		C483.73,449.81,480.61,447.97,480.61,447.97z M482.09,467.21c-1.24,2.6-3.44,3.96-3.44,3.96c-2.24,1.36-5.08,1.36-5.08,1.36
		c-2.84,0-5.04-1.36-5.04-1.36c-2.24-1.36-3.48-3.96-3.48-3.96c-1.24-2.6-1.24-6.12-1.24-6.12c0-3.64,1.24-6.28,1.24-6.28
		c1.24-2.64,3.44-4.04,3.44-4.04c2.2-1.36,5.08-1.36,5.08-1.36c2.88,0,5.12,1.4,5.12,1.4c2.2,1.4,3.44,4.04,3.44,4.04
		c1.24,2.6,1.24,6.2,1.24,6.2C483.37,464.61,482.09,467.21,482.09,467.21z"/>
	<path d="M580.41,447.97c-3.12-1.8-7.04-1.8-7.04-1.8c-3.88,0-7.04,1.84-7.04,1.84c-3.12,1.84-4.92,5.2-4.92,5.2
		c-1.76,3.4-1.76,7.8-1.76,7.8c0,4.32,1.76,7.68,1.76,7.68c1.8,3.36,4.92,5.24,4.92,5.24c3.12,1.84,7.04,1.84,7.04,1.84
		c3.92,0,7.04-1.84,7.04-1.84c3.08-1.8,4.88-5.16,4.88-5.16c1.76-3.36,1.76-7.8,1.76-7.8c0-4.48-1.76-7.84-1.76-7.84
		C583.49,449.81,580.41,447.97,580.41,447.97z M581.89,467.21c-1.28,2.6-3.48,3.96-3.48,3.96c-2.2,1.36-5.08,1.36-5.08,1.36
		c-2.84,0-5.04-1.36-5.04-1.36c-2.2-1.36-3.48-3.96-3.48-3.96c-1.24-2.6-1.24-6.12-1.24-6.12c0-3.64,1.24-6.28,1.24-6.28
		c1.24-2.64,3.44-4.04,3.44-4.04c2.2-1.36,5.08-1.36,5.08-1.36c2.92,0,5.12,1.4,5.12,1.4c2.2,1.4,3.44,4.04,3.44,4.04
		c1.24,2.6,1.24,6.2,1.24,6.2C583.13,464.61,581.89,467.21,581.89,467.21z"/>
	<rect x="593.93" y="444.21" width="14.28" height="2"/>
	<path d="M601.05,434.17c-6.06,0-11,4.95-11,11.04s4.93,11.04,11,11.04c6.09,0,11.04-4.95,11.04-11.04S607.14,434.17,601.05,434.17z
		 M601.05,453.85c-4.74,0-8.6-3.88-8.6-8.64s3.86-8.64,8.6-8.64c4.76,0,8.64,3.88,8.64,8.64S605.82,453.85,601.05,453.85z"/>
	<path d="M382.29,373.49c-3.08-1.8-7-1.8-7-1.8c-3.92,0-7.04,1.84-7.04,1.84c-3.16,1.84-4.92,5.2-4.92,5.2
		c-1.76,3.4-1.76,7.8-1.76,7.8c0,4.32,1.76,7.68,1.76,7.68c1.76,3.36,4.92,5.24,4.92,5.24c3.12,1.84,7.04,1.84,7.04,1.84
		c3.92,0,7-1.8,7-1.8c3.12-1.84,4.88-5.2,4.88-5.2c1.8-3.36,1.8-7.8,1.8-7.8c0-4.48-1.8-7.8-1.8-7.8
		C385.41,375.33,382.29,373.49,382.29,373.49z M383.77,392.73c-1.24,2.6-3.44,3.96-3.44,3.96c-2.24,1.36-5.08,1.36-5.08,1.36
		c-2.84,0-5.04-1.36-5.04-1.36c-2.24-1.36-3.48-3.96-3.48-3.96c-1.24-2.6-1.24-6.12-1.24-6.12c0-3.6,1.24-6.24,1.24-6.24
		c1.2-2.68,3.44-4.04,3.44-4.04c2.2-1.4,5.08-1.4,5.08-1.4c2.88,0,5.12,1.4,5.12,1.4c2.2,1.4,3.44,4.04,3.44,4.04
		c1.24,2.64,1.24,6.2,1.24,6.2C385.05,390.13,383.77,392.73,383.77,392.73z"/>
	<polygon points="377.09,273.45 377.09,244.81 373.49,244.81 373.49,267.13 373.41,267.13 359.05,244.81 355.13,244.81 
		355.13,273.45 358.73,273.45 358.73,251.09 358.81,251.09 373.21,273.45 	"/>
	<polygon points="376.93,240.81 376.93,212.17 373.13,212.17 373.13,223.93 359.09,223.93 359.09,212.17 355.25,212.17 
		355.25,240.81 359.09,240.81 359.09,227.33 373.13,227.33 373.13,240.81 	"/>
	<polygon points="466.57,231.17 480.61,231.17 480.61,244.65 484.41,244.65 484.41,216.01 480.61,216.01 480.61,227.77 
		466.57,227.77 466.57,216.01 462.73,216.01 462.73,244.65 466.57,244.65 	"/>
	<path d="M323.25,332.77c-3.08-1.8-7-1.8-7-1.8c-3.92,0-7.04,1.84-7.04,1.84c-3.12,1.84-4.92,5.2-4.92,5.2
		c-1.76,3.4-1.76,7.8-1.76,7.8c0,4.32,1.76,7.68,1.76,7.68c1.8,3.36,4.92,5.24,4.92,5.24c3.12,1.84,7.04,1.84,7.04,1.84
		c3.92,0,7-1.84,7-1.84c3.12-1.8,4.88-5.16,4.88-5.16c1.8-3.36,1.8-7.8,1.8-7.8c0-4.48-1.8-7.84-1.8-7.84
		C326.37,334.61,323.25,332.77,323.25,332.77z M324.73,352.01c-1.24,2.6-3.44,3.96-3.44,3.96c-2.24,1.36-5.08,1.36-5.08,1.36
		c-2.84,0-5.04-1.36-5.04-1.36c-2.24-1.36-3.48-3.96-3.48-3.96c-1.24-2.6-1.24-6.12-1.24-6.12c0-3.64,1.24-6.28,1.24-6.28
		c1.2-2.64,3.44-4.04,3.44-4.04c2.2-1.36,5.08-1.36,5.08-1.36c2.88,0,5.12,1.4,5.12,1.4c2.2,1.4,3.44,4.04,3.44,4.04
		c1.24,2.6,1.24,6.2,1.24,6.2C326.01,349.41,324.73,352.01,324.73,352.01z"/>
	<polygon points="258.97,193.49 259.05,193.49 273.41,215.85 277.33,215.85 277.33,187.21 273.73,187.21 273.73,209.53 
		273.65,209.53 259.25,187.21 255.37,187.21 255.37,215.85 258.97,215.85 	"/>
	<path d="M323.25,159.97c-3.08-1.8-7-1.8-7-1.8c-3.92,0-7.04,1.84-7.04,1.84c-3.12,1.84-4.92,5.2-4.92,5.2
		c-1.76,3.4-1.76,7.8-1.76,7.8c0,4.32,1.76,7.68,1.76,7.68c1.8,3.36,4.92,5.24,4.92,5.24c3.12,1.84,7.04,1.84,7.04,1.84
		c3.92,0,7-1.84,7-1.84c3.12-1.8,4.88-5.16,4.88-5.16c1.8-3.36,1.8-7.8,1.8-7.8c0-4.48-1.8-7.84-1.8-7.84
		C326.37,161.81,323.25,159.97,323.25,159.97z M324.73,179.21c-1.24,2.6-3.44,3.96-3.44,3.96c-2.24,1.36-5.08,1.36-5.08,1.36
		c-2.84,0-5.04-1.36-5.04-1.36c-2.24-1.36-3.48-3.96-3.48-3.96c-1.24-2.6-1.24-6.12-1.24-6.12c0-3.64,1.24-6.28,1.24-6.28
		c1.2-2.64,3.44-4.04,3.44-4.04c2.2-1.36,5.08-1.36,5.08-1.36c2.88,0,5.12,1.4,5.12,1.4c2.2,1.4,3.44,4.04,3.44,4.04
		c1.24,2.6,1.24,6.2,1.24,6.2C326.01,176.61,324.73,179.21,324.73,179.21z"/>
	<polygon points="162.09,246.41 162.17,246.41 176.57,268.77 180.45,268.77 180.45,240.13 176.85,240.13 176.85,262.49 
		176.77,262.49 162.41,240.13 158.49,240.13 158.49,268.77 162.09,268.77 	"/>
	<path d="M147.53,342.85c-2.28-1.08-6.12-1.92-6.12-1.92c-2.8-0.64-4.28-1.16-4.28-1.16c-1.48-0.56-2.2-1.36-2.2-1.36
		c-0.72-0.84-0.72-2.2-0.72-2.2c0-1.32,0.8-2.32,0.8-2.32c0.8-1.04,2.2-1.56,2.2-1.56c1.44-0.56,3.28-0.56,3.28-0.56
		c2.84,0,4.48,1.36,4.48,1.36c1.68,1.32,2.28,4.48,2.28,4.48h0.08l3.64-0.84c-0.32-2.56-1.68-4.44-1.68-4.44
		c-1.4-1.84-3.64-2.84-3.64-2.84c-2.28-0.96-5.24-0.96-5.24-0.96c-2.76,0-5.04,1-5.04,1c-2.24,0.96-3.52,2.72-3.52,2.72
		c-1.28,1.72-1.28,3.88-1.28,3.88c0,1.96,0.64,3.4,0.64,3.4c0.64,1.44,2.32,2.56,2.32,2.56c1.68,1.16,4.68,1.96,4.68,1.96
		c0.64,0.2,2.28,0.56,2.28,0.56c2.76,0.64,4.2,1.16,4.2,1.16c1.76,0.6,2.64,1.6,2.64,1.6c0.88,1,0.88,2.8,0.88,2.8
		c0,1.36-0.96,2.44-0.96,2.44c-0.92,1.08-2.48,1.68-2.48,1.68c-1.6,0.6-3.48,0.6-3.48,0.6c-3.6,0-5.64-1.76-5.64-1.76
		c-2.04-1.76-2.4-5.28-2.4-5.28l-3.76,0.88c0.68,4.6,3.76,7,3.76,7c3.08,2.4,8.2,2.4,8.2,2.4c2.96,0,5.36-1.12,5.36-1.12
		c2.36-1.12,3.68-3.08,3.68-3.08c1.32-1.96,1.32-4.36,1.32-4.36c0-2.4-1-4-1-4C149.77,343.93,147.53,342.85,147.53,342.85z"/>
	<polygon points="75.45,278.53 75.41,278.53 61.01,256.21 57.13,256.21 57.13,284.81 60.69,284.81 60.69,262.45 60.77,262.45 
		75.17,284.81 79.05,284.81 79.05,256.21 75.45,256.21 	"/>
	<polygon points="32.01,267.97 17.97,267.97 17.97,256.21 14.17,256.21 14.17,284.81 17.97,284.81 17.97,271.37 32.01,271.37 
		32.01,284.81 35.85,284.81 35.85,256.21 32.01,256.21 	"/>
	<path d="M44.37,287.37c0.68-0.64,1.76-1.56,1.76-1.56l1.84-1.52c2.52-2.12,3.8-3.92,3.8-3.92c1.28-1.84,1.28-3.72,1.28-3.72
		c0-1.56-0.76-2.8-0.76-2.8c-0.76-1.24-2.16-1.96-2.16-1.96c-1.44-0.76-3.32-0.76-3.32-0.76c-1.84,0-3.24,0.68-3.24,0.68
		c-1.44,0.68-2.28,1.96-2.28,1.96c-0.84,1.28-1,3.04-1,3.04l2.56,0.4c0.12-2,1.12-3,1.12-3c1.04-1.04,2.8-1.04,2.8-1.04
		c1.08,0,1.92,0.44,1.92,0.44c0.88,0.44,1.36,1.2,1.36,1.2c0.48,0.8,0.48,1.76,0.48,1.76c0,1.36-1.04,2.88-1.04,2.88
		c-1.08,1.48-3.36,3.36-3.36,3.36l-1.6,1.36c-2.4,1.96-3.52,3.64-3.52,3.64c-1.16,1.64-1.16,3.4-1.16,3.4h13.28v-2.4h-9.88
		C43.69,288.05,44.37,287.37,44.37,287.37z"/>
	<path d="M408.97,128.33c3.12,1.84,7.04,1.84,7.04,1.84c3.92,0,7-1.84,7-1.84c3.12-1.8,4.88-5.16,4.88-5.16
		c1.8-3.36,1.8-7.8,1.8-7.8c0-4.48-1.8-7.84-1.8-7.84c-1.76-3.32-4.88-5.16-4.88-5.16c-3.08-1.8-7-1.8-7-1.8
		c-3.92,0-7.04,1.84-7.04,1.84c-3.12,1.84-4.92,5.2-4.92,5.2c-1.76,3.4-1.76,7.8-1.76,7.8c0,4.32,1.76,7.68,1.76,7.68
		C405.85,126.45,408.97,128.33,408.97,128.33z M407.45,109.21c1.2-2.64,3.44-4.04,3.44-4.04c2.2-1.36,5.08-1.36,5.08-1.36
		c2.88,0,5.12,1.4,5.12,1.4c2.2,1.4,3.44,4.04,3.44,4.04c1.24,2.6,1.24,6.2,1.24,6.2c0,3.56-1.28,6.16-1.28,6.16
		c-1.24,2.6-3.44,3.96-3.44,3.96c-2.24,1.36-5.08,1.36-5.08,1.36c-2.84,0-5.04-1.36-5.04-1.36c-2.24-1.36-3.48-3.96-3.48-3.96
		c-1.24-2.6-1.24-6.12-1.24-6.12C406.21,111.85,407.45,109.21,407.45,109.21z"/>
	<polygon points="437.49,116.21 451.57,116.21 451.57,129.69 455.37,129.69 455.37,101.05 451.57,101.05 451.57,112.81 
		437.49,112.81 437.49,101.05 433.69,101.05 433.69,129.69 437.49,129.69 	"/>
	<path d="M359.09,41.93c3.12,1.84,7.04,1.84,7.04,1.84c3.92,0,7-1.84,7-1.84c3.12-1.8,4.88-5.16,4.88-5.16c1.8-3.36,1.8-7.8,1.8-7.8
		c0-4.48-1.8-7.84-1.8-7.84c-1.76-3.32-4.88-5.16-4.88-5.16c-3.08-1.8-7-1.8-7-1.8c-3.92,0-7.04,1.84-7.04,1.84
		c-3.12,1.84-4.92,5.2-4.92,5.2c-1.76,3.4-1.76,7.8-1.76,7.8c0,4.32,1.76,7.68,1.76,7.68C355.97,40.05,359.09,41.93,359.09,41.93z
		 M357.57,22.81c1.2-2.64,3.44-4.04,3.44-4.04c2.2-1.36,5.08-1.36,5.08-1.36c2.88,0,5.12,1.4,5.12,1.4c2.2,1.4,3.44,4.04,3.44,4.04
		c1.24,2.6,1.24,6.2,1.24,6.2c0,3.56-1.28,6.16-1.28,6.16c-1.24,2.6-3.44,3.96-3.44,3.96c-2.24,1.36-5.08,1.36-5.08,1.36
		c-2.84,0-5.04-1.36-5.04-1.36c-2.24-1.36-3.48-3.96-3.48-3.96c-1.24-2.6-1.24-6.12-1.24-6.12
		C356.33,25.45,357.57,22.81,357.57,22.81z"/>
	<polygon points="774.52,342.69 774.17,287.08 774.17,286.39 773.16,285.82 725.25,258.57 725.25,258.57 724.64,258.23 
		723.49,257.57 723.49,257.57 722.88,257.23 722.29,257.58 722.28,257.58 722.2,257.63 720.57,258.57 720.57,258.58 674.33,285.69 
		674.31,285.67 672.68,286.65 672.61,286.7 672.61,286.7 672.01,287.06 672.01,289.73 672.03,289.73 672.25,324.14 674.65,324.12 
		674.42,288.42 722.9,260 770.62,287.13 770.62,287.14 771.77,287.79 771.77,289.09 771.79,289.09 772.13,344 771.01,344.65 
		771.01,344.66 724.77,371.77 724.75,371.74 723.64,372.42 690.69,353.69 689.5,355.78 721.3,373.86 721.3,373.86 722.14,374.34 
		723.06,374.86 723.06,374.86 723.67,375.21 724.26,374.85 724.26,374.85 773.82,345.8 774.53,345.39 774.53,342.69 	"/>
</g>
<g>
	<path class="st0" d="M284.7,242.08c0,1.4,0.14,2.75,0.41,4.06s0.7,2.66,1.29,4.05s1.37,2.91,2.35,4.57h-1.81
		c-1.52-1.97-2.68-4.05-3.49-6.23c-0.8-2.18-1.21-4.33-1.21-6.43c0-2.14,0.4-4.3,1.2-6.45s1.96-4.23,3.49-6.22h1.81
		c-1.44,2.41-2.48,4.59-3.1,6.56C285.02,237.96,284.7,239.98,284.7,242.08z"/>
	<path class="st0" d="M292.19,248.91h11.51l-0.49,2.29h-14.74l0.51-2.4l14.33-14.63h-10.39l0.49-2.29H307l-0.49,2.29L292.19,248.91z
		"/>
	<path class="st0" d="M313.5,242.1c0,2.09-0.4,4.23-1.21,6.42c-0.8,2.19-1.96,4.26-3.47,6.22l-1.82,0.01
		c1.42-2.41,2.45-4.6,3.09-6.57c0.64-1.97,0.96-4.01,0.96-6.11c0-2.06-0.32-4.08-0.95-6.07c-0.63-1.99-1.67-4.18-3.1-6.57h1.81
		c1.53,1.99,2.69,4.06,3.49,6.22S313.5,239.96,313.5,242.1z"/>
</g>
</svg>
