<?xml version="1.0" encoding="utf-8"?>
<!-- Generator: Adobe Illustrator 27.0.0, SVG Export Plug-In . SVG Version: 6.00 Build 0)  -->
<svg version="1.1" id="Слой_1" xmlns="http://www.w3.org/2000/svg" xmlns:xlink="http://www.w3.org/1999/xlink" x="0px" y="0px"
	 viewBox="0 0 558.65 324.52" style="enable-background:new 0 0 558.65 324.52;" xml:space="preserve">
<style type="text/css">
	.st0{fill:none;}
</style>
<path class="st0" d="z"/>
<g>
	<rect x="213.12" y="121.26" width="2.4" height="45.63"/>
	<rect x="250.78" y="177.09" transform="matrix(0.8662 -0.4998 0.4998 0.8662 -52.4861 160.5959)" width="45.63" height="2.4"/>
	<rect x="272.39" y="87.03" transform="matrix(0.5 -0.866 0.866 0.5 41.6671 291.8653)" width="2.4" height="45.63"/>
	<polygon points="360.88,216.12 364.76,216.12 364.76,187.48 361.13,187.48 361.13,209.96 346.09,187.48 342.2,187.48 342.2,216.12 
		345.84,216.12 345.84,193.62 	"/>
	<rect x="391.92" y="121.26" width="2.4" height="45.63"/>
	<path d="M346.44,41.85c2.12,1.3,4.53,1.95,7.23,1.95c2.49,0,4.8-0.59,6.95-1.77c2.15-1.18,3.81-2.91,4.98-5.21
		c1.17-2.29,1.76-4.89,1.76-7.79c0-2.87-0.55-5.43-1.67-7.69s-2.73-4.02-4.86-5.28c-2.12-1.26-4.5-1.89-7.15-1.89
		c-4.04,0-7.33,1.34-9.88,4.03c-2.55,2.69-3.83,6.41-3.83,11.16c0,2.51,0.55,4.9,1.64,7.15S344.32,40.55,346.44,41.85z M346.79,20.2
		c1.93-1.84,4.24-2.76,6.92-2.76c1.89,0,3.59,0.48,5.11,1.44c1.52,0.96,2.67,2.3,3.46,4.04c0.79,1.74,1.18,3.77,1.18,6.1
		c0,3.69-0.92,6.53-2.76,8.54c-1.84,2.01-4.19,3.01-7.04,3.01c-2.8,0-5.13-0.99-6.98-2.98s-2.79-4.7-2.79-8.15
		C343.88,25.12,344.85,22.04,346.79,20.2z"/>
	<path d="M510.49,102.47c-2.12-1.26-4.51-1.89-7.15-1.89c-4.04,0-7.33,1.34-9.88,4.03c-2.55,2.69-3.83,6.41-3.83,11.16
		c0,2.51,0.55,4.9,1.64,7.15c1.09,2.25,2.7,4.03,4.82,5.33c2.12,1.3,4.53,1.95,7.23,1.95c2.48,0,4.8-0.59,6.95-1.77
		c2.15-1.18,3.81-2.91,4.98-5.21c1.17-2.29,1.76-4.89,1.76-7.79c0-2.87-0.56-5.43-1.67-7.69S512.61,103.73,510.49,102.47z
		 M510.34,123.95c-1.84,2.01-4.19,3.01-7.04,3.01c-2.8,0-5.13-0.99-6.98-2.98c-1.86-1.99-2.78-4.7-2.78-8.15
		c0-4.31,0.96-7.39,2.9-9.23c1.93-1.84,4.24-2.76,6.93-2.76c1.89,0,3.59,0.48,5.11,1.44c1.52,0.96,2.67,2.3,3.46,4.04
		c0.79,1.74,1.18,3.77,1.18,6.1C513.11,119.1,512.18,121.95,510.34,123.95z"/>
	<polygon points="540.68,101.08 540.68,112.84 525.8,112.84 525.8,101.08 522.01,101.08 522.01,129.71 525.8,129.71 525.8,116.22 
		540.68,116.22 540.68,129.71 544.47,129.71 544.47,101.08 	"/>
	<path d="M446.21,41.85c2.13,1.3,4.53,1.95,7.23,1.95c2.49,0,4.8-0.59,6.95-1.77c2.15-1.18,3.81-2.91,4.98-5.21
		c1.17-2.29,1.76-4.89,1.76-7.79c0-2.87-0.55-5.43-1.67-7.69s-2.73-4.02-4.86-5.28c-2.12-1.26-4.5-1.89-7.15-1.89
		c-4.04,0-7.33,1.34-9.88,4.03c-2.55,2.69-3.83,6.41-3.83,11.16c0,2.51,0.55,4.9,1.64,7.15S444.09,40.55,446.21,41.85z M446.55,20.2
		c1.93-1.84,4.24-2.76,6.92-2.76c1.89,0,3.59,0.48,5.11,1.44c1.52,0.96,2.67,2.3,3.46,4.04c0.79,1.74,1.18,3.77,1.18,6.1
		c0,3.69-0.92,6.53-2.76,8.54c-1.84,2.01-4.19,3.01-7.04,3.01c-2.8,0-5.12-0.99-6.98-2.98c-1.86-1.99-2.79-4.7-2.79-8.15
		C443.65,25.12,444.62,22.04,446.55,20.2z"/>
	<path d="M459.75,49.58h-2.4v37.8l-3.98-2.3l-3.98,2.3v-37.8h-2.4v39.19l-43.5,25.11l-43.5-25.11V49.58h-2.4v37.8l-3.98-2.3
		l-3.98,2.3v-37.8h-2.4v39.19l-43.5,25.11l-49.88-28.8l-49.88,28.8L166.92,92.5l-1.2,2.08l37.03,21.38v56.22l-29.18,16.85l1.2,2.08
		l29.18-16.85l49.88,28.8l49.88-28.8l28.97,16.73l1.2-2.08l-28.97-16.73v-56.22l48.68-28.11l48.68,28.11v56.22l-29.19,16.85
		l1.2,2.08l30.39-17.54v-57.6l48.68-28.11l31.25,18.04l1.2-2.08l-26.06-15.05V49.58z M253.83,200.28l-48.68-28.11v-56.22
		l48.68-28.11l48.68,28.11v56.22L253.83,200.28z"/>
	<path d="M354.8,222.38h-2.4v36.57l-29.68,51.4h61.76l-29.68-51.4V222.38z M380.32,307.95h-53.44l26.72-46.28L380.32,307.95z"/>
	<polygon points="148.92,87.91 162.36,87.91 162.36,84.53 148.92,84.53 148.92,75.66 164.45,75.66 164.45,72.28 145.13,72.28 
		145.13,100.91 148.92,100.91 	"/>
	<polygon points="161.6,209.96 146.56,187.48 142.67,187.48 142.67,216.12 146.3,216.12 146.3,193.62 161.34,216.12 165.23,216.12 
		165.23,187.48 161.6,187.48 	"/>
	<polygon points="32.85,256.84 17.96,256.84 17.96,245.08 14.17,245.08 14.17,273.71 17.96,273.71 17.96,260.22 32.85,260.22 
		32.85,273.71 36.63,273.71 36.63,245.08 32.85,245.08 	"/>
	<polygon points="61.83,267.56 46.79,245.08 42.9,245.08 42.9,273.71 46.54,273.71 46.54,251.21 61.58,273.71 65.46,273.71 
		65.46,245.08 61.83,245.08 	"/>
	<polygon points="55.5,202.36 104.18,174.26 133.16,190.98 134.36,188.9 104.18,171.48 53.1,200.98 53.1,238.58 55.5,238.58 	"/>
	<polygon points="152.87,258.58 104.18,286.68 74.94,269.8 73.74,271.88 104.18,289.46 155.27,259.96 155.27,222.38 152.87,222.38 	
		"/>
</g>
<path class="st0" d="z"/>
</svg>
