<?xml version="1.0" encoding="utf-8"?>
<!-- Generator: Adobe Illustrator 27.6.1, SVG Export Plug-In . SVG Version: 6.00 Build 0)  -->
<svg version="1.1" id="Слой_1" xmlns="http://www.w3.org/2000/svg" xmlns:xlink="http://www.w3.org/1999/xlink" x="0px" y="0px"
	 viewBox="0 0 636.41 360.72" style="enable-background:new 0 0 636.41 360.72;" xml:space="preserve">
<g>
	<path d="M522.07,186.7l-1.31-0.76l-30.44-17.57l-1.2,2.08l31.56,18.22v56.22L472,273l-48.68-28.11v-56.21l31.56-18.22l-1.2-2.08
		l-31.12,17.96l-27.21-47.12h0.01l-0.65-1.12l0.65-1.12h-0.01l28.14-48.76c0,0.01-0.01,0.02,0,0c0,0.01,0.01,0.02,0,0
		c0.01-0.03,0-0.02,0,0c0-0.02,0-0.01,0,0l-29.14-50.48l-2.08,1.2l27.8,48.16l0,0l0.65,1.12l-0.65,1.12l0,0l-27.8,48.16l-0.35,0.6
		l0.35,0.6l28.64,49.6v56.49l-33.72,14.03l6,10.4l29-22.21l48.51,28.01l-4.7,35.52h12l-4.71-35.52l47.47-27.41l1.28-0.75l0.43-0.25
		l0.6-0.35v-58.98l-0.59-0.34L522.07,186.7z"/>
	<polygon points="541.92,172.02 545.96,179.02 548.16,178.06 543.84,170.54 	"/>
	<polygon points="534.16,177.82 537.04,182.78 539.28,181.86 536.12,176.38 	"/>
	<polygon points="549.64,166.18 554.84,175.22 557.08,174.26 551.56,164.74 	"/>
	<polygon points="526.44,183.66 528.12,186.58 530.36,185.62 528.4,182.18 	"/>
	<rect x="603.83" y="159.26" transform="matrix(0.501 -0.8654 0.8654 0.501 147.5026 612.6436)" width="2.4" height="38.3"/>
	<polygon points="541.29,260.92 543.21,262.4 547.57,254.8 545.37,253.88 	"/>
	<polygon points="548.97,266.8 550.89,268.28 556.53,258.52 554.29,257.6 	"/>
	<polygon points="525.89,249.16 527.81,250.64 529.69,247.36 527.49,246.44 	"/>
	<polygon points="533.61,255.04 535.53,256.52 538.65,251.08 536.41,250.16 	"/>
	<polygon points="411.52,185.94 411.52,190.02 413.92,189.74 413.92,186.22 	"/>
	<polygon points="385.12,182.82 382.72,182.54 382.72,193.42 385.12,193.14 	"/>
	<polygon points="401.92,184.82 401.92,191.14 404.32,190.86 404.32,185.1 	"/>
	<polygon points="392.32,183.66 392.32,192.3 394.72,192.02 394.72,183.94 	"/>
	<polygon points="385.56,136.36 383.16,136.08 383.16,140.16 385.56,139.84 	"/>
	<polygon points="375.96,135.24 373.56,134.96 373.56,141.28 375.96,141 	"/>
	<polygon points="356.76,132.96 354.36,132.64 354.36,143.56 356.76,143.28 	"/>
	<polygon points="366.36,134.08 363.96,133.8 363.96,142.44 366.36,142.16 	"/>
	<polygon points="311.15,93.69 330.8,59.62 328.72,58.42 309.75,91.32 305.08,83.41 321.8,54.42 319.72,53.22 302.8,82.56 
		249.9,86.97 216.45,40.91 215.94,40.21 213.2,41.07 213.21,41.09 162.23,57.65 162.23,57.64 159.49,58.55 159.49,59.42 
		159.49,61.42 159.49,115.02 159.49,117.02 159.49,117.9 160.35,118.17 198.03,130.4 198.77,128.12 162.95,116.5 162.96,116.48 
		161.88,116.14 161.88,115.02 161.88,61.42 161.88,60.29 215.02,43.03 215.67,43.92 247.84,88.21 228.99,114.1 230.93,115.51 
		249.9,89.45 308.77,94.36 322.93,118.34 325,117.12 	"/>
	<rect x="226.39" y="153.86" transform="matrix(0.9511 -0.309 0.309 0.9511 -42.0638 78.7471)" width="2.4" height="36.63"/>
	<polygon points="146.6,52.26 148.64,53.5 151.36,49.78 149.52,48.22 	"/>
	<polygon points="154.84,57.26 156.88,58.5 158.64,56.1 156.84,54.5 	"/>
	<polygon points="138.36,47.26 140.4,48.54 144.08,43.5 142.24,41.94 	"/>
	<polygon points="130.12,42.3 132.2,43.54 136.76,37.22 134.96,35.66 	"/>
	<polygon points="121.88,37.3 123.96,38.54 129.48,30.94 127.64,29.38 	"/>
	<polygon points="120.36,23.1 113.64,32.3 115.72,33.54 122.2,24.66 	"/>
	<polygon points="114.57,26.64 113.59,24.45 61.58,47.61 15.58,14.17 14.17,16.11 59.14,48.79 59.13,48.8 61.29,50.36 63.76,49.29 
		63.75,49.27 	"/>
	<path d="M460.08,166.66c1.76,3.36,4.88,5.24,4.88,5.24c3.16,1.84,7.08,1.84,7.08,1.84c3.88,0,7-1.84,7-1.84
		c3.12-1.8,4.88-5.16,4.88-5.16c1.8-3.36,1.8-7.8,1.8-7.8c0-4.48-1.8-7.84-1.8-7.84c-1.76-3.32-4.88-5.16-4.88-5.16
		c-3.12-1.8-7-1.8-7-1.8c-3.92,0-7.04,1.84-7.04,1.84c-3.16,1.84-4.92,5.2-4.92,5.2c-1.8,3.4-1.8,7.8-1.8,7.8
		C458.28,163.3,460.08,166.66,460.08,166.66z M463.44,152.78c1.24-2.64,3.48-4,3.48-4c2.2-1.4,5.08-1.4,5.08-1.4
		c2.88,0,5.08,1.4,5.08,1.4c2.24,1.4,3.48,4.04,3.48,4.04c1.2,2.6,1.2,6.2,1.2,6.2c0,3.56-1.24,6.16-1.24,6.16
		c-1.24,2.6-3.48,3.96-3.48,3.96c-2.2,1.36-5.04,1.36-5.04,1.36c-2.84,0-5.04-1.36-5.04-1.36c-2.24-1.36-3.48-3.96-3.48-3.96
		c-1.24-2.6-1.24-6.12-1.24-6.12C462.24,155.42,463.44,152.78,463.44,152.78z"/>
	<path d="M575.84,169.9c-1.56,0.6-3.44,0.6-3.44,0.6c-3.6,0-5.64-1.76-5.64-1.76c-2.04-1.76-2.44-5.28-2.44-5.28l-3.72,0.88
		c0.68,4.6,3.76,7,3.76,7c3.08,2.4,8.2,2.4,8.2,2.4c2.96,0,5.32-1.12,5.32-1.12c2.36-1.12,3.72-3.08,3.72-3.08
		c1.32-1.96,1.32-4.36,1.32-4.36c0-2.4-1-4.04-1-4.04c-1.04-1.6-3.28-2.68-3.28-2.68c-2.28-1.12-6.12-1.96-6.12-1.96
		c-2.8-0.6-4.28-1.12-4.28-1.12c-1.52-0.56-2.24-1.4-2.24-1.4c-0.72-0.8-0.72-2.16-0.72-2.16c0-1.36,0.8-2.36,0.8-2.36
		c0.8-1,2.24-1.52,2.24-1.52c1.44-0.56,3.28-0.56,3.28-0.56c2.84,0,4.48,1.36,4.48,1.36c1.64,1.32,2.28,4.44,2.28,4.44h0.08
		l3.64-0.8c-0.32-2.6-1.72-4.44-1.72-4.44c-1.36-1.84-3.64-2.84-3.64-2.84c-2.24-0.96-5.2-0.96-5.2-0.96c-2.8,0-5.04,0.96-5.04,0.96
		c-2.28,1-3.56,2.76-3.56,2.76c-1.28,1.72-1.28,3.88-1.28,3.88c0,1.96,0.68,3.4,0.68,3.4c0.64,1.44,2.32,2.56,2.32,2.56
		c1.68,1.12,4.64,1.92,4.64,1.92c0.68,0.2,2.32,0.6,2.32,0.6c2.76,0.64,4.2,1.12,4.2,1.12c1.72,0.64,2.6,1.64,2.6,1.64
		c0.88,1,0.88,2.8,0.88,2.8c0,1.32-0.92,2.44-0.92,2.44C577.44,169.3,575.84,169.9,575.84,169.9z"/>
	<path d="M578.8,261.14c-3.08-1.8-7-1.8-7-1.8c-3.92,0-7.04,1.84-7.04,1.84c-3.16,1.84-4.92,5.2-4.92,5.2
		c-1.76,3.4-1.76,7.8-1.76,7.8c0,4.32,1.76,7.68,1.76,7.68c1.76,3.36,4.92,5.24,4.92,5.24c3.12,1.84,7.04,1.84,7.04,1.84
		c3.92,0,7-1.84,7-1.84c3.12-1.8,4.88-5.16,4.88-5.16c1.8-3.36,1.8-7.8,1.8-7.8c0-4.48-1.8-7.84-1.8-7.84
		C581.92,262.98,578.8,261.14,578.8,261.14z M580.28,280.38c-1.24,2.6-3.44,3.96-3.44,3.96c-2.24,1.36-5.08,1.36-5.08,1.36
		c-2.84,0-5.04-1.36-5.04-1.36c-2.24-1.36-3.48-3.96-3.48-3.96c-1.24-2.6-1.24-6.12-1.24-6.12c0-3.64,1.24-6.28,1.24-6.28
		c1.2-2.64,3.44-4,3.44-4c2.2-1.4,5.08-1.4,5.08-1.4c2.88,0,5.12,1.4,5.12,1.4c2.2,1.4,3.44,4.04,3.44,4.04
		c1.24,2.6,1.24,6.2,1.24,6.2C581.56,277.78,580.28,280.38,580.28,280.38z"/>
	<polygon points="607.32,271.58 593.28,271.58 593.28,259.82 589.48,259.82 589.48,288.46 593.28,288.46 593.28,274.98 
		607.32,274.98 607.32,288.46 611.16,288.46 611.16,259.82 607.32,259.82 	"/>
	<path d="M479.04,318.74c-3.12-1.8-7-1.8-7-1.8c-3.92,0-7.04,1.84-7.04,1.84c-3.16,1.84-4.92,5.2-4.92,5.2c-1.8,3.4-1.8,7.8-1.8,7.8
		c0,4.32,1.8,7.68,1.8,7.68c1.76,3.36,4.88,5.24,4.88,5.24c3.16,1.84,7.08,1.84,7.08,1.84c3.88,0,7-1.84,7-1.84
		c3.12-1.8,4.88-5.16,4.88-5.16c1.8-3.36,1.8-7.8,1.8-7.8c0-4.48-1.8-7.84-1.8-7.84C482.16,320.58,479.04,318.74,479.04,318.74z
		 M480.52,337.98c-1.24,2.6-3.48,3.96-3.48,3.96c-2.2,1.36-5.04,1.36-5.04,1.36c-2.84,0-5.04-1.36-5.04-1.36
		c-2.24-1.36-3.48-3.96-3.48-3.96c-1.24-2.6-1.24-6.12-1.24-6.12c0-3.64,1.2-6.28,1.2-6.28c1.24-2.64,3.48-4,3.48-4
		c2.2-1.4,5.08-1.4,5.08-1.4c2.88,0,5.08,1.4,5.08,1.4c2.24,1.4,3.48,4.04,3.48,4.04c1.2,2.6,1.2,6.2,1.2,6.2
		C481.76,335.38,480.52,337.98,480.52,337.98z"/>
	<polygon points="507.56,329.18 493.52,329.18 493.52,317.42 489.72,317.42 489.72,346.06 493.52,346.06 493.52,332.58 
		507.56,332.58 507.56,346.06 511.4,346.06 511.4,317.42 507.56,317.42 	"/>
	<path d="M379.28,261.14c-3.12-1.8-7-1.8-7-1.8c-3.92,0-7.04,1.84-7.04,1.84c-3.16,1.84-4.92,5.2-4.92,5.2c-1.8,3.4-1.8,7.8-1.8,7.8
		c0,4.32,1.8,7.68,1.8,7.68c1.76,3.36,4.88,5.24,4.88,5.24c3.12,1.84,7.08,1.84,7.08,1.84c3.88,0,7-1.84,7-1.84
		c3.12-1.8,4.88-5.16,4.88-5.16c1.76-3.36,1.76-7.8,1.76-7.8c0-4.48-1.76-7.84-1.76-7.84C382.4,262.98,379.28,261.14,379.28,261.14z
		 M380.76,280.38c-1.24,2.6-3.48,3.96-3.48,3.96c-2.2,1.36-5.04,1.36-5.04,1.36c-2.84,0-5.08-1.36-5.08-1.36
		c-2.2-1.36-3.44-3.96-3.44-3.96c-1.28-2.6-1.28-6.12-1.28-6.12c0-3.64,1.24-6.28,1.24-6.28c1.24-2.64,3.44-4,3.44-4
		c2.24-1.4,5.12-1.4,5.12-1.4c2.88,0,5.08,1.4,5.08,1.4c2.24,1.4,3.44,4.04,3.44,4.04c1.24,2.6,1.24,6.2,1.24,6.2
		C382,277.78,380.76,280.38,380.76,280.38z"/>
	<polygon points="350.72,271.58 336.68,271.58 336.68,259.82 332.84,259.82 332.84,288.46 336.68,288.46 336.68,274.98 
		350.72,274.98 350.72,288.46 354.52,288.46 354.52,259.82 350.72,259.82 	"/>
	<polygon points="371.56,201.82 375.36,201.82 375.36,173.18 371.56,173.18 371.56,184.94 357.48,184.94 357.48,173.18 
		353.68,173.18 353.68,201.82 357.48,201.82 357.48,188.34 371.56,188.34 	"/>
	<polygon points="346.68,151.94 346.68,123.3 343.08,123.3 343.08,145.62 343.04,145.62 328.64,123.3 324.76,123.3 324.76,151.94 
		328.32,151.94 328.32,129.58 328.4,129.58 342.8,151.94 	"/>
	<polygon points="316.92,135.06 302.88,135.06 302.88,123.3 299.08,123.3 299.08,151.94 302.88,151.94 302.88,138.46 316.92,138.46 
		316.92,151.94 320.76,151.94 320.76,123.3 316.92,123.3 	"/>
	<path d="M328.68,51.02c3.16,1.88,7.08,1.88,7.08,1.88c3.88,0,7-1.84,7-1.84c3.12-1.84,4.88-5.2,4.88-5.2
		c1.76-3.32,1.76-7.76,1.76-7.76c0-4.48-1.76-7.84-1.76-7.84c-1.76-3.36-4.88-5.16-4.88-5.16c-3.12-1.8-7-1.8-7-1.8
		c-3.92,0-7.04,1.8-7.04,1.8c-3.16,1.84-4.92,5.24-4.92,5.24c-1.8,3.36-1.8,7.8-1.8,7.8c0,4.32,1.8,7.68,1.8,7.68
		C325.56,49.18,328.68,51.02,328.68,51.02z M327.16,31.94c1.24-2.64,3.44-4.04,3.44-4.04c2.24-1.36,5.12-1.36,5.12-1.36
		c2.88,0,5.08,1.4,5.08,1.4c2.24,1.4,3.48,4.04,3.48,4.04c1.2,2.6,1.2,6.2,1.2,6.2c0,3.52-1.24,6.12-1.24,6.12
		c-1.24,2.6-3.48,4-3.48,4c-2.2,1.36-5.04,1.36-5.04,1.36c-2.84,0-5.08-1.36-5.08-1.36c-2.2-1.4-3.44-3.96-3.44-3.96
		c-1.24-2.6-1.24-6.12-1.24-6.12C325.96,34.58,327.16,31.94,327.16,31.94z"/>
	<polygon points="226.44,148.66 226.44,120.02 222.84,120.02 222.84,142.34 222.76,142.34 208.4,120.02 204.48,120.02 
		204.48,148.66 208.08,148.66 208.08,126.26 208.16,126.26 222.56,148.66 	"/>
	<rect x="493.63" y="73.66" width="3.52" height="28.64"/>
	<path d="M470.91,100.98c2.96,1.8,7.12,1.8,7.12,1.8c3.04,0,5.52-1.16,5.52-1.16c2.48-1.12,4.16-3.28,4.16-3.28
		c1.68-2.16,2.32-5.12,2.32-5.12l-3.68-0.88c-0.84,3.52-3,5.36-3,5.36c-2.16,1.84-5.48,1.84-5.48,1.84c-2.92,0-4.96-1.44-4.96-1.44
		c-2.08-1.4-3.16-4.08-3.16-4.08c-1.08-2.64-1.08-6.28-1.08-6.28c0-3.32,1.08-5.88,1.08-5.88c1.08-2.56,3.16-4,3.16-4
		c2.08-1.44,5.08-1.44,5.08-1.44c3.04,0,5,1.48,5,1.48c1.96,1.48,2.84,4.52,2.84,4.52l3.72-0.88c-1.12-4.08-4.08-6.24-4.08-6.24
		c-2.96-2.12-7.44-2.12-7.44-2.12c-3.88,0-6.88,1.76-6.88,1.76c-3.04,1.76-4.72,5.08-4.72,5.08c-1.68,3.32-1.68,7.76-1.68,7.76
		c0,4.68,1.6,8.04,1.6,8.04C467.91,99.18,470.91,100.98,470.91,100.98z"/>
	<polygon points="429.87,86.21 427.47,86.49 427.47,89.97 429.87,90.29 	"/>
	<polygon points="439.47,85.09 437.07,85.37 437.07,91.13 439.47,91.41 	"/>
	<polygon points="458.67,82.77 456.27,83.09 456.27,93.41 458.67,93.69 	"/>
	<polygon points="449.07,83.93 446.67,84.21 446.67,92.29 449.07,92.57 	"/>
</g>
</svg>
