<?xml version="1.0" encoding="utf-8"?>
<!-- Generator: Adobe Illustrator 21.0.0, SVG Export Plug-In . SVG Version: 6.00 Build 0)  -->
<svg version="1.1" id="Слой_1" xmlns="http://www.w3.org/2000/svg" xmlns:xlink="http://www.w3.org/1999/xlink" x="0px" y="0px"
	 viewBox="0 0 582.3 324.8" style="enable-background:new 0 0 582.3 324.8;" xml:space="preserve">
<g>
	<path d="M415.6,120.1L464.3,92l1.1,0.6l0,0l31.6,18.3l1.2-2.1l-27.6-16V54h-2.4v37.5l-3.4-1.9l0,0l-0.6-0.3l-0.6,0.3l0,0l-0.1,0.1
		l-1.7,0.9l0,0l-1.7,1V54h-2.4V93l-43.5,25.1l-43.5-25.1V54h-2.4v37.5l-3.4-1.9l0,0l-0.6-0.3l-0.6,0.3l0,0l0,0l-1.7,1l0,0l-1.7,1V54
		h-2.4V93l-41.9,24.2l6-34.3H307l6,34.3L266,90V54h-2.4V90l-48.7,28.1L171.4,93V54H169v37.6l-1.7-1l0,0l-2.4-1.3l-0.8,0.5l-3.1,1.8
		V54h-2.4v38.9l-43.5,25.1L66.4,90V54H64V90l-47.6,27.5l0,0l-1.6,0.9l-0.1,0.1l0,0l-0.6,0.3v0.7v2V175v2v0.7l2.3,1.3l0,0l48.2,27.8
		l0,0l0.6,0.3l0.6-0.3l0,0l49.3-28.5l48.6,28.1l-6.3,56.9h15.2l-6.3-57l47-27.1l-6,34.1h15.2l-6-34.1l47,27.1l-6.3,35.5h15.2
		l-6.3-35.5l47-27.1l-6,34.1h15.2l-6-34.1l47,27.1l-6.3,35.8h15.2l-6.3-35.8l48.6-28l31.4,18.1l1.2-2.1l-31.4-18.1V120.1z
		 M364.6,205.9L364.6,205.9L364.6,205.9L364.6,205.9z M364.6,204.5l-48.7-28.1v-56.2L364.6,92l1.1,0.6l0,0l47.6,27.5v56.2
		L364.6,204.5z M264.8,205.9L264.8,205.9L264.8,205.9L264.8,205.9z M264.8,204.5l-48.7-28.1v-56.2L264.8,92l48.7,28.1v56.2
		L264.8,204.5z M165,205.9L165,205.9L165,205.9L165,205.9z M165,204.5l-48.7-28.1v-56.2l47.6-27.5l0,0L165,92l48.7,28.1v56.2
		L165,204.5z M16.6,121.5v-1.3L65.2,92l48.7,28.1v56.2l-47.6,27.5l0,0l-1.1,0.7l-1.1-0.7l0,0l-47.6-27.5V175V121.5z"/>
	<rect x="402.8" y="125.5" width="2.4" height="45.6"/>
	<rect x="222.2" y="112.8" transform="matrix(0.8656 -0.5008 0.5008 0.8656 -24.1679 138.0246)" width="45.6" height="2.4"/>
	<rect x="396.6" y="263.3" transform="matrix(0.5004 -0.8658 0.8658 0.5004 -45.9627 485.5706)" width="2.4" height="38.5"/>
	<polygon points="314,291.2 315.2,293.3 348.6,274 347.4,271.9 	"/>
	<rect x="83.8" y="91.2" transform="matrix(0.5004 -0.8658 0.8658 0.5004 -56.2586 130.5741)" width="2.4" height="45.6"/>
	<rect x="62.2" y="181.3" transform="matrix(0.8661 -0.4998 0.4998 0.8661 -79.8216 66.9143)" width="45.6" height="2.4"/>
	<rect x="24.5" y="125.5" width="2.4" height="45.6"/>
	<path d="M357.5,45.8c3.1,1.8,7,1.8,7,1.8c3.9,0,7-1.8,7-1.8c3.1-1.8,4.9-5.2,4.9-5.2c1.8-3.4,1.8-7.8,1.8-7.8
		c0-4.5-1.8-7.8-1.8-7.8c-1.8-3.3-4.9-5.2-4.9-5.2c-3.1-1.8-7-1.8-7-1.8c-3.9,0-7,1.8-7,1.8c-3.1,1.8-4.9,5.2-4.9,5.2
		c-1.8,3.4-1.8,7.8-1.8,7.8c0,4.3,1.8,7.7,1.8,7.7C354.4,43.9,357.5,45.8,357.5,45.8z M356,26.7c1.2-2.6,3.4-4,3.4-4
		c2.2-1.4,5.1-1.4,5.1-1.4c2.9,0,5.1,1.4,5.1,1.4c2.2,1.4,3.4,4,3.4,4c1.2,2.6,1.2,6.2,1.2,6.2c0,3.6-1.2,6.2-1.2,6.2
		c-1.3,2.6-3.5,4-3.5,4c-2.2,1.4-5.1,1.4-5.1,1.4c-2.8,0-5-1.4-5-1.4c-2.2-1.4-3.5-4-3.5-4c-1.2-2.6-1.2-6.1-1.2-6.1
		C354.8,29.3,356,26.7,356,26.7z"/>
	<path d="M307.6,74.6c3.1,1.8,7,1.8,7,1.8c3.9,0,7-1.8,7-1.8c3.1-1.8,4.9-5.2,4.9-5.2c1.8-3.4,1.8-7.8,1.8-7.8
		c0-4.5-1.8-7.8-1.8-7.8c-1.8-3.3-4.9-5.2-4.9-5.2c-3.1-1.8-7-1.8-7-1.8c-3.9,0-7,1.8-7,1.8c-3.1,1.8-4.9,5.2-4.9,5.2
		c-1.8,3.4-1.8,7.8-1.8,7.8c0,4.3,1.8,7.7,1.8,7.7C304.5,72.7,307.6,74.6,307.6,74.6z M306.1,55.5c1.2-2.6,3.4-4,3.4-4
		c2.2-1.4,5.1-1.4,5.1-1.4c2.9,0,5.1,1.4,5.1,1.4c2.2,1.4,3.4,4,3.4,4c1.2,2.6,1.2,6.2,1.2,6.2c0,3.6-1.2,6.2-1.2,6.2
		c-1.3,2.6-3.5,4-3.5,4c-2.2,1.4-5.1,1.4-5.1,1.4c-2.8,0-5-1.4-5-1.4c-2.2-1.4-3.5-4-3.5-4c-1.2-2.6-1.2-6.1-1.2-6.1
		C304.9,58.1,306.1,55.5,306.1,55.5z"/>
	<polygon points="307.6,29.3 321.7,29.3 321.7,42.8 325.5,42.8 325.5,14.2 321.7,14.2 321.7,25.9 307.6,25.9 307.6,14.2 303.8,14.2 
		303.8,42.8 307.6,42.8 	"/>
	<path d="M257.8,45.8c3.1,1.8,7,1.8,7,1.8c3.9,0,7-1.8,7-1.8c3.1-1.8,4.9-5.2,4.9-5.2c1.8-3.4,1.8-7.8,1.8-7.8
		c0-4.5-1.8-7.8-1.8-7.8c-1.8-3.3-4.9-5.2-4.9-5.2c-3.1-1.8-7-1.8-7-1.8c-3.9,0-7,1.8-7,1.8c-3.1,1.8-4.9,5.2-4.9,5.2
		c-1.8,3.4-1.8,7.8-1.8,7.8c0,4.3,1.8,7.7,1.8,7.7C254.6,43.9,257.8,45.8,257.8,45.8z M256.2,26.7c1.2-2.6,3.4-4,3.4-4
		c2.2-1.4,5.1-1.4,5.1-1.4c2.9,0,5.1,1.4,5.1,1.4c2.2,1.4,3.4,4,3.4,4c1.2,2.6,1.2,6.2,1.2,6.2c0,3.6-1.2,6.2-1.2,6.2
		c-1.3,2.6-3.5,4-3.5,4c-2.2,1.4-5.1,1.4-5.1,1.4c-2.8,0-5-1.4-5-1.4c-2.2-1.4-3.5-4-3.5-4c-1.2-2.6-1.2-6.1-1.2-6.1
		C255,29.3,256.2,26.7,256.2,26.7z"/>
	<polygon points="229.2,33.7 243.3,33.7 243.3,47.1 247.1,47.1 247.1,18.5 243.3,18.5 243.3,30.3 229.2,30.3 229.2,18.5 225.4,18.5 
		225.4,47.1 229.2,47.1 	"/>
	<polygon points="321.7,248.5 325.5,248.5 325.5,219.9 321.7,219.9 321.7,231.6 307.6,231.6 307.6,219.9 303.8,219.9 303.8,248.5 
		307.6,248.5 307.6,235 321.7,235 	"/>
	<path d="M457.3,45.8c3.1,1.8,7,1.8,7,1.8c3.9,0,7-1.8,7-1.8c3.1-1.8,4.9-5.2,4.9-5.2c1.8-3.4,1.8-7.8,1.8-7.8
		c0-4.5-1.8-7.8-1.8-7.8c-1.8-3.3-4.9-5.2-4.9-5.2c-3.1-1.8-7-1.8-7-1.8c-3.9,0-7,1.8-7,1.8c-3.1,1.8-4.9,5.2-4.9,5.2
		c-1.8,3.4-1.8,7.8-1.8,7.8c0,4.3,1.8,7.7,1.8,7.7C454.2,43.9,457.3,45.8,457.3,45.8z M455.8,26.7c1.2-2.6,3.4-4,3.4-4
		c2.2-1.4,5.1-1.4,5.1-1.4c2.9,0,5.1,1.4,5.1,1.4c2.2,1.4,3.4,4,3.4,4c1.2,2.6,1.2,6.2,1.2,6.2c0,3.6-1.2,6.2-1.2,6.2
		c-1.2,2.6-3.5,4-3.5,4c-2.2,1.4-5.1,1.4-5.1,1.4c-2.8,0-5-1.4-5-1.4c-2.2-1.4-3.4-4-3.4-4c-1.3-2.6-1.3-6.1-1.3-6.1
		C454.5,29.3,455.8,26.7,455.8,26.7z"/>
	<polygon points="521.6,127 521.5,127 507.1,104.7 503.2,104.7 503.2,133.3 506.8,133.3 506.8,110.9 506.9,110.9 521.3,133.3 
		525.2,133.3 525.2,104.7 521.6,104.7 	"/>
	<polygon points="547,116.4 533,116.4 533,104.7 529.2,104.7 529.2,133.3 533,133.3 533,119.8 547,119.8 547,133.3 550.8,133.3 
		550.8,104.7 547,104.7 	"/>
	<path d="M558.3,137.3c0.4-0.8,1.1-1.4,1.1-1.4c0.6-0.7,1.7-1.6,1.7-1.6l1.9-1.5c2.5-2.1,3.8-3.9,3.8-3.9c1.3-1.8,1.3-3.7,1.3-3.7
		c0-1.5-0.8-2.8-0.8-2.8c-0.8-1.2-2.2-2-2.2-2c-1.4-0.7-3.3-0.7-3.3-0.7c-1.9,0-3.3,0.7-3.3,0.7c-1.4,0.7-2.2,2-2.2,2
		c-0.8,1.2-1,3-1,3l2.6,0.4c0.1-2,1.2-3,1.2-3c1-1,2.8-1,2.8-1c1.1,0,2,0.4,2,0.4c0.8,0.4,1.4,1.2,1.4,1.2c0.5,0.8,0.5,1.7,0.5,1.7
		c0,1.4-1.1,2.9-1.1,2.9c-1,1.5-3.3,3.4-3.3,3.4l-1.6,1.3c-2.4,2-3.6,3.6-3.6,3.6c-1.2,1.6-1.2,3.4-1.2,3.4h13.3v-2.4H558.3z"/>
	<path d="M471.4,192.6c-3.1-1.8-7-1.8-7-1.8c-3.9,0-7,1.8-7,1.8c-3.1,1.8-4.9,5.2-4.9,5.2c-1.8,3.4-1.8,7.8-1.8,7.8
		c0,4.3,1.8,7.7,1.8,7.7c1.8,3.4,4.9,5.2,4.9,5.2c3.1,1.8,7,1.8,7,1.8c3.9,0,7-1.8,7-1.8c3.1-1.8,4.9-5.2,4.9-5.2
		c1.8-3.4,1.8-7.8,1.8-7.8c0-4.5-1.8-7.8-1.8-7.8C474.4,194.5,471.4,192.6,471.4,192.6z M472.8,211.9c-1.2,2.6-3.5,4-3.5,4
		c-2.2,1.4-5.1,1.4-5.1,1.4c-2.8,0-5-1.4-5-1.4c-2.2-1.4-3.4-4-3.4-4c-1.3-2.6-1.3-6.1-1.3-6.1c0-3.6,1.2-6.3,1.2-6.3
		c1.2-2.6,3.4-4,3.4-4c2.2-1.4,5.1-1.4,5.1-1.4c2.9,0,5.1,1.4,5.1,1.4c2.2,1.4,3.4,4,3.4,4c1.2,2.6,1.2,6.2,1.2,6.2
		C474.1,209.3,472.8,211.9,472.8,211.9z"/>
	<polygon points="499.9,203.1 485.8,203.1 485.8,191.3 482,191.3 482,219.9 485.8,219.9 485.8,206.5 499.9,206.5 499.9,219.9 
		503.7,219.9 503.7,191.3 499.9,191.3 	"/>
	<path d="M271.8,250.2c-3.1-1.8-7-1.8-7-1.8c-3.9,0-7,1.8-7,1.8c-3.1,1.8-4.9,5.2-4.9,5.2c-1.8,3.4-1.8,7.8-1.8,7.8
		c0,4.3,1.8,7.7,1.8,7.7c1.8,3.4,4.9,5.2,4.9,5.2c3.1,1.8,7,1.8,7,1.8c3.9,0,7-1.8,7-1.8c3.1-1.8,4.9-5.2,4.9-5.2
		c1.8-3.4,1.8-7.8,1.8-7.8c0-4.5-1.8-7.8-1.8-7.8C274.9,252.1,271.8,250.2,271.8,250.2z M273.3,269.5c-1.3,2.6-3.5,4-3.5,4
		c-2.2,1.4-5.1,1.4-5.1,1.4c-2.8,0-5-1.4-5-1.4c-2.2-1.4-3.5-4-3.5-4c-1.2-2.6-1.2-6.1-1.2-6.1c0-3.6,1.2-6.3,1.2-6.3
		c1.2-2.6,3.4-4,3.4-4c2.2-1.4,5.1-1.4,5.1-1.4c2.9,0,5.1,1.4,5.1,1.4c2.2,1.4,3.4,4,3.4,4c1.2,2.6,1.2,6.2,1.2,6.2
		C274.6,266.9,273.3,269.5,273.3,269.5z"/>
	<polygon points="271.8,293.8 257.8,293.8 257.8,282 253.9,282 253.9,310.7 257.8,310.7 257.8,297.2 271.8,297.2 271.8,310.7 
		275.6,310.7 275.6,282 271.8,282 	"/>
	<polygon points="371.9,271 371.8,271 357.5,248.7 353.6,248.7 353.6,277.3 357.2,277.3 357.2,254.9 357.2,254.9 371.6,277.3 
		375.5,277.3 375.5,248.7 371.9,248.7 	"/>
	<path d="M158,45.8c3.1,1.8,7,1.8,7,1.8c3.9,0,7-1.8,7-1.8c3.1-1.8,4.9-5.2,4.9-5.2c1.8-3.4,1.8-7.8,1.8-7.8c0-4.5-1.8-7.8-1.8-7.8
		c-1.8-3.3-4.9-5.2-4.9-5.2c-3.1-1.8-7-1.8-7-1.8c-3.9,0-7,1.8-7,1.8c-3.1,1.8-4.9,5.2-4.9,5.2c-1.8,3.4-1.8,7.8-1.8,7.8
		c0,4.3,1.8,7.7,1.8,7.7C154.9,43.9,158,45.8,158,45.8z M156.5,26.7c1.2-2.6,3.4-4,3.4-4c2.2-1.4,5.1-1.4,5.1-1.4
		c2.9,0,5.1,1.4,5.1,1.4c2.2,1.4,3.4,4,3.4,4c1.2,2.6,1.2,6.2,1.2,6.2c0,3.6-1.3,6.2-1.3,6.2c-1.2,2.6-3.4,4-3.4,4
		c-2.2,1.4-5.1,1.4-5.1,1.4c-2.8,0-5-1.4-5-1.4c-2.2-1.4-3.5-4-3.5-4c-1.2-2.6-1.2-6.1-1.2-6.1C155.2,29.3,156.5,26.7,156.5,26.7z"
		/>
	<polygon points="221.9,231.6 207.9,231.6 207.9,219.9 204,219.9 204,248.5 207.9,248.5 207.9,235 221.9,235 221.9,248.5 
		225.7,248.5 225.7,219.9 221.9,219.9 	"/>
	<path d="M58.2,45.8c3.1,1.8,7,1.8,7,1.8c3.9,0,7-1.8,7-1.8c3.1-1.8,4.9-5.2,4.9-5.2c1.8-3.4,1.8-7.8,1.8-7.8c0-4.5-1.8-7.8-1.8-7.8
		c-1.8-3.3-4.9-5.2-4.9-5.2c-3.1-1.8-7-1.8-7-1.8c-3.9,0-7,1.8-7,1.8c-3.2,1.8-4.9,5.2-4.9,5.2c-1.8,3.4-1.8,7.8-1.8,7.8
		c0,4.3,1.8,7.7,1.8,7.7C55.1,43.9,58.2,45.8,58.2,45.8z M56.7,26.7c1.2-2.6,3.5-4,3.5-4c2.2-1.4,5.1-1.4,5.1-1.4
		c2.9,0,5.1,1.4,5.1,1.4c2.2,1.4,3.4,4,3.4,4c1.2,2.6,1.2,6.2,1.2,6.2c0,3.6-1.2,6.2-1.2,6.2c-1.2,2.6-3.4,4-3.4,4
		c-2.2,1.4-5.1,1.4-5.1,1.4c-2.8,0-5-1.4-5-1.4c-2.2-1.4-3.5-4-3.5-4c-1.2-2.6-1.2-6.1-1.2-6.1C55.5,29.3,56.7,26.7,56.7,26.7z"/>
	<polygon points="86.8,33.7 100.8,33.7 100.8,47.1 104.6,47.1 104.6,18.5 100.8,18.5 100.8,30.3 86.8,30.3 86.8,18.5 83,18.5 
		83,47.1 86.8,47.1 	"/>
</g>
</svg>
