<?xml version="1.0" encoding="utf-8"?>
<!-- Generator: Adobe Illustrator 27.0.0, SVG Export Plug-In . SVG Version: 6.00 Build 0)  -->
<svg version="1.1" id="Слой_1" xmlns="http://www.w3.org/2000/svg" xmlns:xlink="http://www.w3.org/1999/xlink" x="0px" y="0px"
	 viewBox="0 0 865.15 318.27" style="enable-background:new 0 0 865.15 318.27;" xml:space="preserve">
<g>
	<polygon points="353.25,121.49 356.37,126.97 358.29,125.49 355.45,120.57 	"/>
	<polygon points="335.41,129.01 340.97,138.65 342.89,137.21 337.61,128.09 	"/>
	<polygon points="344.33,125.25 348.65,132.81 350.61,131.33 346.53,124.33 	"/>
	<polygon points="362.17,117.77 364.09,121.13 366.01,119.65 364.37,116.81 	"/>
	<polygon points="463.81,119.57 465.81,120.93 467.49,118.01 465.33,116.97 	"/>
	<polygon points="500.17,133.41 495.49,141.57 497.45,142.93 502.37,134.45 	"/>
	<polygon points="504.93,148.11 504.93,182.97 507.33,182.97 507.33,145.03 511.09,138.53 508.89,137.53 506.15,142.29 
		504.93,142.29 504.93,144.41 503.41,147.05 	"/>
	<polygon points="487.57,136.05 489.53,137.45 493.65,130.33 491.45,129.29 	"/>
	<polygon points="479.65,130.57 481.65,131.93 484.93,126.21 482.73,125.21 	"/>
	<polygon points="471.73,125.05 473.73,126.45 476.21,122.09 474.05,121.09 	"/>
	<polygon points="510.73,144.25 511.93,146.33 515.33,144.37 515.33,182.97 517.73,182.97 517.73,142.98 544.9,127.29 
		543.69,125.21 	"/>
	<rect x="620.25" y="151.25" width="2.4" height="45.64"/>
	<polygon points="660.37,218.66 661.58,220.73 701.09,197.93 699.89,195.85 	"/>
	<polygon points="660.37,129.49 699.89,152.29 701.09,150.21 661.58,127.41 	"/>
	<path d="M767.13,78.09h-2.4v39.32l-1.65-0.95l0.01-0.01l-1.72-0.98l-0.03-0.02l0,0l-0.61-0.35l-0.59,0.35l0,0l-3.36,1.94v-39.3
		h-2.4v40.69l-43.52,25.13l-47.53-27.44l0.01-0.01l-1.65-0.94l-0.1-0.06l0,0l-0.61-0.35l-0.65,0.38l-49.22,28.42l-32.36-18.69
		l-1.2,2.08l32.36,18.69v54.91v2v0.7l0.6,0.34l0,0l49.88,28.8l0,0l0.59,0.34l0.61-0.35l0,0l0.24-0.14l1.51-0.86l-0.01-0.01
		l46.41-26.8l0,0.01l2.32-1.35v-0.69v-2v-54.91l47.56-27.46l0,0l1.12-0.65l32.04,18.49l1.2-2.08l-26.84-15.49V78.09z M709.65,202.2
		l-48.68,28.11l-1.12-0.65l0,0l-46.41-26.8l0.01-0.01l-1.16-0.66v-1.3v-54.91l47.56-27.46l0,0l1.12-0.65l48.68,28.1v54.91V202.2z"/>
	<rect x="212.64" y="161.27" transform="matrix(0.5874 -0.8093 0.8093 0.5874 -34.3452 257.5757)" width="45.62" height="2.4"/>
	<polygon points="176.49,91.69 167.77,91.69 168.09,94.09 176.17,94.09 	"/>
	<polygon points="173.73,113.29 174.05,110.89 170.21,110.89 170.53,113.29 	"/>
	<polygon points="177.73,82.09 166.53,82.09 166.85,84.49 177.41,84.49 	"/>
	<polygon points="175.29,101.29 168.97,101.29 169.29,103.69 174.97,103.69 	"/>
	<polygon points="462.59,116.12 462.59,116.12 462.59,116.12 462,114.21 461.98,114.22 451.19,81 448.91,81.74 460.04,116.03 
		459.76,116.24 459.15,116.68 459.15,116.68 414.85,148.85 370.56,116.68 370.56,116.68 369.66,116.03 386.58,63.96 386.6,63.97 
		386.93,62.89 388.05,62.89 425.89,62.89 425.89,60.49 388.05,60.49 386.05,60.49 385.17,60.49 384.9,61.36 367.73,114.22 
		367.71,114.22 366.85,116.96 367.55,117.46 367.55,117.46 412.55,150.14 412.55,150.14 414.85,151.82 417.16,150.14 417.16,150.14 
		462.16,117.46 462.16,117.46 462.86,116.96 	"/>
	<polygon points="435.89,52.37 435.97,52.37 450.89,75.29 455.05,75.29 455.05,46.73 451.45,46.73 451.45,69.89 451.37,69.89 
		436.33,46.73 432.29,46.73 432.29,75.29 435.89,75.29 	"/>
	<polygon points="436.13,29.65 451.17,29.65 451.17,42.73 454.97,42.73 454.97,14.17 451.17,14.17 451.17,26.45 436.13,26.45 
		436.13,14.17 432.33,14.17 432.33,42.73 436.13,42.73 	"/>
	<path d="M329.85,151.37c0-11.24-18.28-6.28-18.28-13.32c0-3.72,3.16-4.88,6.4-4.88c3.96,0,6.64,1.72,7.08,5.84h3.6
		c-0.2-6.28-4.68-9.04-10.52-9.04c-5.24,0-10.36,2.6-10.36,8.36c0,10.48,18.28,5.32,18.28,13.16c0,4.12-3.8,5.2-7.24,5.2
		c-4.32,0-8.32-2.08-8.32-6.88h-3.6c0,6.92,5.4,10.08,11.8,10.08C323.89,159.89,329.85,157.45,329.85,151.37z"/>
	<polygon points="569.01,124.69 568.93,124.69 553.89,101.53 549.85,101.53 549.85,130.09 553.45,130.09 553.45,107.17 
		553.53,107.17 568.45,130.09 572.61,130.09 572.61,101.53 569.01,101.53 	"/>
	<polygon points="553.69,84.45 568.73,84.45 568.73,97.53 572.53,97.53 572.53,68.97 568.73,68.97 568.73,81.25 553.69,81.25 
		553.69,68.97 549.89,68.97 549.89,97.53 553.69,97.53 	"/>
	<path d="M511.33,187.57c-9.08,0-13.68,7.16-13.68,14.96c0,7.8,4.6,14.96,13.68,14.96c9.08,0,13.68-7.16,13.68-14.96
		C525.01,194.73,520.41,187.57,511.33,187.57z M511.33,214.29c-6.96,0-9.88-6-9.88-11.76c0-5.76,2.92-11.76,9.88-11.76
		c6.96,0,9.88,6,9.88,11.76C521.21,208.29,518.29,214.29,511.33,214.29z"/>
	<path d="M810.65,129.97c-9.08,0-13.68,7.16-13.68,14.96s4.6,14.96,13.68,14.96s13.68-7.16,13.68-14.96S819.73,129.97,810.65,129.97
		z M810.65,156.69c-6.96,0-9.88-6-9.88-11.76s2.92-11.76,9.88-11.76s9.88,6,9.88,11.76S817.61,156.69,810.65,156.69z"/>
	<polygon points="847.17,130.65 847.17,142.93 832.13,142.93 832.13,130.65 828.33,130.65 828.33,159.21 832.13,159.21 
		832.13,146.13 847.17,146.13 847.17,159.21 850.97,159.21 850.97,130.65 	"/>
	<path d="M760.73,73.49c9.08,0,13.68-7.16,13.68-14.96c0-7.8-4.6-14.96-13.68-14.96c-9.08,0-13.68,7.16-13.68,14.96
		C747.05,66.33,751.65,73.49,760.73,73.49z M760.73,46.77c6.96,0,9.88,6,9.88,11.76s-2.92,11.76-9.88,11.76
		c-6.96,0-9.88-6-9.88-11.76S753.77,46.77,760.73,46.77z"/>
	<polygon points="179.93,182.29 179.85,182.29 164.81,159.13 160.77,159.13 160.77,187.69 164.37,187.69 164.37,164.77 
		164.45,164.77 179.37,187.69 183.53,187.69 183.53,159.13 179.93,159.13 	"/>
	<path d="M246.9,245.88l-1.24-0.26l-17.4-53.51l33.12-45.61h40.47v-2.4h-40.47l-33.1-45.59l22.13-52.77l-11.4-3.68L225.9,97.77
		l-53.95,17.53h-56.06l4.65-36.4h-12l4.51,35.36l-47.11-27.2l4.72-37.75h-12l4.72,37.75l-49.2,28.41l1.2,2.08l49.28-28.45
		l48.68,28.11v49.05L84,195.57l1.7,1.7l27.63-27.63v2.46v2v1.2h1.2h2h2.42l-27.63,27.59l1.7,1.7l29.33-29.29h32.02v-2.4h-37.84h-0.8
		v-0.8v-54.4h55.2v35.04h2.4v-35.37l53.14-17.26l32.82,45.19l-32.82,45.19l-36.49-11.89l-0.74,2.28l36.74,11.97l15.54,47.81
		l-26.28,29.19l1.79,1.61l25.36-28.16l0.6,1.86l-0.03,0.01l0.86,2.53l1.7,0.36l2.77,0.59l-25.33,28.14l1.79,1.61l26.26-29.17
		l30.6,6.5l0.5-2.35L246.9,245.88L246.9,245.88z M226.94,98.68l-0.01,0.01l0-0.01L226.94,98.68z"/>
	<path d="M301.05,243.33c-9.08,0-13.68,7.16-13.68,14.96c0,7.8,4.6,14.96,13.68,14.96c9.08,0,13.68-7.16,13.68-14.96
		C314.73,250.49,310.13,243.33,301.05,243.33z M301.05,270.05c-6.96,0-9.88-6-9.88-11.76c0-5.76,2.92-11.76,9.88-11.76
		s9.88,6,9.88,11.76C310.93,264.05,308.01,270.05,301.05,270.05z"/>
	<polygon points="337.57,256.29 322.53,256.29 322.53,244.01 318.73,244.01 318.73,272.57 322.53,272.57 322.53,259.49 
		337.57,259.49 337.57,272.57 341.37,272.57 341.37,244.01 337.57,244.01 	"/>
	<path d="M206.17,274.17c-9.08,0-13.68,7.16-13.68,14.96s4.6,14.96,13.68,14.96c9.08,0,13.68-7.16,13.68-14.96
		S215.25,274.17,206.17,274.17z M206.17,300.89c-6.96,0-9.88-6-9.88-11.76s2.92-11.76,9.88-11.76s9.88,6,9.88,11.76
		S213.13,300.89,206.17,300.89z"/>
	<path d="M73.81,199.49c-9.08,0-13.68,7.16-13.68,14.96s4.6,14.96,13.68,14.96s13.68-7.16,13.68-14.96S82.89,199.49,73.81,199.49z
		 M73.81,226.21c-6.96,0-9.88-6-9.88-11.76s2.92-11.76,9.88-11.76s9.88,6,9.88,11.76S80.77,226.21,73.81,226.21z"/>
	<path d="M64.65,44.69c9.08,0,13.68-7.16,13.68-14.96s-4.6-14.96-13.68-14.96c-9.08,0-13.68,7.16-13.68,14.96
		S55.57,44.69,64.65,44.69z M64.65,17.97c6.96,0,9.88,6,9.88,11.76s-2.92,11.76-9.88,11.76s-9.88-6-9.88-11.76
		S57.69,17.97,64.65,17.97z"/>
	<polygon points="28.13,30.93 43.17,30.93 43.17,44.01 46.97,44.01 46.97,15.45 43.17,15.45 43.17,27.73 28.13,27.73 28.13,15.45 
		24.33,15.45 24.33,44.01 28.13,44.01 	"/>
	<polygon points="107.01,59.41 122.05,59.41 122.05,72.49 125.85,72.49 125.85,43.93 122.05,43.93 122.05,56.21 107.01,56.21 
		107.01,43.93 103.21,43.93 103.21,72.49 107.01,72.49 	"/>
	<polygon points="164.61,59.41 179.65,59.41 179.65,72.49 183.45,72.49 183.45,43.93 179.65,43.93 179.65,56.21 164.61,56.21 
		164.61,43.93 160.81,43.93 160.81,72.49 164.61,72.49 	"/>
</g>
</svg>
