<?xml version="1.0" encoding="UTF-8" standalone="no"?>
<!-- Generator: Adobe Illustrator 12.0.1, SVG Export Plug-In . SVG Version: 6.00 Build 51448)  -->
<svg
   xmlns:dc="http://purl.org/dc/elements/1.1/"
   xmlns:cc="http://web.resource.org/cc/"
   xmlns:rdf="http://www.w3.org/1999/02/22-rdf-syntax-ns#"
   xmlns:svg="http://www.w3.org/2000/svg"
   xmlns="http://www.w3.org/2000/svg"
   xmlns:sodipodi="http://sodipodi.sourceforge.net/DTD/sodipodi-0.dtd"
   xmlns:inkscape="http://www.inkscape.org/namespaces/inkscape"
   version="1.1"
   id="Layer_1"
   width="500.092"
   height="155.084"
   viewBox="0 0 500.092 155.084"
   style="overflow:visible;enable-background:new 0 0 500.092 155.084;"
   xml:space="preserve"
   sodipodi:version="0.32"
   inkscape:version="0.45.1"
   sodipodi:docname="Gentamicin C2.svg"
   inkscape:output_extension="org.inkscape.output.svg.inkscape"
   sodipodi:docbase="C:\"><metadata
   id="metadata192"><rdf:RDF><cc:Work
       rdf:about=""><dc:format>image/svg+xml</dc:format><dc:type
         rdf:resource="http://purl.org/dc/dcmitype/StillImage" /></cc:Work></rdf:RDF></metadata><defs
   id="defs190" /><sodipodi:namedview
   inkscape:window-height="579"
   inkscape:window-width="801"
   inkscape:pageshadow="2"
   inkscape:pageopacity="0.0"
   guidetolerance="10.0"
   gridtolerance="10.0"
   objecttolerance="10.0"
   borderopacity="1.0"
   bordercolor="#666666"
   pagecolor="#ffffff"
   id="base"
   inkscape:zoom="1.4337362"
   inkscape:cx="250.04601"
   inkscape:cy="77.542"
   inkscape:window-x="110"
   inkscape:window-y="110"
   inkscape:current-layer="Layer_1" />
<path
   style="fill:#231f20"
   d="M 232.8434,97.1519 L 234.2209,96.3444 L 247.0934,118.6219 L 246.7134,119.5719 L 245.0509,118.2894 L 232.8434,97.1519 z "
   id="polygon3" />
<g
   id="g5"
   transform="matrix(0.95,0,0,0.95,12.5023,3.8771)">
	<path
   style="fill:#231f20"
   d="M 141.794,48.819 C 141.794,45.966 142.56,43.734 144.092,42.121 C 145.624,40.507 147.602,39.7 150.025,39.7 C 151.612,39.7 153.042,40.079 154.316,40.837 C 155.59,41.596 156.561,42.652 157.23,44.008 C 157.899,45.364 158.232,46.902 158.232,48.62 C 158.232,50.363 157.88,51.922 157.177,53.297 C 156.474,54.672 155.477,55.714 154.187,56.421 C 152.897,57.128 151.506,57.482 150.013,57.482 C 148.395,57.482 146.949,57.091 145.675,56.31 C 144.401,55.529 143.436,54.461 142.779,53.11 C 142.122,51.759 141.794,50.328 141.794,48.819 z M 144.138,48.849 C 144.138,50.919 144.695,52.55 145.809,53.742 C 146.923,54.934 148.321,55.529 150.001,55.529 C 151.713,55.529 153.122,54.927 154.229,53.724 C 155.335,52.521 155.888,50.814 155.888,48.603 C 155.888,47.205 155.652,45.984 155.179,44.941 C 154.706,43.898 154.014,43.089 153.103,42.515 C 152.192,41.941 151.17,41.654 150.037,41.654 C 148.427,41.654 147.041,42.207 145.88,43.312 C 144.719,44.417 144.138,46.263 144.138,48.849 z "
   id="path7" />
</g>
<path
   style="fill:#231f20"
   d="M 160.0259,59.4369 L 161.4034,58.6294 L 174.7034,81.6194 L 173.8959,81.8569 L 172.0909,80.3844 L 160.0259,59.4369 z "
   id="polygon9" />
<path
   style="fill:#231f20"
   d="M 140.88245,76.4419 L 137.4634,72.1194 L 139.6009,69.0319 L 172.0909,80.3844 L 173.8959,81.8569 L 173.0884,82.5219 L 140.88245,76.4419 z "
   id="polygon11" />
<path
   style="fill:#231f20"
   d="M 118.6059,59.8169 L 118.6059,58.1069 L 144.8259,51.0769 L 145.2534,52.6444 L 118.6059,59.8169 z "
   id="polygon13" />
<path
   style="fill:#231f20"
   d="M 104.1659,83.5194 L 101.0309,81.8569 L 103.30995,78.7219 L 139.6009,69.0319 L 137.4634,72.1194 L 137.8909,74.4944 L 104.1659,83.5194 z "
   id="polygon15" />
<path
   style="fill:#231f20"
   d="M 81.74495,50.1744 L 82.17245,49.2244 L 84.07245,50.5544 L 103.30995,78.7219 L 101.0309,81.8569 L 95.94745,79.6719 L 81.74495,50.1744 z "
   id="polygon17" />
<path
   style="fill:#231f20"
   d="M 118.6059,58.1069 L 118.6059,59.8169 L 84.07245,50.5544 L 82.17245,49.2244 L 82.9809,48.6069 L 118.6059,58.1069 z "
   id="polygon19" />
<g
   id="g21"
   transform="matrix(0.95,0,0,0.95,12.5023,3.8771)">
	<path
   style="fill:#231f20"
   d="M 126.725,115.634 L 126.725,98.446 L 129.006,98.446 L 129.006,105.509 L 137.897,105.509 L 137.897,98.446 L 140.178,98.446 L 140.178,115.634 L 137.897,115.634 L 137.897,107.54 L 129.006,107.54 L 129.006,115.634 L 126.725,115.634 z "
   id="path23" />
	<path
   style="fill:#231f20"
   d="M 143.276,107.269 C 143.276,104.416 144.042,102.184 145.574,100.571 C 147.106,98.957 149.084,98.15 151.507,98.15 C 153.094,98.15 154.524,98.529 155.798,99.287 C 157.072,100.046 158.043,101.102 158.712,102.458 C 159.381,103.814 159.714,105.352 159.714,107.07 C 159.714,108.813 159.362,110.372 158.659,111.747 C 157.956,113.122 156.959,114.164 155.669,114.871 C 154.379,115.578 152.988,115.932 151.495,115.932 C 149.877,115.932 148.431,115.541 147.157,114.76 C 145.883,113.979 144.918,112.911 144.261,111.56 C 143.604,110.209 143.276,108.777 143.276,107.269 z M 145.62,107.298 C 145.62,109.368 146.177,110.999 147.291,112.191 C 148.405,113.383 149.803,113.978 151.483,113.978 C 153.195,113.978 154.604,113.376 155.711,112.173 C 156.817,110.97 157.37,109.263 157.37,107.052 C 157.37,105.654 157.134,104.433 156.661,103.39 C 156.188,102.347 155.496,101.538 154.585,100.964 C 153.674,100.39 152.652,100.103 151.519,100.103 C 149.909,100.103 148.523,100.656 147.362,101.761 C 146.201,102.866 145.62,104.712 145.62,107.298 z "
   id="path25" />
</g>
<path
   style="fill:#231f20"
   d="M 152.0934,95.7744 L 150.6684,96.5819 L 137.8909,74.4944 L 137.4634,72.1194 L 140.88245,76.4419 L 152.0934,95.7744 z "
   id="polygon27" />
<path
   style="fill:#231f20"
   d="M 174.7034,109.7394 L 173.0884,109.7394 L 173.0884,82.5219 L 173.8959,81.8569 L 174.7034,81.6194 L 174.7034,109.7394 z "
   id="polygon29" />
<path
   style="fill:#231f20"
   d="M 282.7184,110.7369 L 283.1459,109.7869 L 284.8084,111.0694 L 302.3834,141.51785 L 301.9559,142.46785 L 300.19745,140.9469 L 282.7184,110.7369 z "
   id="polygon31" />
<path
   style="fill:#231f20"
   d="M 262.9584,135.9119 L 267.7084,129.5944 L 300.19745,140.9469 L 301.9559,142.46785 L 302.0034,143.2744 L 262.9584,135.9119 z "
   id="polygon33" />
<path
   style="fill:#231f20"
   d="M 246.7134,120.38035 L 246.7134,119.5719 L 247.0934,118.6219 L 283.1459,108.98035 L 283.1459,109.7869 L 282.7184,110.7369 L 246.7134,120.38035 z "
   id="polygon35" />
<path
   style="fill:#231f20"
   d="M 232.7009,143.9869 L 229.1384,142.46785 L 231.4184,139.3319 L 267.7084,129.5944 L 262.9584,135.9119 L 232.7009,143.9869 z "
   id="polygon37" />
<path
   style="fill:#231f20"
   d="M 209.8534,110.7369 L 210.2809,109.7869 L 212.1809,111.1644 L 231.4184,139.3319 L 229.1384,142.46785 L 224.2459,140.6144 L 209.8534,110.7369 z "
   id="polygon39" />
<path
   style="fill:#231f20"
   d="M 245.0509,118.2894 L 246.7134,119.5719 L 246.7134,120.38035 L 212.1809,111.1644 L 210.2809,109.7869 L 210.2809,108.98035 L 245.0509,118.2894 z "
   id="polygon41" />
<g
   id="g43"
   transform="matrix(0.95,0,0,0.95,12.5023,3.8771)">
	<path
   style="fill:#231f20"
   d="M 161.644,122.869 C 161.644,120.016 162.41,117.784 163.942,116.171 C 165.474,114.557 167.452,113.75 169.875,113.75 C 171.462,113.75 172.892,114.129 174.166,114.887 C 175.44,115.646 176.411,116.702 177.08,118.058 C 177.749,119.414 178.082,120.952 178.082,122.67 C 178.082,124.413 177.73,125.972 177.027,127.347 C 176.324,128.722 175.327,129.764 174.037,130.471 C 172.747,131.178 171.356,131.532 169.863,131.532 C 168.245,131.532 166.799,131.141 165.525,130.36 C 164.251,129.579 163.286,128.511 162.629,127.16 C 161.972,125.809 161.644,124.378 161.644,122.869 z M 163.988,122.898 C 163.988,124.968 164.545,126.599 165.659,127.791 C 166.773,128.983 168.171,129.578 169.851,129.578 C 171.563,129.578 172.972,128.976 174.079,127.773 C 175.185,126.57 175.738,124.863 175.738,122.652 C 175.738,121.254 175.502,120.033 175.029,118.99 C 174.556,117.947 173.864,117.138 172.953,116.564 C 172.042,115.99 171.02,115.703 169.887,115.703 C 168.277,115.703 166.891,116.256 165.73,117.361 C 164.569,118.466 163.988,120.313 163.988,122.898 z "
   id="path45" />
</g>
<path
   style="fill:#231f20"
   d="M 183.6809,117.76785 L 183.2534,116.1994 L 210.2809,108.98035 L 210.2809,109.7869 L 209.8534,110.7369 L 183.6809,117.76785 z "
   id="polygon47" />
<g
   id="g49"
   transform="matrix(0.95,0,0,0.95,12.5023,3.8771)">
	<path
   style="fill:#231f20"
   d="M 169.95,150.584 L 169.95,133.396 L 172.231,133.396 L 172.231,140.459 L 181.122,140.459 L 181.122,133.396 L 183.403,133.396 L 183.403,150.584 L 181.122,150.584 L 181.122,142.49 L 172.231,142.49 L 172.231,150.584 L 169.95,150.584 z "
   id="path51" />
</g>
<g
   id="g53"
   transform="matrix(0.95,0,0,0.95,12.5023,3.8771)">
	<path
   style="fill:#231f20"
   d="M 193.724,153.568 L 193.724,155.084 L 185.193,155.084 C 185.181,154.703 185.243,154.337 185.379,153.985 C 185.597,153.405 185.946,152.834 186.427,152.272 C 186.907,151.71 187.597,151.061 188.497,150.325 C 189.893,149.172 190.839,148.261 191.337,147.591 C 191.835,146.921 192.084,146.286 192.084,145.688 C 192.084,145.062 191.859,144.535 191.409,144.104 C 190.959,143.674 190.372,143.459 189.649,143.459 C 188.883,143.459 188.272,143.688 187.813,144.147 C 187.354,144.606 187.122,145.241 187.116,146.052 L 185.491,145.88 C 185.602,144.664 186.022,143.738 186.751,143.102 C 187.479,142.464 188.457,142.146 189.685,142.146 C 190.924,142.146 191.905,142.489 192.627,143.175 C 193.349,143.861 193.71,144.711 193.71,145.725 C 193.71,146.241 193.604,146.748 193.393,147.246 C 193.182,147.744 192.83,148.269 192.34,148.82 C 191.849,149.371 191.036,150.127 189.9,151.088 C 188.949,151.886 188.338,152.426 188.067,152.711 C 187.796,152.994 187.571,153.28 187.394,153.567 L 193.724,153.567 L 193.724,153.568 z "
   id="path55" />
</g>
<g
   id="g57"
   transform="matrix(0.95,0,0,0.95,12.5023,3.8771)">
	<path
   style="fill:#231f20"
   d="M 195.723,150.584 L 195.723,133.396 L 198.063,133.396 L 207.067,146.885 L 207.067,133.396 L 209.255,133.396 L 209.255,150.584 L 206.915,150.584 L 197.911,137.095 L 197.911,150.584 L 195.723,150.584 z "
   id="path59" />
</g>
<path
   style="fill:#231f20"
   d="M 216.12245,140.6144 L 216.4559,139.0469 L 224.2459,140.6144 L 229.1384,142.46785 L 232.7009,143.9869 L 216.12245,140.6144 z "
   id="polygon61" />
<g
   id="g63"
   transform="matrix(0.95,0,0,0.95,12.5023,3.8771)">
	<path
   style="fill:#231f20"
   d="M 202.075,96.834 L 202.075,79.646 L 204.356,79.646 L 204.356,86.709 L 213.247,86.709 L 213.247,79.646 L 215.528,79.646 L 215.528,96.834 L 213.247,96.834 L 213.247,88.74 L 204.356,88.74 L 204.356,96.834 L 202.075,96.834 L 202.075,96.834 z "
   id="path65" />
	<path
   style="fill:#231f20"
   d="M 218.626,88.469 C 218.626,85.616 219.392,83.384 220.924,81.771 C 222.456,80.157 224.434,79.35 226.857,79.35 C 228.444,79.35 229.874,79.729 231.148,80.487 C 232.422,81.246 233.393,82.302 234.062,83.658 C 234.731,85.014 235.064,86.552 235.064,88.27 C 235.064,90.013 234.712,91.572 234.009,92.947 C 233.306,94.322 232.309,95.364 231.019,96.071 C 229.729,96.778 228.338,97.132 226.845,97.132 C 225.227,97.132 223.781,96.741 222.507,95.96 C 221.233,95.179 220.268,94.111 219.611,92.76 C 218.954,91.409 218.626,89.978 218.626,88.469 z M 220.97,88.498 C 220.97,90.568 221.527,92.199 222.641,93.391 C 223.755,94.583 225.153,95.178 226.833,95.178 C 228.545,95.178 229.954,94.576 231.061,93.373 C 232.167,92.17 232.72,90.463 232.72,88.252 C 232.72,86.854 232.484,85.633 232.011,84.59 C 231.538,83.547 230.846,82.738 229.935,82.164 C 229.024,81.59 228.002,81.303 226.869,81.303 C 225.259,81.303 223.873,81.856 222.712,82.961 C 221.551,84.066 220.97,85.912 220.97,88.498 z "
   id="path67" />
</g>
<path
   style="fill:#231f20"
   d="M 310.17245,116.1994 L 309.7934,117.76785 L 284.8084,111.0694 L 283.1459,109.7869 L 283.1459,108.98035 L 310.17245,116.1994 z "
   id="polygon69" />
<g
   id="g71"
   transform="matrix(0.95,0,0,0.95,12.5023,3.8771)">
	<path
   style="fill:#231f20"
   d="M 336.266,145.034 L 336.266,127.846 L 338.606,127.846 L 347.61,141.335 L 347.61,127.846 L 349.798,127.846 L 349.798,145.034 L 347.458,145.034 L 338.454,131.545 L 338.454,145.034 L 336.266,145.034 L 336.266,145.034 z "
   id="path73" />
	<path
   style="fill:#231f20"
   d="M 353.708,145.034 L 353.708,127.846 L 355.989,127.846 L 355.989,134.909 L 364.88,134.909 L 364.88,127.846 L 367.161,127.846 L 367.161,145.034 L 364.88,145.034 L 364.88,136.94 L 355.989,136.94 L 355.989,145.034 L 353.708,145.034 z "
   id="path75" />
</g>
<g
   id="g77"
   transform="matrix(0.95,0,0,0.95,12.5023,3.8771)">
	<path
   style="fill:#231f20"
   d="M 376.942,148.019 L 376.942,149.535 L 368.411,149.535 C 368.399,149.154 368.461,148.788 368.597,148.436 C 368.815,147.856 369.164,147.285 369.645,146.723 C 370.126,146.161 370.816,145.512 371.715,144.776 C 373.111,143.623 374.057,142.712 374.555,142.042 C 375.053,141.372 375.302,140.737 375.302,140.139 C 375.302,139.513 375.076,138.986 374.627,138.555 C 374.176,138.125 373.59,137.91 372.866,137.91 C 372.1,137.91 371.489,138.139 371.03,138.598 C 370.571,139.057 370.339,139.692 370.333,140.503 L 368.708,140.331 C 368.819,139.115 369.239,138.189 369.968,137.553 C 370.696,136.915 371.674,136.597 372.902,136.597 C 374.141,136.597 375.122,136.94 375.844,137.626 C 376.566,138.312 376.927,139.162 376.927,140.176 C 376.927,140.692 376.821,141.199 376.61,141.697 C 376.399,142.195 376.047,142.72 375.557,143.271 C 375.066,143.822 374.252,144.578 373.117,145.539 C 372.167,146.337 371.555,146.877 371.284,147.162 C 371.013,147.445 370.788,147.731 370.611,148.018 L 376.942,148.018 L 376.942,148.019 z "
   id="path79" />
</g>
<path
   style="fill:#231f20"
   d="M 328.8884,134.39285 L 329.3159,135.9594 L 302.0034,143.2744 L 301.9559,142.46785 L 302.3834,141.51785 L 328.8884,134.39285 z "
   id="polygon81" />
<path
   style="fill:#231f20"
   d="M 321.3834,80.2894 L 319.5309,81.8569 L 318.72245,81.6194 L 336.7259,50.5069 L 338.3884,49.2244 L 338.7684,50.1269 L 321.3834,80.2894 z "
   id="polygon83" />
<g
   id="g85"
   transform="matrix(0.95,0,0,0.95,12.5023,3.8771)">
	<path
   style="fill:#231f20"
   d="M 353.294,72.919 C 353.294,70.066 354.06,67.834 355.591,66.221 C 357.124,64.607 359.101,63.8 361.525,63.8 C 363.111,63.8 364.542,64.179 365.816,64.937 C 367.089,65.696 368.06,66.752 368.729,68.108 C 369.398,69.464 369.732,71.002 369.732,72.72 C 369.732,74.463 369.38,76.022 368.676,77.397 C 367.972,78.772 366.976,79.814 365.687,80.521 C 364.396,81.228 363.005,81.582 361.513,81.582 C 359.894,81.582 358.449,81.191 357.175,80.41 C 355.9,79.629 354.935,78.561 354.279,77.21 C 353.623,75.859 353.294,74.428 353.294,72.919 z M 355.638,72.948 C 355.638,75.018 356.195,76.649 357.308,77.841 C 358.423,79.032 359.82,79.628 361.501,79.628 C 363.212,79.628 364.622,79.026 365.728,77.823 C 366.834,76.62 367.388,74.913 367.388,72.702 C 367.388,71.304 367.152,70.083 366.678,69.04 C 366.204,67.997 365.513,67.188 364.603,66.614 C 363.692,66.04 362.669,65.753 361.537,65.753 C 359.926,65.753 358.541,66.306 357.379,67.411 C 356.218,68.517 355.638,70.362 355.638,72.948 z "
   id="path87" />
</g>
<path
   style="fill:#231f20"
   d="M 345.0384,71.2644 L 346.9384,78.2944 L 320.3384,82.5219 L 319.5309,81.8569 L 321.3834,80.2894 L 345.0384,71.2644 z "
   id="polygon89" />
<path
   style="fill:#231f20"
   d="M 374.8209,58.1069 L 374.8209,59.8169 L 338.7684,50.1269 L 338.3884,49.2244 L 338.3884,48.3694 L 374.8209,58.1069 z "
   id="polygon91" />
<path
   style="fill:#231f20"
   d="M 390.1159,78.7219 L 392.3959,81.8569 L 389.25995,83.5194 L 365.3684,77.1069 L 366.6034,72.4519 L 390.1159,78.7219 z "
   id="polygon93" />
<path
   style="fill:#231f20"
   d="M 412.7259,47.9894 L 409.3534,50.5544 L 374.8209,59.8169 L 374.8209,58.1069 L 412.7259,47.9894 z "
   id="polygon95" />
<path
   style="fill:#231f20"
   d="M 397.4784,79.6719 L 392.3959,81.8569 L 390.1159,78.7219 L 409.3534,50.5544 L 412.7259,47.9894 L 397.4784,79.6719 z "
   id="polygon97" />
<g
   id="g99"
   transform="matrix(0.95,0,0,0.95,12.5023,3.8771)">
	<path
   style="fill:#231f20"
   d="M 314.994,122.869 C 314.994,120.016 315.76,117.784 317.293,116.171 C 318.824,114.557 320.803,113.75 323.225,113.75 C 324.813,113.75 326.243,114.129 327.516,114.887 C 328.79,115.646 329.762,116.702 330.43,118.058 C 331.098,119.414 331.432,120.952 331.432,122.67 C 331.432,124.413 331.08,125.972 330.377,127.347 C 329.674,128.722 328.677,129.764 327.387,130.471 C 326.098,131.178 324.706,131.532 323.213,131.532 C 321.596,131.532 320.149,131.141 318.875,130.36 C 317.601,129.579 316.637,128.511 315.979,127.16 C 315.321,125.809 314.994,124.378 314.994,122.869 z M 317.337,122.898 C 317.337,124.968 317.894,126.599 319.009,127.791 C 320.122,128.982 321.521,129.578 323.2,129.578 C 324.913,129.578 326.321,128.976 327.429,127.773 C 328.534,126.57 329.087,124.863 329.087,122.652 C 329.087,121.254 328.851,120.033 328.378,118.99 C 327.905,117.947 327.213,117.138 326.302,116.564 C 325.392,115.99 324.37,115.703 323.236,115.703 C 321.627,115.703 320.24,116.256 319.08,117.361 C 317.917,118.467 317.337,120.313 317.337,122.898 z "
   id="path101" />
</g>
<path
   style="fill:#231f20"
   d="M 320.3384,109.7394 L 318.72245,109.7394 L 318.72245,81.6194 L 319.5309,81.8569 L 320.3384,82.5219 L 320.3384,109.7394 z "
   id="polygon103" />
<g
   id="g105"
   transform="matrix(0.95,0,0,0.95,12.5023,3.8771)">
	<path
   style="fill:#231f20"
   d="M 269.701,67.435 L 269.701,50.247 L 271.982,50.247 L 271.982,57.31 L 280.873,57.31 L 280.873,50.247 L 283.154,50.247 L 283.154,67.435 L 280.873,67.435 L 280.873,59.341 L 271.982,59.341 L 271.982,67.435 L 269.701,67.435 z "
   id="path107" />
</g>
<g
   id="g109"
   transform="matrix(0.95,0,0,0.95,12.5023,3.8771)">
	<path
   style="fill:#231f20"
   d="M 293.474,70.419 L 293.474,71.935 L 284.943,71.935 C 284.931,71.554 284.993,71.188 285.129,70.836 C 285.348,70.256 285.696,69.685 286.178,69.123 C 286.658,68.561 287.348,67.912 288.247,67.176 C 289.643,66.023 290.59,65.112 291.087,64.442 C 291.585,63.772 291.834,63.137 291.834,62.539 C 291.834,61.913 291.609,61.386 291.158,60.955 C 290.709,60.525 290.122,60.31 289.398,60.31 C 288.632,60.31 288.021,60.539 287.562,60.998 C 287.103,61.457 286.871,62.092 286.865,62.903 L 285.24,62.731 C 285.351,61.515 285.771,60.589 286.5,59.953 C 287.229,59.315 288.206,58.997 289.434,58.997 C 290.672,58.997 291.654,59.34 292.375,60.026 C 293.098,60.712 293.459,61.562 293.459,62.576 C 293.459,63.092 293.354,63.599 293.142,64.097 C 292.93,64.595 292.579,65.12 292.089,65.671 C 291.598,66.222 290.785,66.978 289.649,67.939 C 288.698,68.737 288.087,69.277 287.816,69.562 C 287.545,69.845 287.32,70.131 287.143,70.418 L 293.474,70.418 L 293.474,70.419 z "
   id="path111" />
</g>
<g
   id="g113"
   transform="matrix(0.95,0,0,0.95,12.5023,3.8771)">
	<path
   style="fill:#231f20"
   d="M 295.473,67.435 L 295.473,50.247 L 297.813,50.247 L 306.817,63.736 L 306.817,50.247 L 309.005,50.247 L 309.005,67.435 L 306.665,67.435 L 297.661,53.946 L 297.661,67.435 L 295.473,67.435 z "
   id="path115" />
</g>
<path
   style="fill:#231f20"
   d="M 311.4084,57.2994 L 310.9809,55.7319 L 338.3884,48.3694 L 338.3884,49.2244 L 336.7259,50.5069 L 311.4084,57.2994 z "
   id="polygon117" />
<path
   style="fill:#231f20"
   d="M 428.0684,71.4544 L 428.7809,72.1194 L 428.5434,73.0219 L 389.25995,83.5194 L 392.3959,81.8569 L 397.4784,79.6719 L 428.0684,71.4544 z "
   id="polygon119" />
<g
   id="g121"
   transform="matrix(0.95,0,0,0.95,12.5023,3.8771)">
	<path
   style="fill:#231f20"
   d="M 459.416,109.284 L 459.416,92.097 L 461.756,92.097 L 470.76,105.586 L 470.76,92.097 L 472.948,92.097 L 472.948,109.285 L 470.608,109.285 L 461.604,95.796 L 461.604,109.285 L 459.416,109.285 L 459.416,109.284 z "
   id="path123" />
	<path
   style="fill:#231f20"
   d="M 476.857,109.284 L 476.857,92.097 L 479.138,92.097 L 479.138,99.16 L 488.029,99.16 L 488.029,92.097 L 490.31,92.097 L 490.31,109.285 L 488.029,109.285 L 488.029,101.191 L 479.138,101.191 L 479.138,109.285 L 476.857,109.285 L 476.857,109.284 z "
   id="path125" />
</g>
<g
   id="g127"
   transform="matrix(0.95,0,0,0.95,12.5023,3.8771)">
	<path
   style="fill:#231f20"
   d="M 500.092,112.269 L 500.092,113.785 L 491.561,113.785 C 491.549,113.404 491.611,113.038 491.747,112.686 C 491.965,112.106 492.314,111.535 492.795,110.973 C 493.276,110.411 493.966,109.762 494.865,109.026 C 496.261,107.873 497.207,106.962 497.705,106.292 C 498.203,105.622 498.452,104.987 498.452,104.389 C 498.452,103.763 498.226,103.236 497.777,102.805 C 497.326,102.375 496.74,102.16 496.016,102.16 C 495.25,102.16 494.639,102.389 494.18,102.848 C 493.721,103.307 493.489,103.942 493.483,104.753 L 491.858,104.581 C 491.969,103.365 492.389,102.439 493.118,101.803 C 493.846,101.165 494.824,100.847 496.052,100.847 C 497.291,100.847 498.272,101.19 498.994,101.876 C 499.716,102.562 500.077,103.412 500.077,104.426 C 500.077,104.942 499.971,105.449 499.76,105.947 C 499.549,106.445 499.197,106.97 498.707,107.521 C 498.216,108.072 497.402,108.828 496.267,109.789 C 495.317,110.587 494.705,111.127 494.434,111.412 C 494.163,111.695 493.938,111.981 493.761,112.268 L 500.092,112.268 L 500.092,112.269 z "
   id="path129" />
</g>
<path
   style="fill:#231f20"
   d="M 447.5909,89.74285 L 446.4509,90.8819 L 428.5434,73.0219 L 428.7809,72.1194 L 429.7309,71.8819 L 447.5909,89.74285 z "
   id="polygon131" />
<g
   id="g133"
   transform="matrix(0.95,0,0,0.95,12.5023,3.8771)">
	<path
   style="fill:#231f20"
   d="M 65.144,9.119 C 65.144,6.266 65.91,4.034 67.442,2.421 C 68.974,0.807 70.952,0 73.375,0 C 74.962,0 76.392,0.379 77.666,1.137 C 78.94,1.896 79.911,2.952 80.58,4.308 C 81.249,5.664 81.582,7.202 81.582,8.92 C 81.582,10.663 81.23,12.222 80.527,13.597 C 79.824,14.972 78.827,16.014 77.537,16.721 C 76.247,17.428 74.856,17.782 73.363,17.782 C 71.745,17.782 70.299,17.391 69.025,16.61 C 67.751,15.829 66.786,14.761 66.129,13.41 C 65.472,12.059 65.144,10.628 65.144,9.119 z M 67.488,9.148 C 67.488,11.218 68.045,12.849 69.159,14.041 C 70.273,15.233 71.671,15.828 73.351,15.828 C 75.063,15.828 76.472,15.226 77.579,14.023 C 78.685,12.82 79.238,11.113 79.238,8.902 C 79.238,7.504 79.002,6.283 78.529,5.24 C 78.056,4.197 77.364,3.388 76.453,2.814 C 75.542,2.24 74.52,1.953 73.387,1.953 C 71.777,1.953 70.391,2.506 69.23,3.611 C 68.069,4.716 67.488,6.563 67.488,9.148 z "
   id="path135" />
	<path
   style="fill:#231f20"
   d="M 84.593,17.484 L 84.593,0.297 L 86.874,0.297 L 86.874,7.36 L 95.765,7.36 L 95.765,0.297 L 98.046,0.297 L 98.046,17.485 L 95.765,17.485 L 95.765,9.391 L 86.874,9.391 L 86.874,17.485 L 84.593,17.485 L 84.593,17.484 z "
   id="path137" />
</g>
<path
   style="fill:#231f20"
   d="M 81.3659,22.8619 L 82.9809,22.8619 L 82.9809,48.6069 L 82.17245,49.2244 L 81.3659,48.6069 L 81.3659,22.8619 z "
   id="polygon139" />
<g
   id="g141"
   transform="matrix(0.95,0,0,0.95,12.5023,3.8771)">
	<path
   style="fill:#231f20"
   d="M 45.425,87.484 L 45.425,70.297 L 47.706,70.297 L 47.706,77.36 L 56.597,77.36 L 56.597,70.297 L 58.878,70.297 L 58.878,87.485 L 56.597,87.485 L 56.597,79.391 L 47.706,79.391 L 47.706,87.485 L 45.425,87.485 L 45.425,87.484 z "
   id="path143" />
	<path
   style="fill:#231f20"
   d="M 62.648,87.484 L 62.648,70.297 L 64.988,70.297 L 73.992,83.786 L 73.992,70.297 L 76.18,70.297 L 76.18,87.485 L 73.84,87.485 L 64.836,73.996 L 64.836,87.485 L 62.648,87.485 L 62.648,87.484 z "
   id="path145" />
</g>
<path
   style="fill:#231f20"
   d="M 86.5434,78.8169 L 86.96995,77.2494 L 95.94745,79.6719 L 101.0309,81.8569 L 104.1659,83.5194 L 86.5434,78.8169 z "
   id="polygon147" />
<g
   id="g149"
   transform="matrix(0.95,0,0,0.95,12.5023,3.8771)">
	<path
   style="fill:#231f20"
   d="M 0,67.435 L 0,50.247 L 2.281,50.247 L 2.281,57.31 L 11.172,57.31 L 11.172,50.247 L 13.453,50.247 L 13.453,67.435 L 11.172,67.435 L 11.172,59.341 L 2.281,59.341 L 2.281,67.435 L 0,67.435 z "
   id="path151" />
</g>
<g
   id="g153"
   transform="matrix(0.95,0,0,0.95,12.5023,3.8771)">
	<path
   style="fill:#231f20"
   d="M 15.462,68.528 L 17.04,68.309 C 17.223,69.205 17.532,69.851 17.968,70.247 C 18.405,70.642 18.94,70.84 19.575,70.84 C 20.328,70.84 20.961,70.582 21.474,70.068 C 21.987,69.552 22.243,68.914 22.243,68.152 C 22.243,67.426 22.005,66.828 21.527,66.356 C 21.05,65.884 20.444,65.649 19.708,65.649 C 19.407,65.649 19.033,65.708 18.586,65.825 L 18.763,64.434 C 18.869,64.446 18.954,64.452 19.019,64.452 C 19.693,64.452 20.3,64.277 20.84,63.926 C 21.38,63.575 21.65,63.034 21.65,62.303 C 21.65,61.724 21.453,61.244 21.059,60.865 C 20.665,60.485 20.157,60.295 19.534,60.295 C 18.917,60.295 18.402,60.489 17.991,60.877 C 17.58,61.265 17.315,61.847 17.198,62.623 L 15.62,62.342 C 15.813,61.28 16.254,60.457 16.94,59.874 C 17.626,59.29 18.48,58.998 19.501,58.998 C 20.205,58.998 20.854,59.148 21.446,59.45 C 22.038,59.751 22.491,60.162 22.806,60.682 C 23.119,61.203 23.277,61.755 23.277,62.34 C 23.277,62.896 23.128,63.402 22.829,63.858 C 22.53,64.314 22.088,64.676 21.502,64.946 C 22.264,65.122 22.856,65.487 23.281,66.04 C 23.705,66.595 23.918,67.287 23.918,68.119 C 23.918,69.245 23.507,70.198 22.685,70.98 C 21.863,71.762 20.824,72.154 19.568,72.154 C 18.435,72.154 17.494,71.817 16.746,71.145 C 15.994,70.471 15.567,69.6 15.462,68.528 z "
   id="path155" />
</g>
<g
   id="g157"
   transform="matrix(0.95,0,0,0.95,12.5023,3.8771)">
	<path
   style="fill:#231f20"
   d="M 38.039,61.407 L 40.32,61.981 C 39.844,63.851 38.987,65.277 37.751,66.258 C 36.514,67.239 35.001,67.731 33.214,67.731 C 31.364,67.731 29.86,67.354 28.701,66.599 C 27.542,65.845 26.66,64.751 26.055,63.321 C 25.45,61.89 25.148,60.353 25.148,58.712 C 25.148,56.922 25.489,55.359 26.172,54.026 C 26.855,52.693 27.826,51.679 29.087,50.988 C 30.347,50.297 31.733,49.95 33.247,49.95 C 34.964,49.95 36.407,50.388 37.577,51.264 C 38.748,52.141 39.563,53.372 40.023,54.961 L 37.789,55.488 C 37.391,54.238 36.814,53.328 36.058,52.758 C 35.301,52.188 34.349,51.903 33.203,51.903 C 31.885,51.903 30.783,52.219 29.897,52.852 C 29.012,53.485 28.39,54.334 28.031,55.401 C 27.672,56.468 27.493,57.567 27.493,58.7 C 27.493,60.161 27.705,61.436 28.13,62.526 C 28.555,63.616 29.215,64.43 30.112,64.969 C 31.009,65.508 31.979,65.778 33.024,65.778 C 34.295,65.778 35.37,65.411 36.251,64.676 C 37.132,63.941 37.727,62.853 38.039,61.407 z "
   id="path159" />
</g>
<path
   style="fill:#231f20"
   d="M 55.38245,57.2519 L 54.9559,55.6844 L 81.3659,48.6069 L 82.17245,49.2244 L 81.74495,50.1744 L 55.38245,57.2519 z "
   id="polygon161" />
<g
   id="g163"
   transform="matrix(0.95,0,0,0.95,12.5023,3.8771)">
	<path
   style="fill:#231f20"
   d="M 6.55,115.685 L 6.55,98.497 L 8.831,98.497 L 8.831,105.56 L 17.722,105.56 L 17.722,98.497 L 20.003,98.497 L 20.003,115.685 L 17.722,115.685 L 17.722,107.591 L 8.832,107.591 L 8.832,115.685 L 6.55,115.685 z "
   id="path165" />
</g>
<g
   id="g167"
   transform="matrix(0.95,0,0,0.95,12.5023,3.8771)">
	<path
   style="fill:#231f20"
   d="M 22.012,116.778 L 23.59,116.559 C 23.773,117.455 24.082,118.101 24.518,118.497 C 24.955,118.892 25.49,119.09 26.125,119.09 C 26.878,119.09 27.511,118.832 28.024,118.318 C 28.537,117.802 28.793,117.164 28.793,116.402 C 28.793,115.676 28.555,115.078 28.077,114.606 C 27.6,114.134 26.994,113.899 26.258,113.899 C 25.957,113.899 25.583,113.958 25.136,114.075 L 25.313,112.684 C 25.419,112.696 25.504,112.702 25.569,112.702 C 26.243,112.702 26.85,112.527 27.39,112.176 C 27.93,111.825 28.2,111.284 28.2,110.553 C 28.2,109.974 28.003,109.494 27.609,109.115 C 27.215,108.735 26.707,108.545 26.084,108.545 C 25.467,108.545 24.952,108.739 24.541,109.127 C 24.13,109.515 23.865,110.097 23.748,110.873 L 22.17,110.592 C 22.363,109.53 22.804,108.707 23.49,108.124 C 24.176,107.54 25.03,107.248 26.051,107.248 C 26.755,107.248 27.404,107.398 27.996,107.7 C 28.588,108.001 29.041,108.412 29.356,108.932 C 29.669,109.453 29.827,110.005 29.827,110.59 C 29.827,111.146 29.678,111.652 29.379,112.108 C 29.08,112.564 28.638,112.926 28.052,113.196 C 28.814,113.372 29.406,113.737 29.831,114.29 C 30.255,114.845 30.468,115.537 30.468,116.369 C 30.468,117.495 30.057,118.448 29.235,119.23 C 28.413,120.012 27.374,120.404 26.118,120.404 C 24.985,120.404 24.044,120.067 23.296,119.395 C 22.544,118.721 22.117,117.85 22.012,116.778 z "
   id="path169" />
</g>
<g
   id="g171"
   transform="matrix(0.95,0,0,0.95,12.5023,3.8771)">
	<path
   style="fill:#231f20"
   d="M 44.589,109.657 L 46.87,110.231 C 46.394,112.101 45.537,113.527 44.301,114.508 C 43.064,115.489 41.551,115.981 39.764,115.981 C 37.914,115.981 36.41,115.604 35.251,114.849 C 34.092,114.095 33.21,113.001 32.605,111.571 C 32,110.14 31.698,108.603 31.698,106.962 C 31.698,105.172 32.039,103.609 32.722,102.276 C 33.405,100.943 34.376,99.929 35.637,99.238 C 36.897,98.547 38.283,98.2 39.797,98.2 C 41.514,98.2 42.957,98.638 44.127,99.514 C 45.298,100.391 46.113,101.622 46.573,103.211 L 44.339,103.738 C 43.941,102.488 43.364,101.578 42.608,101.008 C 41.851,100.438 40.899,100.153 39.753,100.153 C 38.435,100.153 37.333,100.469 36.447,101.102 C 35.562,101.735 34.94,102.584 34.581,103.651 C 34.222,104.718 34.043,105.817 34.043,106.95 C 34.043,108.411 34.255,109.686 34.68,110.776 C 35.105,111.866 35.765,112.68 36.662,113.219 C 37.559,113.758 38.529,114.028 39.574,114.028 C 40.845,114.028 41.92,113.661 42.801,112.926 C 43.682,112.191 44.277,111.103 44.589,109.657 z "
   id="path173" />
</g>
<path
   style="fill:#231f20"
   d="M 59.65745,98.1969 L 58.46995,97.0569 L 65.8809,89.5994 L 67.01995,90.7394 L 59.65745,98.1969 z "
   id="polygon175" />
<g
   id="g177"
   transform="matrix(0.95,0,0,0.95,12.5023,3.8771)">
	<path
   style="fill:#231f20"
   d="M 453.931,36.957 L 456.212,37.531 C 455.736,39.401 454.88,40.827 453.644,41.808 C 452.406,42.789 450.894,43.281 449.107,43.281 C 447.257,43.281 445.753,42.904 444.593,42.149 C 443.435,41.395 442.552,40.301 441.948,38.871 C 441.343,37.44 441.04,35.903 441.04,34.262 C 441.04,32.472 441.382,30.909 442.064,29.576 C 442.746,28.243 443.717,27.229 444.979,26.538 C 446.239,25.847 447.625,25.5 449.139,25.5 C 450.856,25.5 452.299,25.938 453.469,26.814 C 454.639,27.691 455.454,28.922 455.914,30.511 L 453.68,31.038 C 453.283,29.788 452.705,28.878 451.95,28.308 C 451.192,27.738 450.241,27.453 449.095,27.453 C 447.777,27.453 446.675,27.769 445.788,28.402 C 444.903,29.035 444.281,29.884 443.923,30.951 C 443.564,32.017 443.384,33.117 443.384,34.25 C 443.384,35.711 443.597,36.986 444.022,38.076 C 444.447,39.166 445.107,39.98 446.003,40.519 C 446.899,41.058 447.87,41.328 448.915,41.328 C 450.186,41.328 451.261,40.961 452.142,40.226 C 453.023,39.491 453.62,38.402 453.931,36.957 z "
   id="path179" />
	<path
   style="fill:#231f20"
   d="M 459.107,42.984 L 459.107,25.797 L 461.388,25.797 L 461.388,32.86 L 470.279,32.86 L 470.279,25.797 L 472.56,25.797 L 472.56,42.985 L 470.279,42.985 L 470.279,34.891 L 461.388,34.891 L 461.388,42.985 L 459.107,42.985 L 459.107,42.984 z "
   id="path181" />
</g>
<g
   id="g183"
   transform="matrix(0.95,0,0,0.95,12.5023,3.8771)">
	<path
   style="fill:#231f20"
   d="M 474.158,44.078 L 475.736,43.859 C 475.919,44.755 476.228,45.401 476.664,45.797 C 477.101,46.192 477.637,46.39 478.271,46.39 C 479.024,46.39 479.658,46.132 480.169,45.618 C 480.683,45.102 480.939,44.464 480.939,43.702 C 480.939,42.976 480.701,42.378 480.223,41.906 C 479.746,41.434 479.14,41.199 478.404,41.199 C 478.103,41.199 477.729,41.258 477.282,41.375 L 477.459,39.984 C 477.564,39.996 477.65,40.002 477.715,40.002 C 478.389,40.002 478.996,39.827 479.536,39.476 C 480.076,39.125 480.346,38.584 480.346,37.853 C 480.346,37.274 480.149,36.794 479.755,36.415 C 479.361,36.036 478.853,35.845 478.23,35.845 C 477.613,35.845 477.098,36.039 476.686,36.427 C 476.275,36.815 476.01,37.397 475.893,38.173 L 474.315,37.892 C 474.508,36.83 474.949,36.007 475.635,35.424 C 476.321,34.84 477.174,34.548 478.196,34.548 C 478.9,34.548 479.549,34.698 480.141,35 C 480.733,35.301 481.186,35.712 481.5,36.232 C 481.813,36.753 481.971,37.305 481.971,37.89 C 481.971,38.446 481.822,38.952 481.523,39.408 C 481.224,39.864 480.782,40.226 480.196,40.496 C 480.958,40.672 481.55,41.037 481.975,41.59 C 482.399,42.145 482.612,42.837 482.612,43.669 C 482.612,44.795 482.201,45.748 481.38,46.53 C 480.558,47.312 479.519,47.704 478.263,47.704 C 477.13,47.704 476.189,47.367 475.441,46.695 C 474.69,46.021 474.263,45.149 474.158,44.078 z "
   id="path185" />
</g>
<path
   style="fill:#231f20"
   d="M 432.1059,45.7094 L 439.13495,47.5619 L 429.7309,71.8819 L 428.7809,72.1194 L 428.0684,71.4544 L 432.1059,45.7094 z "
   id="polygon187" />
</svg>