<?xml version="1.0" encoding="utf-8"?>
<!-- Generator: Adobe Illustrator 27.0.0, SVG Export Plug-In . SVG Version: 6.00 Build 0)  -->
<svg version="1.1" id="Слой_1" xmlns="http://www.w3.org/2000/svg" xmlns:xlink="http://www.w3.org/1999/xlink" x="0px" y="0px"
	 viewBox="0 0 569 307.44" style="enable-background:new 0 0 569 307.44;" xml:space="preserve">
<style type="text/css">
	.st0{fill:none;}
</style>
<path class="st0" d="z"/>
<g>
	<rect x="223.47" y="121.25" width="2.4" height="45.63"/>
	<rect x="261.13" y="177.09" transform="matrix(0.8662 -0.4997 0.4997 0.8662 -51.0989 165.7579)" width="45.63" height="2.4"/>
	<rect x="282.75" y="87.03" transform="matrix(0.5 -0.866 0.866 0.5 46.846 300.8316)" width="2.4" height="45.63"/>
	<polygon points="371.23,216.11 375.12,216.11 375.12,187.48 371.48,187.48 371.48,209.96 356.44,187.48 352.56,187.48 
		352.56,216.11 356.19,216.11 356.19,193.61 	"/>
	<rect x="402.27" y="121.25" width="2.4" height="45.63"/>
	<path d="M356.8,41.85c2.12,1.3,4.53,1.95,7.23,1.95c2.49,0,4.8-0.59,6.95-1.77c2.15-1.18,3.81-2.91,4.98-5.2
		c1.17-2.29,1.76-4.89,1.76-7.79c0-2.87-0.56-5.43-1.67-7.69c-1.11-2.26-2.73-4.02-4.85-5.28c-2.12-1.27-4.51-1.89-7.15-1.89
		c-4.04,0-7.33,1.34-9.88,4.03c-2.55,2.69-3.83,6.41-3.83,11.16c0,2.51,0.55,4.89,1.64,7.15C353.07,38.77,354.67,40.54,356.8,41.85z
		 M357.14,20.2c1.93-1.84,4.24-2.76,6.92-2.76c1.89,0,3.59,0.48,5.11,1.43s2.67,2.3,3.46,4.04s1.18,3.77,1.18,6.11
		c0,3.68-0.92,6.53-2.76,8.54c-1.84,2-4.19,3.01-7.04,3.01c-2.8,0-5.13-0.99-6.98-2.98c-1.86-1.98-2.78-4.7-2.78-8.15
		C354.24,25.11,355.2,22.04,357.14,20.2z"/>
	<path d="M520.84,102.47c-2.12-1.26-4.51-1.89-7.15-1.89c-4.04,0-7.33,1.34-9.88,4.04c-2.55,2.69-3.83,6.41-3.83,11.16
		c0,2.52,0.55,4.9,1.64,7.15c1.09,2.25,2.7,4.03,4.82,5.33c2.12,1.3,4.53,1.95,7.23,1.95c2.49,0,4.8-0.59,6.95-1.77
		c2.15-1.18,3.81-2.91,4.98-5.21c1.17-2.29,1.76-4.89,1.76-7.79c0-2.86-0.56-5.43-1.67-7.68
		C524.58,105.49,522.96,103.73,520.84,102.47z M520.69,123.95c-1.84,2.01-4.19,3.01-7.04,3.01c-2.8,0-5.13-0.99-6.98-2.98
		c-1.86-1.99-2.78-4.7-2.78-8.16c0-4.31,0.97-7.39,2.9-9.23c1.93-1.84,4.24-2.77,6.92-2.77c1.89,0,3.59,0.48,5.11,1.44
		s2.67,2.3,3.46,4.04s1.18,3.77,1.18,6.1C523.46,119.1,522.54,121.95,520.69,123.95z"/>
	<polygon points="551.04,101.08 551.04,112.84 536.15,112.84 536.15,101.08 532.36,101.08 532.36,129.71 536.15,129.71 
		536.15,116.22 551.04,116.22 551.04,129.71 554.83,129.71 554.83,101.08 	"/>
	<path d="M456.56,41.85c2.12,1.3,4.53,1.95,7.23,1.95c2.49,0,4.8-0.59,6.95-1.77c2.15-1.18,3.81-2.91,4.98-5.2
		c1.17-2.29,1.76-4.89,1.76-7.79c0-2.87-0.56-5.43-1.67-7.69c-1.11-2.26-2.73-4.02-4.85-5.28c-2.12-1.27-4.51-1.89-7.15-1.89
		c-4.04,0-7.33,1.34-9.88,4.03c-2.55,2.69-3.83,6.41-3.83,11.16c0,2.51,0.55,4.89,1.64,7.15C452.83,38.77,454.44,40.54,456.56,41.85
		z M456.9,20.2c1.93-1.84,4.24-2.76,6.92-2.76c1.89,0,3.59,0.48,5.11,1.43s2.67,2.3,3.46,4.04s1.18,3.77,1.18,6.11
		c0,3.68-0.92,6.53-2.76,8.54c-1.84,2-4.19,3.01-7.04,3.01c-2.8,0-5.13-0.99-6.98-2.98c-1.86-1.98-2.78-4.7-2.78-8.15
		C454,25.11,454.97,22.04,456.9,20.2z"/>
	<path d="M470.11,49.58h-2.4v37.8l-3.98-2.3l-3.98,2.3v-37.8h-2.4v39.19l-43.5,25.11l-43.5-25.11V49.58h-2.4v37.8l-3.98-2.3
		l-3.98,2.3v-37.8h-2.4v39.19l-43.5,25.11l-49.88-28.8l-49.88,28.8L177.27,92.5l-1.2,2.08l37.03,21.38v56.22l-29.18,16.85l1.2,2.08
		l29.18-16.85l48.68,28.11v35.62h2.4v-35.62l48.68-28.11l28.97,16.73l1.2-2.08l-28.97-16.73v-56.22l48.68-28.11l48.68,28.11v56.22
		l-29.19,16.85l1.2,2.08l30.39-17.54v-57.6l48.68-28.11l31.25,18.04l1.2-2.08l-26.06-15.05V49.58z M264.19,200.28l-48.68-28.11
		v-56.22l48.68-28.11l48.68,28.11v56.22L264.19,200.28z"/>
	<polygon points="365.15,222.38 362.75,222.38 362.75,258.58 314.07,286.68 282.77,268.61 281.57,270.69 314.07,289.45 
		363.9,260.69 410.84,293.26 416.84,282.87 365.15,258.51 	"/>
	<polygon points="159.28,87.9 172.71,87.9 172.71,84.53 159.28,84.53 159.28,75.66 174.8,75.66 174.8,72.28 155.49,72.28 
		155.49,100.91 159.28,100.91 	"/>
	<polygon points="171.95,209.96 156.91,187.48 153.02,187.48 153.02,216.11 156.66,216.11 156.66,193.61 171.7,216.11 
		175.58,216.11 175.58,187.48 171.95,187.48 	"/>
	<polygon points="72.18,267.56 57.15,245.08 53.26,245.08 53.26,273.71 56.89,273.71 56.89,251.21 71.93,273.71 75.82,273.71 
		75.82,245.08 72.18,245.08 	"/>
	<polygon points="65.86,202.36 114.54,174.25 143.51,190.98 144.71,188.9 114.54,171.48 63.46,200.98 63.46,238.58 65.86,238.58 	
		"/>
	<polygon points="163.22,258.58 114.54,286.68 85.36,269.84 84.16,271.92 114.54,289.45 165.62,259.96 165.62,222.38 163.22,222.38 
			"/>
	<rect x="12.49" y="278.33" transform="matrix(0.8662 -0.4997 0.4997 0.8662 -135.727 52.1688)" width="34.13" height="2.4"/>
	<path d="M271.43,246.47c-2.12-1.26-4.51-1.89-7.15-1.89c-4.04,0-7.33,1.34-9.88,4.04c-2.55,2.69-3.83,6.41-3.83,11.16
		c0,2.52,0.55,4.9,1.64,7.15c1.09,2.25,2.7,4.03,4.82,5.33c2.12,1.3,4.53,1.95,7.23,1.95c2.49,0,4.8-0.59,6.95-1.77
		c2.15-1.18,3.81-2.91,4.98-5.21c1.17-2.29,1.76-4.89,1.76-7.79c0-2.86-0.56-5.43-1.67-7.68
		C275.17,249.49,273.55,247.73,271.43,246.47z M271.28,267.95c-1.84,2.01-4.19,3.01-7.04,3.01c-2.8,0-5.13-0.99-6.98-2.98
		c-1.86-1.99-2.78-4.7-2.78-8.16c0-4.31,0.97-7.39,2.9-9.23c1.93-1.84,4.24-2.77,6.92-2.77c1.89,0,3.59,0.48,5.11,1.44
		s2.67,2.3,3.46,4.04s1.18,3.77,1.18,6.1C274.04,263.1,273.12,265.95,271.28,267.95z"/>
</g>
<path class="st0" d="z"/>
</svg>
