<?xml version="1.0" encoding="utf-8"?>
<!-- Generator: Adobe Illustrator 21.0.0, SVG Export Plug-In . SVG Version: 6.00 Build 0)  -->
<svg version="1.1" id="Слой_1" xmlns="http://www.w3.org/2000/svg" xmlns:xlink="http://www.w3.org/1999/xlink" x="0px" y="0px"
	 viewBox="0 0 582.3 307.5" style="enable-background:new 0 0 582.3 307.5;" xml:space="preserve">
<g>
	<path d="M415.6,120.2l47.6-27.5l0,0l1.1-0.7l32.8,18.9l1.2-2.1L470.7,93V54h-2.4v37.6l-1.7-1l0,0l-2.4-1.3l-0.7,0.4l-3.2,1.9V54
		h-2.4v38.9l-43.5,25.1L370.9,93V54h-2.4v37.6l-1.7-1l0,0l-2.4-1.3l-0.8,0.5l-3.1,1.8V54h-2.4v38.9l-41.9,24.2l6-34.3H307l6,34.3
		L266,90V54h-2.4V90l-48.7,28.1L171.4,93V54H169v37.6l-3.2-1.8l-0.8-0.5l-0.7,0.4l-3.3,1.9V54h-2.4V93l-43.5,25.1L66.4,90V54H64V90
		l-47.6,27.5l0,0l-1.6,0.9l-0.1,0.1l0,0l-0.6,0.3v0.7v2v53.6v2v0.7l0.6,0.3l0,0l0.1,0.1l1.6,0.9l0,0L64,206.5v35.7h2.4v-35.7
		l48.7-28.1l49.3,28.5l0,0l0.6,0.3l0.6-0.3l47.7-27.5l-6,34.1h15.2l-6-34.1l47.7,27.5l0,0l0.6,0.3l0.6-0.3l47.7-27.5l-6,34.1h15.2
		l-6-34.1l47,27.1l-6.3,35.8h15.2l-6.3-35.8l48.6-28l31.4,18.1l1.2-2.1l-31.4-18.1V120.2z M113.9,176.4l-48.7,28.1l-48.7-28.1v-1.3
		v-53.6v-1.3L65.2,92l48.7,28.1V176.4z M213.7,176.4l-47.6,27.5l0,0l-1.1,0.7l-1.1-0.7l0,0l-47.6-27.5v-56.2l47.6-27.5l0,0L165,92
		l1.1,0.6l0,0l47.6,27.5V176.4z M313.4,176.4l-47.6,27.5l0,0l-1.1,0.7l-1.1-0.7l0,0l-47.6-27.5v-56.2L264.8,92l48.7,28.1V176.4z
		 M364.5,205.9L364.5,205.9L364.5,205.9L364.5,205.9z M413.2,176.4l-48.7,28.1l-48.7-28.1v-56.2l47.6-27.5l0,0l1.1-0.6l48.7,28.1
		V176.4z"/>
	<rect x="402.8" y="125.5" width="2.4" height="45.6"/>
	<rect x="222.2" y="112.8" transform="matrix(0.8661 -0.4998 0.4998 0.8661 -24.1993 137.7236)" width="45.6" height="2.4"/>
	<rect x="62.2" y="181.3" transform="matrix(0.8661 -0.4998 0.4998 0.8661 -79.8254 66.9149)" width="45.6" height="2.4"/>
	<rect x="24.5" y="125.5" width="2.4" height="45.6"/>
	<rect x="83.8" y="91.2" transform="matrix(0.4998 -0.8661 0.8661 0.4998 -56.2532 130.6652)" width="2.4" height="45.6"/>
	<rect x="396.5" y="263.4" transform="matrix(0.5004 -0.8658 0.8658 0.5004 -45.9878 485.5379)" width="2.4" height="38.5"/>
	<rect x="312.1" y="281.4" transform="matrix(0.8661 -0.4998 0.4998 0.8661 -96.9028 203.4355)" width="38.5" height="2.4"/>
	<rect x="12.8" y="281.4" transform="matrix(0.8661 -0.4998 0.4998 0.8661 -136.9669 53.8508)" width="38.5" height="2.4"/>
	<rect x="97.2" y="263.4" transform="matrix(0.5004 -0.8658 0.8658 0.5004 -195.5058 226.4324)" width="2.4" height="38.5"/>
	<polygon points="521.6,127 521.5,127 507.1,104.7 503.2,104.7 503.2,133.3 506.8,133.3 506.8,110.9 506.9,110.9 521.3,133.3 
		525.2,133.3 525.2,104.7 521.6,104.7 	"/>
	<polygon points="547,116.4 533,116.4 533,104.7 529.2,104.7 529.2,133.3 533,133.3 533,119.8 547,119.8 547,133.3 550.8,133.3 
		550.8,104.7 547,104.7 	"/>
	<path d="M558.2,137.3c0.5-0.8,1.1-1.4,1.1-1.4c0.7-0.7,1.8-1.6,1.8-1.6l1.8-1.5c2.6-2.1,3.8-3.9,3.8-3.9c1.2-1.8,1.2-3.7,1.2-3.7
		c0-1.5-0.8-2.8-0.8-2.8c-0.7-1.2-2.2-2-2.2-2c-1.4-0.7-3.3-0.7-3.3-0.7c-1.8,0-3.2,0.7-3.2,0.7c-1.4,0.7-2.2,2-2.2,2
		c-0.8,1.2-1,3-1,3l2.6,0.4c0.1-2,1.2-3,1.2-3c1-1,2.8-1,2.8-1c1.1,0,1.9,0.4,1.9,0.4c0.9,0.4,1.4,1.2,1.4,1.2
		c0.5,0.8,0.5,1.7,0.5,1.7c0,1.4-1.1,2.9-1.1,2.9c-1,1.5-3.3,3.4-3.3,3.4l-1.6,1.3c-2.4,2-3.6,3.6-3.6,3.6c-1.2,1.6-1.2,3.4-1.2,3.4
		h13.3v-2.4H558.2z"/>
	<path d="M457.3,45.8c3.1,1.8,7,1.8,7,1.8c3.9,0,7-1.8,7-1.8c3.1-1.8,4.9-5.2,4.9-5.2c1.8-3.4,1.8-7.8,1.8-7.8
		c0-4.5-1.8-7.8-1.8-7.8c-1.8-3.3-4.9-5.2-4.9-5.2c-3.1-1.8-7-1.8-7-1.8c-3.9,0-7,1.8-7,1.8c-3.1,1.8-4.9,5.2-4.9,5.2
		c-1.8,3.4-1.8,7.8-1.8,7.8c0,4.3,1.8,7.7,1.8,7.7C454.2,43.9,457.3,45.8,457.3,45.8z M455.8,26.7c1.2-2.6,3.4-4,3.4-4
		c2.2-1.4,5.1-1.4,5.1-1.4c2.9,0,5.1,1.4,5.1,1.4c2.2,1.4,3.4,4,3.4,4c1.2,2.6,1.2,6.2,1.2,6.2c0,3.6-1.2,6.2-1.2,6.2
		c-1.3,2.6-3.5,4-3.5,4c-2.2,1.4-5.1,1.4-5.1,1.4c-2.8,0-5-1.4-5-1.4c-2.2-1.4-3.5-4-3.5-4c-1.2-2.6-1.2-6.1-1.2-6.1
		C454.5,29.3,455.8,26.7,455.8,26.7z"/>
	<path d="M357.5,45.8c3.1,1.8,7,1.8,7,1.8c3.9,0,7-1.8,7-1.8c3.1-1.8,4.9-5.2,4.9-5.2c1.8-3.4,1.8-7.8,1.8-7.8
		c0-4.5-1.8-7.8-1.8-7.8c-1.8-3.3-4.9-5.2-4.9-5.2c-3.1-1.8-7-1.8-7-1.8c-3.9,0-7,1.8-7,1.8c-3.1,1.8-4.9,5.2-4.9,5.2
		c-1.8,3.4-1.8,7.8-1.8,7.8c0,4.3,1.8,7.7,1.8,7.7C354.4,43.9,357.5,45.8,357.5,45.8z M356,26.7c1.2-2.6,3.4-4,3.4-4
		c2.2-1.4,5.1-1.4,5.1-1.4c2.9,0,5.1,1.4,5.1,1.4c2.2,1.4,3.4,4,3.4,4c1.2,2.6,1.2,6.2,1.2,6.2c0,3.6-1.3,6.2-1.3,6.2
		c-1.2,2.6-3.4,4-3.4,4c-2.2,1.4-5.1,1.4-5.1,1.4c-2.8,0-5-1.4-5-1.4c-2.2-1.4-3.5-4-3.5-4c-1.2-2.6-1.2-6.1-1.2-6.1
		C354.8,29.3,356,26.7,356,26.7z"/>
	<path d="M471.3,192.6c-3.1-1.8-7-1.8-7-1.8c-3.9,0-7,1.8-7,1.8c-3.1,1.8-4.9,5.2-4.9,5.2c-1.8,3.4-1.8,7.8-1.8,7.8
		c0,4.3,1.8,7.7,1.8,7.7c1.8,3.4,4.9,5.2,4.9,5.2c3.1,1.8,7,1.8,7,1.8c3.9,0,7-1.8,7-1.8c3.1-1.8,4.9-5.2,4.9-5.2
		c1.8-3.4,1.8-7.8,1.8-7.8c0-4.5-1.8-7.8-1.8-7.8C474.4,194.5,471.3,192.6,471.3,192.6z M472.8,211.9c-1.3,2.6-3.5,4-3.5,4
		c-2.2,1.4-5.1,1.4-5.1,1.4c-2.8,0-5-1.4-5-1.4c-2.2-1.4-3.5-4-3.5-4c-1.2-2.6-1.2-6.1-1.2-6.1c0-3.6,1.2-6.3,1.2-6.3
		c1.2-2.6,3.4-4,3.4-4c2.2-1.4,5.1-1.4,5.1-1.4c2.9,0,5.1,1.4,5.1,1.4c2.2,1.4,3.4,4,3.4,4c1.2,2.6,1.2,6.2,1.2,6.2
		C474.1,209.3,472.8,211.9,472.8,211.9z"/>
	<polygon points="499.9,203.1 485.8,203.1 485.8,191.3 482,191.3 482,219.9 485.8,219.9 485.8,206.5 499.9,206.5 499.9,219.9 
		503.7,219.9 503.7,191.3 499.9,191.3 	"/>
	<path d="M257.8,45.8c3.1,1.8,7,1.8,7,1.8c3.9,0,7-1.8,7-1.8c3.1-1.8,4.9-5.2,4.9-5.2c1.8-3.4,1.8-7.8,1.8-7.8
		c0-4.5-1.8-7.8-1.8-7.8c-1.8-3.3-4.9-5.2-4.9-5.2c-3.1-1.8-7-1.8-7-1.8c-3.9,0-7,1.8-7,1.8c-3.2,1.8-4.9,5.2-4.9,5.2
		c-1.8,3.4-1.8,7.8-1.8,7.8c0,4.3,1.8,7.7,1.8,7.7C254.6,43.9,257.8,45.8,257.8,45.8z M256.2,26.7c1.2-2.6,3.4-4,3.4-4
		c2.2-1.4,5.1-1.4,5.1-1.4c2.9,0,5.1,1.4,5.1,1.4c2.2,1.4,3.4,4,3.4,4c1.2,2.6,1.2,6.2,1.2,6.2c0,3.6-1.3,6.2-1.3,6.2
		c-1.2,2.6-3.4,4-3.4,4c-2.2,1.4-5.1,1.4-5.1,1.4c-2.8,0-5-1.4-5-1.4c-2.2-1.4-3.5-4-3.5-4c-1.2-2.6-1.2-6.1-1.2-6.1
		C255,29.3,256.2,26.7,256.2,26.7z"/>
	<polygon points="229.2,33.7 243.2,33.7 243.2,47.1 247.1,47.1 247.1,18.5 243.2,18.5 243.2,30.3 229.2,30.3 229.2,18.5 225.4,18.5 
		225.4,47.1 229.2,47.1 	"/>
	<path d="M307.6,74.6c3.1,1.8,7,1.8,7,1.8c3.9,0,7-1.8,7-1.8c3.1-1.8,4.9-5.2,4.9-5.2c1.8-3.4,1.8-7.8,1.8-7.8
		c0-4.5-1.8-7.8-1.8-7.8c-1.8-3.3-4.9-5.2-4.9-5.2c-3.1-1.8-7-1.8-7-1.8c-3.9,0-7,1.8-7,1.8c-3.1,1.8-4.9,5.2-4.9,5.2
		c-1.8,3.4-1.8,7.8-1.8,7.8c0,4.3,1.8,7.7,1.8,7.7C304.5,72.7,307.6,74.6,307.6,74.6z M306.1,55.5c1.2-2.6,3.4-4,3.4-4
		c2.2-1.4,5.1-1.4,5.1-1.4c2.9,0,5.1,1.4,5.1,1.4c2.2,1.4,3.4,4,3.4,4c1.2,2.6,1.2,6.2,1.2,6.2c0,3.6-1.3,6.2-1.3,6.2
		c-1.2,2.6-3.4,4-3.4,4c-2.2,1.4-5.1,1.4-5.1,1.4c-2.8,0-5-1.4-5-1.4c-2.2-1.4-3.5-4-3.5-4c-1.2-2.6-1.2-6.1-1.2-6.1
		C304.9,58.1,306.1,55.5,306.1,55.5z"/>
	<polygon points="307.6,29.3 321.7,29.3 321.7,42.8 325.5,42.8 325.5,14.2 321.7,14.2 321.7,25.9 307.6,25.9 307.6,14.2 303.8,14.2 
		303.8,42.8 307.6,42.8 	"/>
	<polygon points="321.7,248.5 325.5,248.5 325.5,219.9 321.7,219.9 321.7,231.6 307.6,231.6 307.6,219.9 303.8,219.9 303.8,248.5 
		307.6,248.5 307.6,235 321.7,235 	"/>
	<polygon points="371.9,271 371.8,271 357.5,248.7 353.6,248.7 353.6,277.3 357.2,277.3 357.2,254.9 357.2,254.9 371.6,277.3 
		375.5,277.3 375.5,248.7 371.9,248.7 	"/>
	<polygon points="221.9,231.6 207.8,231.6 207.8,219.9 204,219.9 204,248.5 207.8,248.5 207.8,235 221.9,235 221.9,248.5 
		225.7,248.5 225.7,219.9 221.9,219.9 	"/>
	<path d="M158,45.8c3.2,1.8,7.1,1.8,7.1,1.8c3.9,0,7-1.8,7-1.8c3.1-1.8,4.9-5.2,4.9-5.2c1.8-3.4,1.8-7.8,1.8-7.8
		c0-4.5-1.8-7.8-1.8-7.8c-1.8-3.3-4.9-5.2-4.9-5.2c-3.1-1.8-7-1.8-7-1.8c-3.9,0-7,1.8-7,1.8c-3.2,1.8-4.9,5.2-4.9,5.2
		c-1.8,3.4-1.8,7.8-1.8,7.8c0,4.3,1.8,7.7,1.8,7.7C154.8,43.9,158,45.8,158,45.8z M156.4,26.7c1.2-2.6,3.5-4,3.5-4
		c2.2-1.4,5.1-1.4,5.1-1.4c2.9,0,5.1,1.4,5.1,1.4c2.2,1.4,3.5,4,3.5,4c1.2,2.6,1.2,6.2,1.2,6.2c0,3.6-1.2,6.2-1.2,6.2
		c-1.2,2.6-3.5,4-3.5,4c-2.2,1.4-5,1.4-5,1.4c-2.8,0-5-1.4-5-1.4c-2.2-1.4-3.5-4-3.5-4c-1.2-2.6-1.2-6.1-1.2-6.1
		C155.2,29.3,156.4,26.7,156.4,26.7z"/>
	<path d="M58.2,45.8c3.1,1.8,7.1,1.8,7.1,1.8c3.9,0,7-1.8,7-1.8c3.1-1.8,4.9-5.2,4.9-5.2c1.8-3.4,1.8-7.8,1.8-7.8
		c0-4.5-1.8-7.8-1.8-7.8c-1.8-3.3-4.9-5.2-4.9-5.2c-3.1-1.8-7-1.8-7-1.8c-3.9,0-7,1.8-7,1.8c-3.2,1.8-4.9,5.2-4.9,5.2
		c-1.8,3.4-1.8,7.8-1.8,7.8c0,4.3,1.8,7.7,1.8,7.7C55.1,43.9,58.2,45.8,58.2,45.8z M56.7,26.7c1.2-2.6,3.4-4,3.4-4
		c2.2-1.4,5.1-1.4,5.1-1.4c2.9,0,5.1,1.4,5.1,1.4c2.2,1.4,3.4,4,3.4,4c1.2,2.6,1.2,6.2,1.2,6.2c0,3.6-1.2,6.2-1.2,6.2
		c-1.2,2.6-3.5,4-3.5,4c-2.2,1.4-5,1.4-5,1.4c-2.8,0-5.1-1.4-5.1-1.4c-2.2-1.4-3.4-4-3.4-4c-1.3-2.6-1.3-6.1-1.3-6.1
		C55.4,29.3,56.7,26.7,56.7,26.7z"/>
	<polygon points="86.8,33.7 100.8,33.7 100.8,47.1 104.6,47.1 104.6,18.5 100.8,18.5 100.8,30.3 86.8,30.3 86.8,18.5 82.9,18.5 
		82.9,47.1 86.8,47.1 	"/>
	<polygon points="72.6,271 72.5,271 58.2,248.7 54.2,248.7 54.2,277.3 57.8,277.3 57.8,254.9 57.9,254.9 72.3,277.3 76.2,277.3 
		76.2,248.7 72.6,248.7 	"/>
</g>
</svg>
