<?xml version="1.0" encoding="utf-8"?>
<!-- Generator: Adobe Illustrator 27.0.0, SVG Export Plug-In . SVG Version: 6.00 Build 0)  -->
<svg version="1.1" id="Слой_1" xmlns="http://www.w3.org/2000/svg" xmlns:xlink="http://www.w3.org/1999/xlink" x="0px" y="0px"
	 viewBox="0 0 610.72 360.72" style="enable-background:new 0 0 610.72 360.72;" xml:space="preserve">
<style type="text/css">
	.st0{fill:none;}
</style>
<path class="st0" d="z"/>
<g>
	<rect x="265.19" y="121.26" width="2.4" height="45.63"/>
	<rect x="302.85" y="177.09" transform="matrix(0.8662 -0.4997 0.4997 0.8662 -45.517 186.5888)" width="45.63" height="2.4"/>
	<rect x="324.47" y="87.03" transform="matrix(0.5 -0.866 0.866 0.5 67.7053 336.9641)" width="2.4" height="45.63"/>
	<polygon points="412.95,216.11 416.84,216.11 416.84,187.48 413.2,187.48 413.2,209.96 398.16,187.48 394.28,187.48 394.28,216.11 
		397.91,216.11 397.91,193.61 	"/>
	<rect x="443.99" y="121.26" width="2.4" height="45.63"/>
	<path d="M398.52,41.85c2.12,1.3,4.53,1.95,7.23,1.95c2.49,0,4.8-0.59,6.95-1.77s3.81-2.91,4.98-5.21s1.76-4.89,1.76-7.79
		c0-2.87-0.55-5.43-1.67-7.69s-2.73-4.02-4.86-5.28c-2.12-1.26-4.5-1.89-7.15-1.89c-4.04,0-7.33,1.34-9.88,4.03
		c-2.55,2.69-3.83,6.41-3.83,11.16c0,2.51,0.55,4.9,1.64,7.15S396.4,40.55,398.52,41.85z M398.86,20.2
		c1.93-1.84,4.24-2.76,6.92-2.76c1.89,0,3.59,0.48,5.11,1.44c1.52,0.96,2.67,2.3,3.46,4.04c0.79,1.74,1.18,3.77,1.18,6.1
		c0,3.69-0.92,6.53-2.76,8.54c-1.84,2.01-4.19,3.01-7.04,3.01c-2.8,0-5.12-0.99-6.98-2.98s-2.79-4.7-2.79-8.15
		C395.96,25.12,396.93,22.04,398.86,20.2z"/>
	<path d="M562.56,102.47c-2.12-1.26-4.51-1.89-7.15-1.89c-4.04,0-7.33,1.34-9.88,4.03c-2.55,2.69-3.83,6.41-3.83,11.16
		c0,2.52,0.55,4.9,1.64,7.15s2.7,4.03,4.82,5.33c2.12,1.3,4.53,1.95,7.23,1.95c2.48,0,4.8-0.59,6.95-1.77
		c2.15-1.18,3.81-2.91,4.98-5.2s1.76-4.89,1.76-7.79c0-2.86-0.56-5.43-1.67-7.68C566.3,105.49,564.68,103.73,562.56,102.47z
		 M562.41,123.95c-1.84,2-4.19,3.01-7.04,3.01c-2.8,0-5.13-0.99-6.98-2.98c-1.86-1.98-2.78-4.7-2.78-8.15c0-4.31,0.96-7.39,2.9-9.23
		c1.93-1.84,4.24-2.76,6.93-2.76c1.89,0,3.59,0.48,5.11,1.43c1.52,0.96,2.67,2.3,3.46,4.05c0.79,1.73,1.18,3.77,1.18,6.1
		C565.18,119.11,564.26,121.95,562.41,123.95z"/>
	<polygon points="592.76,101.08 592.76,112.84 577.88,112.84 577.88,101.08 574.09,101.08 574.09,129.71 577.88,129.71 
		577.88,116.22 592.76,116.22 592.76,129.71 596.55,129.71 596.55,101.08 	"/>
	<path d="M498.28,41.85c2.12,1.3,4.53,1.95,7.23,1.95c2.49,0,4.8-0.59,6.95-1.77s3.81-2.91,4.98-5.21s1.76-4.89,1.76-7.79
		c0-2.87-0.55-5.43-1.67-7.69s-2.73-4.02-4.86-5.28c-2.12-1.26-4.5-1.89-7.15-1.89c-4.04,0-7.33,1.34-9.88,4.03
		c-2.55,2.69-3.83,6.41-3.83,11.16c0,2.51,0.55,4.9,1.64,7.15S496.16,40.55,498.28,41.85z M498.63,20.2
		c1.93-1.84,4.24-2.76,6.92-2.76c1.89,0,3.59,0.48,5.11,1.44c1.52,0.96,2.67,2.3,3.46,4.04c0.79,1.74,1.18,3.77,1.18,6.1
		c0,3.69-0.92,6.53-2.76,8.54c-1.84,2.01-4.19,3.01-7.04,3.01c-2.8,0-5.12-0.99-6.98-2.98s-2.79-4.7-2.79-8.15
		C495.72,25.12,496.69,22.04,498.63,20.2z"/>
	<path d="M511.83,49.58h-2.4v37.8l-3.98-2.3l-3.98,2.3v-37.8h-2.4v39.19l-43.5,25.11l-43.5-25.11V49.58h-2.4v37.8l-3.98-2.3
		l-3.98,2.3v-37.8h-2.4v39.19l-43.5,25.11l-49.88-28.8l-49.88,28.8L218.99,92.5l-1.2,2.08l37.03,21.38v56.19l-31.11,16.76l1.14,2.11
		l31.15-16.78l48.7,28.12v35.62h2.4v-35.62l48.68-28.11l28.97,16.73l1.2-2.08l-28.97-16.73v-56.22l48.68-28.11l48.68,28.11v56.22
		l-29.19,16.85l1.2,2.08l30.39-17.54v-57.6l48.68-28.11l31.25,18.04l1.2-2.08l-26.06-15.05V49.58z M305.91,200.28l-48.68-28.11
		v-56.22l48.68-28.11l48.68,28.11v56.22L305.91,200.28z"/>
	<polygon points="197.21,100.91 201,100.91 201,87.91 214.43,87.91 214.43,84.53 201,84.53 201,75.66 216.52,75.66 216.52,72.28 
		197.21,72.28 	"/>
	<path d="M406.88,222.38h-2.4v36.57l-29.68,51.4h61.76l-29.68-51.4V222.38z M432.4,307.95h-53.44l26.72-46.28L432.4,307.95z"/>
	<path d="M313.15,246.47c-2.12-1.26-4.5-1.89-7.15-1.89c-4.04,0-7.33,1.34-9.88,4.03c-2.55,2.69-3.83,6.41-3.83,11.16
		c0,2.52,0.55,4.9,1.64,7.15s2.7,4.03,4.82,5.33c2.12,1.3,4.53,1.95,7.23,1.95c2.49,0,4.8-0.59,6.95-1.77
		c2.15-1.18,3.81-2.91,4.98-5.2s1.76-4.89,1.76-7.79c0-2.86-0.55-5.43-1.67-7.68C316.89,249.49,315.27,247.73,313.15,246.47z
		 M313,267.95c-1.84,2-4.19,3.01-7.04,3.01c-2.8,0-5.12-0.99-6.98-2.98c-1.86-1.98-2.79-4.7-2.79-8.15c0-4.31,0.97-7.39,2.9-9.23
		c1.93-1.84,4.24-2.76,6.92-2.76c1.89,0,3.59,0.48,5.11,1.43c1.52,0.96,2.67,2.3,3.46,4.05c0.79,1.73,1.18,3.77,1.18,6.1
		C315.76,263.11,314.84,265.95,313,267.95z"/>
	<polygon points="211.57,209.16 196.53,186.68 192.64,186.68 192.64,215.32 196.27,215.32 196.27,192.82 211.31,215.32 
		215.2,215.32 215.2,186.68 211.57,186.68 	"/>
	<polygon points="184.58,254.17 128.73,253.35 112.26,199.98 157.92,167.82 184.01,187.37 185.45,185.44 157.97,164.85 
		110.6,198.21 54.28,185.37 14.17,228.62 31.57,284.98 69.06,293.53 69.59,291.19 33.46,282.95 16.88,229.23 55.1,188.02 
		109.91,200.51 126.49,254.23 104.43,278.02 106.19,279.65 128.36,255.74 186.29,256.6 197.54,223.63 195.27,222.86 	"/>
	<polygon points="80.91,288.71 95.95,311.21 99.83,311.21 99.83,282.58 96.2,282.58 96.2,305.06 81.16,282.58 77.28,282.58 
		77.28,311.21 80.91,311.21 	"/>
	<polygon points="96.1,329.67 81.22,329.67 81.22,317.91 77.43,317.91 77.43,346.55 81.22,346.55 81.22,333.05 96.1,333.05 
		96.1,346.55 99.89,346.55 99.89,317.91 96.1,317.91 	"/>
	<polygon points="86.41,145.41 101.29,145.41 101.29,158.91 105.08,158.91 105.08,130.27 101.29,130.27 101.29,142.03 86.41,142.03 
		86.41,130.27 82.62,130.27 82.62,158.91 86.41,158.91 	"/>
	<polygon points="96.18,170.71 106.74,167.45 106.49,165.02 95.02,168.56 	"/>
	<polygon points="101.47,180.5 107.89,178.52 107.64,176.08 100.31,178.35 	"/>
	<polygon points="106.75,190.29 109.05,189.58 108.79,187.15 105.59,188.14 	"/>
	<polygon points="152.26,307.14 137.38,307.14 137.38,295.39 133.59,295.39 133.59,324.02 137.38,324.02 137.38,310.52 
		152.26,310.52 152.26,324.02 156.05,324.02 156.05,295.39 152.26,295.39 	"/>
	<polygon points="142.51,283.32 131.95,286.58 132.21,289.01 143.67,285.47 	"/>
	<polygon points="137.23,273.53 130.8,275.52 131.05,277.95 138.39,275.69 	"/>
	<polygon points="131.94,263.75 129.65,264.45 129.9,266.89 133.1,265.9 	"/>
	<rect x="253.42" y="278.17" transform="matrix(0.8597 -0.5107 0.5107 0.8597 -104.5282 178.1155)" width="37.22" height="2.4"/>
</g>
<path class="st0" d="z"/>
</svg>
