<?xml version="1.0" encoding="UTF-8" standalone="no"?><!-- Created with Inkscape (http://www.inkscape.org/) --><svg xmlns="http://www.w3.org/2000/svg" xmlns:xlink="http://www.w3.org/1999/xlink" width="490" height="190"><path d="M 72.009325,75.577699 L 71.571825,76.546449 L 85.978075,106.42145 L 90.853075,108.2027 L 94.415575,109.79645 L 127.72807,100.85895 L 127.29057,98.483949 L 130.69682,102.79645 L 162.85307,108.92145 L 163.66557,108.2027 L 161.91557,106.73395 L 129.41557,95.390199 L 93.134325,105.1402 L 73.884325,76.921449 L 72.009325,75.577699 z M 401.04057,75.577699 L 399.13432,76.921449 L 379.94682,105.1402 L 356.41557,98.827699 L 355.19682,103.5152 L 379.04057,109.92145 L 382.16557,108.2027 L 387.25932,106.04645 L 401.44682,76.546449 L 401.04057,75.577699 z M 334.85307,97.640199 L 311.19682,106.7027 L 309.35307,108.2027 L 310.16557,108.92145 L 336.72807,104.6402 L 334.85307,97.640199 z M 200.10307,136.2027 L 199.66557,137.1402 L 214.07182,167.0152 L 218.97807,168.8277 L 222.54057,170.3902 L 252.79057,162.2652 L 291.82182,169.67145 L 291.79057,168.8277 L 289.97807,167.35895 L 257.54057,156.0152 L 221.19682,165.73395 L 202.00932,137.5152 L 200.10307,136.2027 z" fill="#000" /><path d="M 108.4043,85.237224 L 89.616005,52.694934 L 102.8125,29.837945 M 45.237745,82.778358 L 72.232715,75.545077 L 108.4043,85.237224 L 134.81857,78.159543 M 150.57352,85.409475 L 163.73353,108.2033 L 163.73353,136.15544 M 94.585445,108.99742 L 78.270495,104.62584 M 272.88918,136.06297 L 291.77636,168.77651 L 318.90675,161.50694 M 236.44473,145.82823 L 223.37176,123.18517 M 222.62586,169.58843 L 206.31092,165.21685 M 173.27818,143.36936 L 200.27314,136.13608 L 236.44473,145.82823 L 272.88918,136.06297 L 299.83942,143.28426 M 427.80685,82.913537 L 400.81189,75.680257 L 364.64029,85.372407 L 328.19585,75.607147 L 301.24561,82.828437 M 328.19585,75.607147 L 309.30867,108.32069 L 309.30867,136.1502 M 378.45916,109.13261 L 418.53526,98.394235 L 436.77947,116.63844 M 141.18225,122.57678 L 127.40825,98.719513" style="fill:none;stroke:#000;stroke-width:1.6" /><text x="135.85524" y="84.636322" id="O" style="font-size:23px;font-family:Arial">O</text><use transform="translate(18.857511,70.347507)" xlink:href="#O" /><use transform="translate(164.49155,70.347507)" xlink:href="#O" /><use transform="translate(200.92501,22.894997)" xlink:href="#O" /><text x="10.045034" y="94.421318" id="HO" style="font-size:23px;font-family:Arial">HO</text><use transform="translate(110.5325,45.743447)" xlink:href="#HO" /><use transform="translate(182.0675,27.930947)" xlink:href="#HO" /><text x="99.487244" y="29.108824" id="OH" style="font-size:23px;font-family:Arial">OH</text><use transform="translate(329.03249,65.312497)" xlink:href="#OH" /><text x="36.19379" y="112.79819" id="H" style="font-size:23px;font-family:Arial">H</text><text x="60.778393" y="112.79819" id="N" style="font-size:23px;font-family:Arial">N</text><text x="52.107243" y="116.9694" id="n2" style="font-size:17px;font-family:Arial">2</text><use transform="translate(128.04961,60.677637)" xlink:href="#H" /><use transform="translate(128.04961,60.677637)" xlink:href="#N" /><use transform="translate(128.04961,60.677637)" xlink:href="#n2" /><use transform="translate(222.81211,-18.314854)" xlink:href="#H" /><use transform="translate(222.81211,-18.314854)" xlink:href="#N" /><use transform="translate(222.81211,-18.314854)" xlink:href="#n2" /><use transform="translate(300.4078,55.405147)" xlink:href="#n2" /><text x="319.9805" y="168.20334" id="NH" style="font-size:23px;font-family:Arial">NH</text><use transform="translate(417.44782,21.442647)" xlink:href="#n2" /><use transform="translate(117.04002,-33.962493)" xlink:href="#NH" /></svg>
