<?xml version="1.0" encoding="UTF-8"?>
<svg width="557" height="536" version="1.1" viewBox="0 0 557 536" xmlns="http://www.w3.org/2000/svg" xmlns:xlink="http://www.w3.org/1999/xlink">
  <defs>
    <path id="char18" d="m1169 0h-1008v209q105 90 210 180t197 179q192 186 263 295t71 237q0 116-76 181t-214 66q-91 0-197-32t-207-98h-10v210q71 35 189 64t230 29q229 0 359-110t130-300q0-85-21-158t-64-140q-39-62-91-122t-128-133q-107-105-221-203t-213-183h801v-171z"/>
    <path id="char35" d="m1350 108q-55-24-99-45t-117-44q-61-19-132-32t-158-14q-162 0-294 45t-231 143q-96 95-150 241t-54 341q0 184 52 329t150 245q95 97 229 148t299 51q120 0 239-29t266-102v-235h-15q-123 103-244 150t-259 47q-113 0-203-36t-162-114q-69-75-107-189t-39-265q0-157 42-270t110-184q70-74 163-109t198-36q143 0 268 49t234 147h14v-232z"/>
    <path id="char40" d="M1339 0H1141V729H398V0H200V1489H398V905H1141V1489H1339V0Z"/>
    <path id="char46" d="M1336 0H1091L385 1332V0H200V1489H507L1151 273V1489H1336V0Z"/>
    <path id="char47" d="m1310 1318q91-100 139-245t49-329q0-184-49-329t-139-243q-92-101-217-152t-287-51q-157 0-285 52t-219 151q-90 99-138 243t-49 329q0 182 48 326t140 248q88 98 218 150t285 52q160 0 287-52t217-150zm-18-574q0 290-130 447t-355 158q-227 0-356-157t-130-448q0-293 132-448t354-156q222 0 353 155t132 449z"/>
    <path id="char76" d="M375 0H187V1556H375V0Z"/>
  </defs>
  <g stroke="#000" stroke-linecap="round" stroke-width="1.5">
    <line x1="28.4808" x2="28.4808" y1="178.671" y2="148.671"/>
    <line x1="28.4808" x2="2.5" y1="178.671" y2="193.671"/>
    <line x1="28.4808" x2="54.4615" y1="178.671" y2="193.671"/>
    <line x1="54.4615" x2="80.4423" y1="193.671" y2="178.671"/>
  </g>
  <path d="m80.4423 178.671 3-20.0911h-6z" stroke-linecap="square" stroke-width="0"/>
  <g stroke="#000" stroke-linecap="round" stroke-width="1.5">
    <line x1="72.3229" x2="54.4615" y1="143.984" y2="133.671"/>
    <line x1="80.4423" x2="104.423" y1="178.671" y2="193.671"/>
    <line x1="108.423" x2="124.284" y1="193.671" y2="183.359"/>
  </g>
  <path d="m158.385 193.671-16.3613-12.9103-3 5.19615z" stroke-linecap="square" stroke-width="0"/>
  <g stroke="#000" stroke-linecap="round" stroke-width="1.5">
    <line x1="158.385" x2="158.385" y1="193.671" y2="223.671"/>
    <line x1="158.385" x2="184.365" y1="193.671" y2="178.671"/>
    <line x1="158.385" x2="184.365" y1="223.671" y2="238.671"/>
    <line x1="184.365" x2="210.347" y1="238.671" y2="223.671"/>
    <line x1="202.227" x2="184.365" y1="188.984" y2="178.671"/>
  </g>
  <path d="m158.385 223.671-19.0381 7.5274 2.99997 5.19617z" stroke-linecap="square" stroke-width="0"/>
  <g stroke="#000" stroke-linecap="round" stroke-width="1.5">
    <line x1="184.365" x2="210.345" y1="268.671" y2="283.671"/>
    <line x1="236.326" x2="236.327" y1="268.672" y2="238.672"/>
    <line x1="210.345" x2="210.345" y1="283.671" y2="303.762"/>
    <line x1="236.326" x2="253.864" y1="268.672" y2="278.798"/>
    <line x1="270.75" x2="288.288" y1="278.798" y2="268.673"/>
    <line x1="314.269" x2="288.288" y1="223.673" y2="238.673"/>
    <line x1="288.288" x2="314.269" y1="268.673" y2="283.673"/>
    <line x1="340.249" x2="340.249" y1="268.673" y2="238.673"/>
    <line x1="340.249" x2="357.787" y1="268.673" y2="278.799"/>
    <line x1="374.673" x2="392.211" y1="278.799" y2="268.673"/>
    <line x1="392.211" x2="418.192" y1="268.673" y2="283.673"/>
    <line x1="444.173" x2="444.173" y1="268.673" y2="238.673"/>
    <line x1="418.192" x2="418.192" y1="283.673" y2="303.764"/>
    <line x1="314.269" x2="314.269" y1="283.673" y2="333.764"/>
  </g>
  <path d="m288.288 358.673 19.038-7.5275-3-5.19615z" stroke-linecap="square" stroke-width="0"/>
  <g stroke="#000" stroke-linecap="round" stroke-width="1.5">
    <line x1="236.326" x2="236.326" y1="358.673" y2="388.673"/>
    <line x1="236.326" x2="253.863" y1="358.673" y2="348.548"/>
    <line x1="236.326" x2="262.306" y1="388.673" y2="403.673"/>
    <line x1="262.306" x2="288.288" y1="403.673" y2="388.673"/>
    <line x1="288.288" x2="288.288" y1="388.673" y2="358.673"/>
    <line x1="288.288" x2="270.749" y1="358.673" y2="348.547"/>
  </g>
  <path d="m236.326 358.673-23.8125-17.1175-6.19421 3.57582z"/>
  <path d="m262.306 403.673-3.00032 20.091 6 9.56947e-5z" stroke-linecap="square" stroke-width="0"/>
  <g stroke="#000" stroke-linecap="round" stroke-width="1.5">
    <line x1="236.326" x2="236.326" y1="388.673" y2="388.673"/>
    <line x1="232.518" x2="233.118" y1="390.178" y2="391.218"/>
    <line x1="228.711" x2="229.911" y1="391.684" y2="393.762"/>
    <line x1="224.903" x2="226.703" y1="393.189" y2="396.307"/>
    <line x1="221.096" x2="223.495" y1="394.695" y2="398.852"/>
    <line x1="217.288" x2="220.288" y1="396.2" y2="401.397"/>
    <line x1="288.288" x2="288.288" y1="388.673" y2="388.673"/>
    <line x1="291.496" x2="292.096" y1="391.218" y2="390.179"/>
    <line x1="294.703" x2="295.903" y1="393.763" y2="391.684"/>
    <line x1="297.911" x2="299.711" y1="396.307" y2="393.19"/>
    <line x1="301.118" x2="303.518" y1="398.852" y2="394.695"/>
    <line x1="304.326" x2="307.326" y1="401.397" y2="396.201"/>
    <line x1="210.345" x2="192.807" y1="343.673" y2="353.799"/>
    <line x1="314.269" x2="314.269" y1="413.582" y2="413.582"/>
    <line x1="313.669" x2="314.869" y1="417.6" y2="417.6"/>
    <line x1="313.069" x2="315.469" y1="421.619" y2="421.619"/>
    <line x1="312.469" x2="316.069" y1="425.637" y2="425.637"/>
    <line x1="311.869" x2="316.669" y1="429.655" y2="429.655"/>
    <line x1="288.289" x2="288.289" y1="448.673" y2="478.673"/>
    <line x1="288.289" x2="314.269" y1="448.673" y2="433.673"/>
    <line x1="288.289" x2="314.269" y1="478.673" y2="493.673"/>
    <line x1="314.269" x2="340.251" y1="493.673" y2="478.673"/>
    <line x1="340.251" x2="340.251" y1="478.673" y2="458.582"/>
    <line x1="331.808" x2="314.269" y1="443.799" y2="433.673"/>
  </g>
  <g stroke-linecap="square" stroke-width="0">
    <path d="m288.289 478.673-12.7375 16.062 5.19615 3z"/>
    <path d="m314.269 493.673-3.00034 20.091 6 1.00252e-4z"/>
    <path d="m340.251 478.673 24.4806 17.5983 3.00005-5.19612z"/>
  </g>
  <g stroke="#000" stroke-linecap="round" stroke-width="1.5">
    <line x1="288.289" x2="288.289" y1="478.673" y2="478.673"/>
    <line x1="283.289" x2="283.289" y1="478.173" y2="479.173"/>
    <line x1="278.289" x2="278.289" y1="477.673" y2="479.673"/>
    <line x1="273.289" x2="273.289" y1="477.173" y2="480.173"/>
    <line x1="268.289" x2="268.289" y1="476.673" y2="480.673"/>
    <line x1="263.289" x2="263.289" y1="476.173" y2="481.173"/>
    <line x1="258.289" x2="258.289" y1="475.673" y2="481.673"/>
    <line x1="314.269" x2="314.269" y1="223.673" y2="193.673"/>
    <line x1="218.466" x2="236.327" y1="188.984" y2="178.671"/>
  </g>
  <path d="m236.327 178.671 3.29458-32.9458-6.20126 3.87895z"/>
  <g stroke="#000" stroke-linecap="round" stroke-width="1.5">
    <line x1="236.327" x2="260.308" y1="148.671" y2="133.671"/>
    <line x1="264.308" x2="280.169" y1="133.671" y2="143.984"/>
    <line x1="236.327" x2="262.308" y1="178.671" y2="193.671"/>
    <line x1="262.308" x2="280.169" y1="193.671" y2="183.359"/>
  </g>
  <path d="m314.269 193.673-16.3605-12.9113-3.00032 5.19597z" stroke-linecap="square" stroke-width="0"/>
  <g stroke="#000" stroke-linecap="round" stroke-width="1.5">
    <line x1="314.269" x2="340.25" y1="193.673" y2="178.674"/>
    <line x1="340.25" x2="358.111" y1="178.674" y2="188.987"/>
    <line x1="394.685" x2="394.685" y1="164.54" y2="164.54"/>
    <line x1="390.697" x2="391.413" y1="167.908" y2="168.607"/>
    <line x1="386.71" x2="388.14" y1="171.275" y2="172.673"/>
    <line x1="382.722" x2="384.868" y1="174.643" y2="176.739"/>
    <line x1="378.734" x2="381.595" y1="178.01" y2="180.805"/>
    <line x1="374.746" x2="378.323" y1="181.378" y2="184.871"/>
    <line x1="370.758" x2="375.05" y1="184.745" y2="188.937"/>
    <line x1="444.173" x2="470.153" y1="238.673" y2="223.673"/>
    <line x1="470.153" x2="469.394" y1="223.673" y2="194.106"/>
    <line x1="469.394" x2="469.394" y1="194.106" y2="194.106"/>
    <line x1="465.642" x2="464.818" y1="190.742" y2="191.996"/>
    <line x1="461.89" x2="460.242" y1="187.378" y2="189.885"/>
    <line x1="458.139" x2="455.667" y1="184.014" y2="187.774"/>
    <line x1="454.387" x2="451.091" y1="180.65" y2="185.663"/>
    <line x1="470.153" x2="470.153" y1="223.673" y2="223.673"/>
    <line x1="473.361" x2="473.961" y1="226.218" y2="225.179"/>
    <line x1="476.568" x2="477.768" y1="228.762" y2="226.684"/>
    <line x1="479.776" x2="481.576" y1="231.307" y2="228.19"/>
    <line x1="482.984" x2="485.384" y1="233.852" y2="229.695"/>
    <line x1="486.191" x2="489.191" y1="236.397" y2="231.201"/>
    <line x1="435.934" x2="415.899" y1="180.384" y2="185.752"/>
    <line x1="415.899" x2="394.685" y1="185.752" y2="164.54"/>
    <line x1="394.685" x2="399.211" y1="164.54" y2="139.675"/>
    <line x1="399.211" x2="373.23" y1="79.6746" y2="94.6746"/>
    <line x1="373.23" x2="399.211" y1="124.675" y2="139.675"/>
    <line x1="425.192" x2="425.192" y1="124.675" y2="94.6746"/>
    <line x1="392.211" x2="418.192" y1="238.673" y2="223.673"/>
    <line x1="469.394" x2="490.607" y1="194.106" y2="172.893"/>
  </g>
  <path d="m490.607 120.931 31.1056 4.41604-3.66585-6.34837z"/>
  <g stroke="#000" stroke-linecap="round" stroke-width="1.5">
    <line x1="490.607" x2="480.467" y1="120.932" y2="138.494"/>
    <line x1="480.467" x2="490.607" y1="155.331" y2="172.893"/>
    <line x1="522.339" x2="530.68" y1="119.932" y2="103.485"/>
    <line x1="399.211" x2="399.211" y1="79.6746" y2="59.5836"/>
    <line x1="490.607" x2="478.128" y1="120.932" y2="80.0047"/>
    <line x1="460.586" x2="440.126" y1="22.6264" y2="44.5671"/>
    <line x1="448.897" x2="478.128" y1="73.2562" y2="80.0047"/>
    <line x1="498.588" x2="489.817" y1="58.0641" y2="29.375"/>
    <line x1="425.192" x2="448.897" y1="94.6746" y2="73.2562"/>
    <line x1="489.817" x2="503.587" y1="29.375" y2="14.608"/>
    <line x1="440.126" x2="420.354" y1="44.5671" y2="40.0023"/>
    <line x1="210.347" x2="236.327" y1="223.671" y2="238.672"/>
    <line x1="211.811" x2="230.863" y1="229.136" y2="240.136"/>
    <line x1="210.345" x2="236.326" y1="283.671" y2="268.672"/>
    <line x1="211.81" x2="230.862" y1="278.207" y2="267.208"/>
    <line x1="184.365" x2="184.365" y1="238.671" y2="268.671"/>
    <line x1="188.365" x2="188.365" y1="242.671" y2="264.671"/>
    <line x1="288.288" x2="288.288" y1="238.673" y2="268.673"/>
    <line x1="292.288" x2="292.288" y1="242.673" y2="264.673"/>
    <line x1="314.269" x2="340.249" y1="223.673" y2="238.673"/>
    <line x1="315.733" x2="334.785" y1="229.137" y2="240.137"/>
    <line x1="314.269" x2="340.249" y1="283.673" y2="268.673"/>
    <line x1="315.733" x2="334.785" y1="278.209" y2="267.209"/>
    <line x1="392.211" x2="392.211" y1="238.673" y2="268.673"/>
    <line x1="396.211" x2="396.211" y1="242.673" y2="264.673"/>
    <line x1="418.192" x2="444.173" y1="223.673" y2="238.673"/>
    <line x1="419.656" x2="438.708" y1="229.137" y2="240.137"/>
    <line x1="418.192" x2="444.173" y1="283.673" y2="268.673"/>
    <line x1="419.656" x2="438.708" y1="278.209" y2="267.209"/>
    <line x1="373.23" x2="373.23" y1="94.6746" y2="124.675"/>
    <line x1="377.23" x2="377.23" y1="98.6746" y2="120.675"/>
    <line x1="399.211" x2="425.192" y1="79.6746" y2="94.6746"/>
    <line x1="400.675" x2="419.728" y1="85.1387" y2="96.1387"/>
    <line x1="399.211" x2="425.192" y1="139.675" y2="124.675"/>
    <line x1="400.675" x2="419.728" y1="134.211" y2="123.211"/>
    <line x1="440.126" x2="448.897" y1="44.5671" y2="73.2562"/>
    <line x1="445.121" x2="451.553" y1="47.2228" y2="68.2615"/>
    <line x1="460.586" x2="489.817" y1="22.6264" y2="29.375"/>
    <line x1="463.584" x2="485.02" y1="27.4237" y2="32.3727"/>
    <line x1="478.128" x2="498.588" y1="80.0047" y2="58.0641"/>
    <line x1="477.931" x2="492.935" y1="74.3513" y2="58.2615"/>
    <line x1="104.423" x2="104.423" y1="193.671" y2="213.785"/>
    <line x1="108.423" x2="108.423" y1="193.671" y2="213.785"/>
    <path d="m182.365 179.381-3.4e-4 -20.8237m4.00034 20.8237-3.4e-4 -20.8237"/>
    <line x1="264.308" x2="264.308" y1="133.671" y2="113.557"/>
    <line x1="260.308" x2="260.308" y1="133.671" y2="113.557"/>
    <path d="m264.308 192.807v20.9784m-4-20.9784v20.9784"/>
    <path d="m338.25 179.454 6.1e-4 -20.8947m3.99939 20.8948 6.1e-4 -20.8947"/>
    <path d="m418.53 185.042-10.0654 19.1888m5.89376-19.847-9.19477 17.529"/>
    <path d="m489.704 170.893h21.2268m-21.9294 4h21.9294"/>
    <line x1="518.875" x2="528.965" y1="121.932" y2="139.408"/>
    <line x1="522.339" x2="532.417" y1="119.932" y2="137.386"/>
  </g>
  <g fill="#000000">
    <use transform="matrix(.0078125 0 0 -.0078125 74.4579 155.749)" width="100%" height="100%" xlink:href="#char46"/>
    <use transform="matrix(.0078125 0 0 -.0078125 126.419 185.749)" width="100%" height="100%" xlink:href="#char46"/>
    <use transform="matrix(.0078125 0 0 -.0078125 100.126 230.749)" width="100%" height="100%" xlink:href="#char47"/>
    <use transform="matrix(.0078125 0 0 -.0078125 204.362 197.91)" width="100%" height="100%" xlink:href="#char46"/>
    <use transform="matrix(.0078125 0 0 -.0078125 178.067 155.749)" width="100%" height="100%" xlink:href="#char47"/>
    <use transform="matrix(.0078125 0 0 -.0078125 126.107 245.749)" width="100%" height="100%" xlink:href="#char47"/>
    <use transform="matrix(.0078125 0 0 -.0078125 202.563 320.749)" width="100%" height="100%" xlink:href="#char35"/>
    <use transform="matrix(.0078125 0 0 -.0078125 202.563 320.749)" x="1430" width="100%" height="100%" xlink:href="#char76"/>
    <use transform="matrix(.0078125 0 0 -.0078125 256.01 290.75)" width="100%" height="100%" xlink:href="#char47"/>
    <use transform="matrix(.0078125 0 0 -.0078125 359.933 290.751)" width="100%" height="100%" xlink:href="#char47"/>
    <use transform="matrix(.0078125 0 0 -.0078125 410.41 320.751)" width="100%" height="100%" xlink:href="#char35"/>
    <use transform="matrix(.0078125 0 0 -.0078125 410.41 320.751)" x="1430" width="100%" height="100%" xlink:href="#char76"/>
    <use transform="matrix(.0078125 0 0 -.0078125 307.972 350.751)" width="100%" height="100%" xlink:href="#char47"/>
    <use transform="matrix(.0078125 0 0 -.0078125 256.009 350.751)" width="100%" height="100%" xlink:href="#char47"/>
    <use transform="matrix(.0078125 0 0 -.0078125 256.009 440.751)" width="100%" height="100%" xlink:href="#char47"/>
    <use transform="matrix(.0078125 0 0 -.0078125 204.048 410.751)" width="100%" height="100%" xlink:href="#char47"/>
    <use transform="matrix(.0078125 0 0 -.0078125 307.972 410.751)" width="100%" height="100%" xlink:href="#char47"/>
    <use transform="matrix(.0078125 0 0 -.0078125 178.068 365.751)" width="100%" height="100%" xlink:href="#char47"/>
    <use transform="matrix(.0078125 0 0 -.0078125 333.954 455.751)" width="100%" height="100%" xlink:href="#char47"/>
    <use transform="matrix(.0078125 0 0 -.0078125 267.304 511.732)" width="100%" height="100%" xlink:href="#char46"/>
    <use transform="matrix(.0078125 0 0 -.0078125 307.971 530.751)" width="100%" height="100%" xlink:href="#char47"/>
    <use transform="matrix(.0078125 0 0 -.0078125 282.304 155.749)" width="100%" height="100%" xlink:href="#char46"/>
    <use transform="matrix(.0078125 0 0 -.0078125 256.011 110.749)" width="100%" height="100%" xlink:href="#char47"/>
    <use transform="matrix(.0078125 0 0 -.0078125 282.304 185.749)" width="100%" height="100%" xlink:href="#char46"/>
    <use transform="matrix(.0078125 0 0 -.0078125 256.011 230.749)" width="100%" height="100%" xlink:href="#char47"/>
    <use transform="matrix(.0078125 0 0 -.0078125 333.954 155.752)" width="100%" height="100%" xlink:href="#char47"/>
    <use transform="matrix(.0078125 0 0 -.0078125 360.246 199.617)" width="100%" height="100%" xlink:href="#char46"/>
    <use transform="matrix(.0078125 0 0 -.0078125 438.892 185.065)" width="100%" height="100%" xlink:href="#char46"/>
    <use transform="matrix(.0078125 0 0 -.0078125 489.837 245.751)" width="100%" height="100%" xlink:href="#char47"/>
    <use transform="matrix(.0078125 0 0 -.0078125 395.831 219.083)" width="100%" height="100%" xlink:href="#char47"/>
    <use transform="matrix(.0078125 0 0 -.0078125 514.31 179.971)" width="100%" height="100%" xlink:href="#char47"/>
    <use transform="matrix(.0078125 0 0 -.0078125 529.31 153.99)" width="100%" height="100%" xlink:href="#char47"/>
    <use transform="matrix(.0078125 0 0 -.0078125 469.623 152.287)" width="100%" height="100%" xlink:href="#char46"/>
    <use transform="matrix(.0078125 0 0 -.0078125 529.31 102.029)" width="100%" height="100%" xlink:href="#char47"/>
    <use transform="matrix(.0078125 0 0 -.0078125 392.914 56.7524)" width="100%" height="100%" xlink:href="#char47"/>
    <use transform="matrix(.0078125 0 0 -.0078125 503.98 14.5122)" width="100%" height="100%" xlink:href="#char47"/>
    <use transform="matrix(.0078125 0 0 -.0078125 404.598 44.8963)" width="100%" height="100%" xlink:href="#char47"/>
    <use transform="matrix(.0078125 0 0 -.0078125 86.2845 155.749)" width="100%" height="100%" xlink:href="#char40"/>
    <use transform="matrix(.0078125 0 0 -.0078125 126.392 170.395)" width="100%" height="100%" xlink:href="#char40"/>
    <use transform="matrix(.0078125 0 0 -.0078125 204.335 211.978)" width="100%" height="100%" xlink:href="#char40"/>
    <use transform="matrix(.0078125 0 0 -.0078125 114.16 245.749)" width="100%" height="100%" xlink:href="#char40"/>
    <use transform="matrix(.0078125 0 0 -.0078125 244.062 440.751)" width="100%" height="100%" xlink:href="#char40"/>
    <use transform="matrix(.0078125 0 0 -.0078125 192.101 410.751)" width="100%" height="100%" xlink:href="#char40"/>
    <use transform="matrix(.0078125 0 0 -.0078125 166.121 365.751)" width="100%" height="100%" xlink:href="#char40"/>
    <use transform="matrix(.0078125 0 0 -.0078125 251.828 511.732)" width="100%" height="100%" xlink:href="#char40"/>
    <use transform="matrix(.00390625 0 0 -.00390625 263.123 514.697)" width="100%" height="100%" xlink:href="#char18"/>
    <use transform="matrix(.0078125 0 0 -.0078125 296.024 530.751)" width="100%" height="100%" xlink:href="#char40"/>
    <use transform="matrix(.0078125 0 0 -.0078125 294.131 155.749)" width="100%" height="100%" xlink:href="#char40"/>
    <use transform="matrix(.00390625 0 0 -.00390625 305.426 158.714)" width="100%" height="100%" xlink:href="#char18"/>
    <use transform="matrix(.0078125 0 0 -.0078125 360.219 215.684)" width="100%" height="100%" xlink:href="#char40"/>
    <use transform="matrix(.0078125 0 0 -.0078125 438.865 169.711)" width="100%" height="100%" xlink:href="#char40"/>
    <use transform="matrix(.0078125 0 0 -.0078125 502.354 245.751)" width="100%" height="100%" xlink:href="#char40"/>
    <use transform="matrix(.0078125 0 0 -.0078125 457.741 152.287)" width="100%" height="100%" xlink:href="#char40"/>
    <use transform="matrix(.0078125 0 0 -.0078125 541.827 102.029)" width="100%" height="100%" xlink:href="#char40"/>
    <use transform="matrix(.0078125 0 0 -.0078125 380.967 56.7524)" width="100%" height="100%" xlink:href="#char40"/>
    <use transform="matrix(.0078125 0 0 -.0078125 516.497 14.5122)" width="100%" height="100%" xlink:href="#char40"/>
    <use transform="matrix(.0078125 0 0 -.0078125 404.883 29.5418)" width="100%" height="100%" xlink:href="#char40"/>
    <use transform="matrix(.0078125 0 0 -.0078125 282.277 201.817)" width="100%" height="100%" xlink:href="#char40"/>
  </g>
</svg>
